{
	"asset":{
		"generator":"Khronos glTF Blender I/O v4.0.44",
		"version":"2.0"
	},
	"scene":0,
	"scenes":[
		{
			"extras":{
				"sun_pos_properties":{
					"show_surface":0,
					"show_analemmas":0,
					"show_north":0,
					"latitude":0.0,
					"day_of_year":90,
					"sun_object":{},
					"object_collection":{}
				},
				"vrm_addon_extension":{
					"vrm0_material_gltf_property_names":[
						{
							"name":"_Color",
							"value":"_Color"
						},
						{
							"name":"_MainTex_ST",
							"value":"_MainTex_ST"
						},
						{
							"name":"_MainTex_ST_S",
							"value":"_MainTex_ST_S"
						},
						{
							"name":"_MainTex_ST_T",
							"value":"_MainTex_ST_T"
						},
						{
							"name":"_MetallicGlossMap_ST",
							"value":"_MetallicGlossMap_ST"
						},
						{
							"name":"_MetallicGlossMap_ST_S",
							"value":"_MetallicGlossMap_ST_S"
						},
						{
							"name":"_MetallicGlossMap_ST_T",
							"value":"_MetallicGlossMap_ST_T"
						},
						{
							"name":"_BumpMap_ST",
							"value":"_BumpMap_ST"
						},
						{
							"name":"_BumpMap_ST_S",
							"value":"_BumpMap_ST_S"
						},
						{
							"name":"_BumpMap_ST_T",
							"value":"_BumpMap_ST_T"
						},
						{
							"name":"_ParallaxMap_ST",
							"value":"_ParallaxMap_ST"
						},
						{
							"name":"_ParallaxMap_ST_S",
							"value":"_ParallaxMap_ST_S"
						},
						{
							"name":"_ParallaxMap_ST_T",
							"value":"_ParallaxMap_ST_T"
						},
						{
							"name":"_OcclusionMap_ST",
							"value":"_OcclusionMap_ST"
						},
						{
							"name":"_OcclusionMap_ST_S",
							"value":"_OcclusionMap_ST_S"
						},
						{
							"name":"_OcclusionMap_ST_T",
							"value":"_OcclusionMap_ST_T"
						},
						{
							"name":"_EmissionColor",
							"value":"_EmissionColor"
						},
						{
							"name":"_EmissionMap_ST",
							"value":"_EmissionMap_ST"
						},
						{
							"name":"_EmissionMap_ST_S",
							"value":"_EmissionMap_ST_S"
						},
						{
							"name":"_EmissionMap_ST_T",
							"value":"_EmissionMap_ST_T"
						},
						{
							"name":"_DetailMask_ST",
							"value":"_DetailMask_ST"
						},
						{
							"name":"_DetailMask_ST_S",
							"value":"_DetailMask_ST_S"
						},
						{
							"name":"_DetailMask_ST_T",
							"value":"_DetailMask_ST_T"
						},
						{
							"name":"_DetailAlbedoMap_ST",
							"value":"_DetailAlbedoMap_ST"
						},
						{
							"name":"_DetailAlbedoMap_ST_S",
							"value":"_DetailAlbedoMap_ST_S"
						},
						{
							"name":"_DetailAlbedoMap_ST_T",
							"value":"_DetailAlbedoMap_ST_T"
						},
						{
							"name":"_DetailNormalMap_ST",
							"value":"_DetailNormalMap_ST"
						},
						{
							"name":"_DetailNormalMap_ST_S",
							"value":"_DetailNormalMap_ST_S"
						},
						{
							"name":"_DetailNormalMap_ST_T",
							"value":"_DetailNormalMap_ST_T"
						}
					],
					"vrm0_material_mtoon0_property_names":[
						{
							"name":"_Color",
							"value":"_Color"
						},
						{
							"name":"_ShadeColor",
							"value":"_ShadeColor"
						},
						{
							"name":"_MainTex_ST",
							"value":"_MainTex_ST"
						},
						{
							"name":"_MainTex_ST_S",
							"value":"_MainTex_ST_S"
						},
						{
							"name":"_MainTex_ST_T",
							"value":"_MainTex_ST_T"
						},
						{
							"name":"_ShadeTexture_ST",
							"value":"_ShadeTexture_ST"
						},
						{
							"name":"_ShadeTexture_ST_S",
							"value":"_ShadeTexture_ST_S"
						},
						{
							"name":"_ShadeTexture_ST_T",
							"value":"_ShadeTexture_ST_T"
						},
						{
							"name":"_BumpMap_ST",
							"value":"_BumpMap_ST"
						},
						{
							"name":"_BumpMap_ST_S",
							"value":"_BumpMap_ST_S"
						},
						{
							"name":"_BumpMap_ST_T",
							"value":"_BumpMap_ST_T"
						},
						{
							"name":"_ReceiveShadowTexture_ST",
							"value":"_ReceiveShadowTexture_ST"
						},
						{
							"name":"_ReceiveShadowTexture_ST_S",
							"value":"_ReceiveShadowTexture_ST_S"
						},
						{
							"name":"_ReceiveShadowTexture_ST_T",
							"value":"_ReceiveShadowTexture_ST_T"
						},
						{
							"name":"_ShadingGradeTexture_ST",
							"value":"_ShadingGradeTexture_ST"
						},
						{
							"name":"_ShadingGradeTexture_ST_S",
							"value":"_ShadingGradeTexture_ST_S"
						},
						{
							"name":"_ShadingGradeTexture_ST_T",
							"value":"_ShadingGradeTexture_ST_T"
						},
						{
							"name":"_RimColor",
							"value":"_RimColor"
						},
						{
							"name":"_RimTexture_ST",
							"value":"_RimTexture_ST"
						},
						{
							"name":"_RimTexture_ST_S",
							"value":"_RimTexture_ST_S"
						},
						{
							"name":"_RimTexture_ST_T",
							"value":"_RimTexture_ST_T"
						},
						{
							"name":"_SphereAdd_ST",
							"value":"_SphereAdd_ST"
						},
						{
							"name":"_SphereAdd_ST_S",
							"value":"_SphereAdd_ST_S"
						},
						{
							"name":"_SphereAdd_ST_T",
							"value":"_SphereAdd_ST_T"
						},
						{
							"name":"_EmissionColor",
							"value":"_EmissionColor"
						},
						{
							"name":"_EmissionMap_ST",
							"value":"_EmissionMap_ST"
						},
						{
							"name":"_EmissionMap_ST_S",
							"value":"_EmissionMap_ST_S"
						},
						{
							"name":"_EmissionMap_ST_T",
							"value":"_EmissionMap_ST_T"
						},
						{
							"name":"_OutlineWidthTexture_ST",
							"value":"_OutlineWidthTexture_ST"
						},
						{
							"name":"_OutlineWidthTexture_ST_S",
							"value":"_OutlineWidthTexture_ST_S"
						},
						{
							"name":"_OutlineWidthTexture_ST_T",
							"value":"_OutlineWidthTexture_ST_T"
						},
						{
							"name":"_OutlineColor",
							"value":"_OutlineColor"
						},
						{
							"name":"_UvAnimMaskTexture_ST",
							"value":"_UvAnimMaskTexture_ST"
						},
						{
							"name":"_UvAnimMaskTexture_ST_S",
							"value":"_UvAnimMaskTexture_ST_S"
						},
						{
							"name":"_UvAnimMaskTexture_ST_T",
							"value":"_UvAnimMaskTexture_ST_T"
						}
					]
				},
				"puresky_properties":{
					"int_flag_updt_camera":1
				},
				"muv_pack_uv_enabled":0,
				"handy_toolset_props":{},
				"retopo_target":{},
				"uuid":"21559b4c-c3a9-4493-a22e-572d848b474d",
				"assets reported":{},
				"scatter_properties":{},
				"recast_navmesh":{},
				"created_collider":{}
			},
			"name":"Scene",
			"nodes":[
				8
			]
		}
	],
	"nodes":[
		{
			"extras":{
				"MaxHandle":2
			},
			"mesh":0,
			"name":"clothes_hanger_01.013",
			"rotation":[
				0.541675329208374,
				0.45451948046684265,
				-0.4545193612575531,
				0.5416752099990845
			],
			"scale":[
				0.819433331489563,
				0.819433331489563,
				0.8194332718849182
			],
			"translation":[
				36.005706787109375,
				69.24266815185547,
				-35.26631546020508
			]
		},
		{
			"extras":{
				"MaxHandle":2
			},
			"mesh":1,
			"name":"clothes_hanger_01.014",
			"rotation":[
				0.4521404206752777,
				0.5436627268791199,
				-0.5436626076698303,
				0.45214030146598816
			],
			"scale":[
				0.819433331489563,
				0.819433331489563,
				0.8194332718849182
			],
			"translation":[
				35.98326110839844,
				69.24268341064453,
				-140.83580017089844
			]
		},
		{
			"extras":{
				"MaxHandle":2
			},
			"mesh":2,
			"name":"clothes_hanger_01.015",
			"rotation":[
				0.4545196294784546,
				0.5416752099990845,
				-0.5416750907897949,
				0.4545195698738098
			],
			"scale":[
				0.8194332718849182,
				0.8194332718849182,
				0.8194332718849182
			],
			"translation":[
				35.848480224609375,
				69.24264526367188,
				56.015621185302734
			]
		},
		{
			"extras":{
				"xrengine.EE_collider.shape":"mesh",
				"xrengine.entity":"clothes_hanger_01_collider"
			},
			"mesh":3,
			"name":"clothes_hanger_01_collider.012",
			"rotation":[
				0,
				0.642787516117096,
				0,
				0.7660444974899292
			],
			"scale":[
				32.15296173095703,
				29.647075653076172,
				112.4417724609375
			],
			"translation":[
				34.40248107910156,
				68.1758041381836,
				-35.54896926879883
			]
		},
		{
			"extras":{
				"xrengine.EE_collider.shape":"mesh",
				"xrengine.entity":"clothes_hanger_01_collider"
			},
			"mesh":4,
			"name":"clothes_hanger_01_collider.013",
			"rotation":[
				0,
				0.768855094909668,
				0,
				0.6394230723381042
			],
			"scale":[
				32.15296173095703,
				29.647075653076172,
				112.44178009033203
			],
			"translation":[
				34.38261413574219,
				68.17581939697266,
				-140.5389862060547
			]
		},
		{
			"extras":{
				"xrengine.EE_collider.shape":"mesh",
				"xrengine.entity":"clothes_hanger_01_collider"
			},
			"mesh":5,
			"name":"clothes_hanger_01_collider.014",
			"rotation":[
				0,
				0.7660443782806396,
				0,
				0.642787754535675
			],
			"scale":[
				32.152957916259766,
				29.647075653076172,
				112.44178009033203
			],
			"translation":[
				34.24528503417969,
				68.17578125,
				56.29829025268555
			]
		},
		{
			"children":[
				0,
				1,
				2,
				3,
				4,
				5
			],
			"mesh":6,
			"name":"Aur_CenterRack.001",
			"scale":[
				0.008893489837646484,
				0.008893489837646484,
				0.008893489837646484
			],
			"translation":[
				0.05427229404449463,
				1.3898661136627197,
				0.28377771377563477
			]
		},
		{
			"extras":{
				"xrengine.EE_collider.shape":"box",
				"xrengine.entity":"Aur_CenterRack.001_bcol"
			},
			"mesh":7,
			"name":"Aur_CenterRack.001_bcol",
			"translation":[
				0.00016701221466064453,
				0.10840058326721191,
				-0.0001583099365234375
			]
		},
		{
			"children":[
				6,
				7
			],
			"extras":{
				"xrengine.EE_rigidbody.type":"fixed",
				"xrengine.entity":"Aurelia_PBR_Export"
			},
			"name":"Aur_CenterRack",
			"translation":[
				-1.8889567852020264,
				-0.10840058326721191,
				-2.982247829437256
			]
		}
	],
	"materials":[
		{
			"doubleSided":true,
			"extras":{
				"vrm_addon_extension":{
					"mtoon1":{
						"pbr_metallic_roughness":{
							"base_color_texture":{}
						},
						"normal_texture":{},
						"emissive_texture":{},
						"extensions":{
							"vrmc_materials_mtoon":{
								"shade_multiply_texture":{},
								"shading_shift_texture":{},
								"matcap_texture":{},
								"rim_multiply_texture":{},
								"outline_width_multiply_texture":{},
								"uv_animation_mask_texture":{}
							}
						}
					}
				},
				"blenderkit":{}
			},
			"name":"Metal",
			"normalTexture":{
				"index":0
			},
			"pbrMetallicRoughness":{
				"baseColorTexture":{
					"index":1
				},
				"metallicRoughnessTexture":{
					"index":2
				}
			}
		}
	],
	"meshes":[
		{
			"name":"Mesh.001",
			"primitives":[
				{
					"attributes":{
						"POSITION":0,
						"NORMAL":1,
						"TEXCOORD_0":2
					},
					"indices":3,
					"material":0
				}
			]
		},
		{
			"name":"Mesh.005",
			"primitives":[
				{
					"attributes":{
						"POSITION":4,
						"NORMAL":5,
						"TEXCOORD_0":6
					},
					"indices":3,
					"material":0
				}
			]
		},
		{
			"name":"Mesh.006",
			"primitives":[
				{
					"attributes":{
						"POSITION":7,
						"NORMAL":8,
						"TEXCOORD_0":9
					},
					"indices":3,
					"material":0
				}
			]
		},
		{
			"name":"Cube.004",
			"primitives":[
				{
					"attributes":{
						"POSITION":10,
						"NORMAL":11,
						"TEXCOORD_0":12
					},
					"indices":13
				}
			]
		},
		{
			"name":"Cube.009",
			"primitives":[
				{
					"attributes":{
						"POSITION":14,
						"NORMAL":15,
						"TEXCOORD_0":16
					},
					"indices":13
				}
			]
		},
		{
			"name":"Cube.016",
			"primitives":[
				{
					"attributes":{
						"POSITION":17,
						"NORMAL":18,
						"TEXCOORD_0":19
					},
					"indices":13
				}
			]
		},
		{
			"name":"01_Metaldetails.002",
			"primitives":[
				{
					"attributes":{
						"POSITION":20,
						"NORMAL":21,
						"TEXCOORD_0":22
					},
					"indices":23,
					"material":0
				}
			]
		},
		{
			"name":"Cube.019",
			"primitives":[
				{
					"attributes":{
						"POSITION":24,
						"NORMAL":25,
						"TEXCOORD_0":26
					},
					"indices":13
				}
			]
		}
	],
	"textures":[
		{
			"sampler":0,
			"source":0
		},
		{
			"sampler":0,
			"source":1
		},
		{
			"sampler":0,
			"source":2
		}
	],
	"images":[
		{
			"mimeType":"image/png",
			"name":"Aurelia_Atlas_01_normal",
			"uri":"Aurelia_Atlas_01_normal.png"
		},
		{
			"mimeType":"image/png",
			"name":"Aurelia_Atlas_01_base_color",
			"uri":"Aurelia_Atlas_01_base_color.png"
		},
		{
			"mimeType":"image/png",
			"name":"Aurelia_Atlas_01_ORM",
			"uri":"Aurelia_Atlas_01_ORM.png"
		}
	],
	"accessors":[
		{
			"bufferView":0,
			"componentType":5126,
			"count":826,
			"max":[
				41.41338348388672,
				5.218361854553223,
				43.20700454711914
			],
			"min":[
				-41.41338348388672,
				-4.533297061920166,
				-5.723391532897949
			],
			"type":"VEC3"
		},
		{
			"bufferView":1,
			"componentType":5126,
			"count":826,
			"type":"VEC3"
		},
		{
			"bufferView":2,
			"componentType":5126,
			"count":826,
			"type":"VEC2"
		},
		{
			"bufferView":3,
			"componentType":5123,
			"count":2352,
			"type":"SCALAR"
		},
		{
			"bufferView":4,
			"componentType":5126,
			"count":826,
			"max":[
				41.41338348388672,
				5.218361854553223,
				43.20700454711914
			],
			"min":[
				-41.41338348388672,
				-4.533297061920166,
				-5.723391532897949
			],
			"type":"VEC3"
		},
		{
			"bufferView":5,
			"componentType":5126,
			"count":826,
			"type":"VEC3"
		},
		{
			"bufferView":6,
			"componentType":5126,
			"count":826,
			"type":"VEC2"
		},
		{
			"bufferView":7,
			"componentType":5126,
			"count":826,
			"max":[
				41.41338348388672,
				5.218361854553223,
				43.20700454711914
			],
			"min":[
				-41.41338348388672,
				-4.533297061920166,
				-5.723391532897949
			],
			"type":"VEC3"
		},
		{
			"bufferView":8,
			"componentType":5126,
			"count":826,
			"type":"VEC3"
		},
		{
			"bufferView":9,
			"componentType":5126,
			"count":826,
			"type":"VEC2"
		},
		{
			"bufferView":10,
			"componentType":5126,
			"count":24,
			"max":[
				1.1237534284591675,
				-0.1257166564464569,
				0.043016113340854645
			],
			"min":[
				-1.1237534284591675,
				-1.1643397808074951,
				0.007351303473114967
			],
			"type":"VEC3"
		},
		{
			"bufferView":11,
			"componentType":5126,
			"count":24,
			"type":"VEC3"
		},
		{
			"bufferView":12,
			"componentType":5126,
			"count":24,
			"type":"VEC2"
		},
		{
			"bufferView":13,
			"componentType":5123,
			"count":36,
			"type":"SCALAR"
		},
		{
			"bufferView":14,
			"componentType":5126,
			"count":24,
			"max":[
				1.1237534284591675,
				-0.1257166564464569,
				0.043016113340854645
			],
			"min":[
				-1.1237534284591675,
				-1.1643397808074951,
				0.007351303473114967
			],
			"type":"VEC3"
		},
		{
			"bufferView":15,
			"componentType":5126,
			"count":24,
			"type":"VEC3"
		},
		{
			"bufferView":16,
			"componentType":5126,
			"count":24,
			"type":"VEC2"
		},
		{
			"bufferView":17,
			"componentType":5126,
			"count":24,
			"max":[
				1.1237534284591675,
				-0.1257166564464569,
				0.043016113340854645
			],
			"min":[
				-1.1237534284591675,
				-1.1643397808074951,
				0.007351303473114967
			],
			"type":"VEC3"
		},
		{
			"bufferView":18,
			"componentType":5126,
			"count":24,
			"type":"VEC3"
		},
		{
			"bufferView":19,
			"componentType":5126,
			"count":24,
			"type":"VEC2"
		},
		{
			"bufferView":20,
			"componentType":5126,
			"count":183,
			"max":[
				37.16366195678711,
				72.43848419189453,
				121.60752868652344
			],
			"min":[
				-122.62123107910156,
				-160.2802734375,
				-184.0169219970703
			],
			"type":"VEC3"
		},
		{
			"bufferView":21,
			"componentType":5126,
			"count":183,
			"type":"VEC3"
		},
		{
			"bufferView":22,
			"componentType":5126,
			"count":183,
			"type":"VEC2"
		},
		{
			"bufferView":23,
			"componentType":5123,
			"count":498,
			"type":"SCALAR"
		},
		{
			"bufferView":24,
			"componentType":5126,
			"count":24,
			"max":[
				0.38461995124816895,
				1.925696611404419,
				1.3654515743255615
			],
			"min":[
				-1.0364253520965576,
				-0.1439858078956604,
				-1.352616548538208
			],
			"type":"VEC3"
		},
		{
			"bufferView":25,
			"componentType":5126,
			"count":24,
			"type":"VEC3"
		},
		{
			"bufferView":26,
			"componentType":5126,
			"count":24,
			"type":"VEC2"
		}
	],
	"bufferViews":[
		{
			"buffer":0,
			"byteLength":9912,
			"byteOffset":0,
			"target":34962
		},
		{
			"buffer":0,
			"byteLength":9912,
			"byteOffset":9912,
			"target":34962
		},
		{
			"buffer":0,
			"byteLength":6608,
			"byteOffset":19824,
			"target":34962
		},
		{
			"buffer":0,
			"byteLength":4704,
			"byteOffset":26432,
			"target":34963
		},
		{
			"buffer":0,
			"byteLength":9912,
			"byteOffset":31136,
			"target":34962
		},
		{
			"buffer":0,
			"byteLength":9912,
			"byteOffset":41048,
			"target":34962
		},
		{
			"buffer":0,
			"byteLength":6608,
			"byteOffset":50960,
			"target":34962
		},
		{
			"buffer":0,
			"byteLength":9912,
			"byteOffset":57568,
			"target":34962
		},
		{
			"buffer":0,
			"byteLength":9912,
			"byteOffset":67480,
			"target":34962
		},
		{
			"buffer":0,
			"byteLength":6608,
			"byteOffset":77392,
			"target":34962
		},
		{
			"buffer":0,
			"byteLength":288,
			"byteOffset":84000,
			"target":34962
		},
		{
			"buffer":0,
			"byteLength":288,
			"byteOffset":84288,
			"target":34962
		},
		{
			"buffer":0,
			"byteLength":192,
			"byteOffset":84576,
			"target":34962
		},
		{
			"buffer":0,
			"byteLength":72,
			"byteOffset":84768,
			"target":34963
		},
		{
			"buffer":0,
			"byteLength":288,
			"byteOffset":84840,
			"target":34962
		},
		{
			"buffer":0,
			"byteLength":288,
			"byteOffset":85128,
			"target":34962
		},
		{
			"buffer":0,
			"byteLength":192,
			"byteOffset":85416,
			"target":34962
		},
		{
			"buffer":0,
			"byteLength":288,
			"byteOffset":85608,
			"target":34962
		},
		{
			"buffer":0,
			"byteLength":288,
			"byteOffset":85896,
			"target":34962
		},
		{
			"buffer":0,
			"byteLength":192,
			"byteOffset":86184,
			"target":34962
		},
		{
			"buffer":0,
			"byteLength":2196,
			"byteOffset":86376,
			"target":34962
		},
		{
			"buffer":0,
			"byteLength":2196,
			"byteOffset":88572,
			"target":34962
		},
		{
			"buffer":0,
			"byteLength":1464,
			"byteOffset":90768,
			"target":34962
		},
		{
			"buffer":0,
			"byteLength":996,
			"byteOffset":92232,
			"target":34963
		},
		{
			"buffer":0,
			"byteLength":288,
			"byteOffset":93228,
			"target":34962
		},
		{
			"buffer":0,
			"byteLength":288,
			"byteOffset":93516,
			"target":34962
		},
		{
			"buffer":0,
			"byteLength":192,
			"byteOffset":93804,
			"target":34962
		}
	],
	"samplers":[
		{
			"magFilter":9729,
			"minFilter":9987
		}
	],
	"buffers":[
		{
			"byteLength":93996,
			"uri":"Aur_CenterRack.bin"
		}
	]
}
