{
	"asset":{
		"generator":"Khronos glTF Blender I/O v4.0.44",
		"version":"2.0"
	},
	"extensionsUsed":[
		"KHR_materials_specular"
	],
	"scene":0,
	"scenes":[
		{
			"extras":{
				"recast_navmesh":{},
				"uuid":"8f5da41c-2798-4718-92dc-886bca6f7bd9",
				"assets reported":{},
				"created_collider":{}
			},
			"name":"Scene",
			"nodes":[
				2
			]
		}
	],
	"nodes":[
		{
			"mesh":0,
			"name":"EE_BookRack_01.001"
		},
		{
			"extras":{
				"xrengine.EE_collider.shape":"mesh",
				"xrengine.entity":"Mesh Collider"
			},
			"mesh":1,
			"name":"EE_BookRack_01_collider"
		},
		{
			"children":[
				0,
				1
			],
			"name":"EE_BookRack_01"
		}
	],
	"materials":[
		{
			"doubleSided":true,
			"extensions":{
				"KHR_materials_specular":{
					"specularColorFactor":[
						2.0,
						2.0,
						2.0
					]
				}
			},
			"name":"EE_013_SetDress_Metal",
			"normalTexture":{
				"index":0
			},
			"pbrMetallicRoughness":{
				"baseColorTexture":{
					"index":1
				},
				"metallicRoughnessTexture":{
					"index":2
				}
			}
		},
		{
			"doubleSided":true,
			"extensions":{
				"KHR_materials_specular":{
					"specularColorFactor":[
						2.0,
						2.0,
						2.0
					]
				}
			},
			"name":"EE_013_SetDress_01.002",
			"normalTexture":{
				"index":3
			},
			"pbrMetallicRoughness":{
				"baseColorTexture":{
					"index":4
				},
				"metallicRoughnessTexture":{
					"index":5
				}
			}
		},
		{
			"doubleSided":true,
			"extensions":{
				"KHR_materials_specular":{
					"specularColorFactor":[
						2.0,
						2.0,
						2.0
					]
				}
			},
			"name":"Collider_base",
			"pbrMetallicRoughness":{
				"baseColorFactor":[
					0.5,
					0.5,
					0.5,
					1
				],
				"roughnessFactor":0.5527864098548889
			}
		}
	],
	"meshes":[
		{
			"name":"Mesh.001",
			"primitives":[
				{
					"attributes":{
						"POSITION":0,
						"NORMAL":1,
						"TEXCOORD_0":2
					},
					"indices":3,
					"material":0
				},
				{
					"attributes":{
						"POSITION":4,
						"NORMAL":5,
						"TEXCOORD_0":6
					},
					"indices":7,
					"material":1
				}
			]
		},
		{
			"name":"Mesh.002",
			"primitives":[
				{
					"attributes":{
						"POSITION":8,
						"NORMAL":9,
						"TEXCOORD_0":10
					},
					"indices":11,
					"material":2
				}
			]
		}
	],
	"textures":[
		{
			"sampler":0,
			"source":0
		},
		{
			"sampler":0,
			"source":1
		},
		{
			"sampler":0,
			"source":2
		},
		{
			"sampler":0,
			"source":0
		},
		{
			"sampler":0,
			"source":1
		},
		{
			"sampler":0,
			"source":2
		}
	],
	"images":[
		{
			"mimeType":"image/png",
			"name":"EE_SetDress_Normals",
			"uri":"EE_SetDress_Normals.png"
		},
		{
			"mimeType":"image/png",
			"name":"EE_SetDress_Albedo",
			"uri":"EE_SetDress_Albedo.png"
		},
		{
			"mimeType":"image/png",
			"name":"EE_SetDress_ORM",
			"uri":"EE_SetDress_ORM.png"
		}
	],
	"accessors":[
		{
			"bufferView":0,
			"componentType":5126,
			"count":1860,
			"max":[
				0.3947794437408447,
				0.8251717686653137,
				0.23105907440185547
			],
			"min":[
				-0.42535829544067383,
				0.007314819842576981,
				-0.21477055549621582
			],
			"type":"VEC3"
		},
		{
			"bufferView":1,
			"componentType":5126,
			"count":1860,
			"type":"VEC3"
		},
		{
			"bufferView":2,
			"componentType":5126,
			"count":1860,
			"type":"VEC2"
		},
		{
			"bufferView":3,
			"componentType":5123,
			"count":9240,
			"type":"SCALAR"
		},
		{
			"bufferView":4,
			"componentType":5126,
			"count":744,
			"max":[
				0.3943963050842285,
				0.5769779086112976,
				0.22496390342712402
			],
			"min":[
				-0.4249739646911621,
				0.3605791926383972,
				-0.20843744277954102
			],
			"type":"VEC3"
		},
		{
			"bufferView":5,
			"componentType":5126,
			"count":744,
			"type":"VEC3"
		},
		{
			"bufferView":6,
			"componentType":5126,
			"count":744,
			"type":"VEC2"
		},
		{
			"bufferView":7,
			"componentType":5123,
			"count":3300,
			"type":"SCALAR"
		},
		{
			"bufferView":8,
			"componentType":5126,
			"count":14,
			"max":[
				0.39891958236694336,
				0.8227124214172363,
				0.23706936836242676
			],
			"min":[
				-0.4268183708190918,
				-0.004292011260986328,
				-0.2128446102142334
			],
			"type":"VEC3"
		},
		{
			"bufferView":9,
			"componentType":5126,
			"count":14,
			"type":"VEC3"
		},
		{
			"bufferView":10,
			"componentType":5126,
			"count":14,
			"type":"VEC2"
		},
		{
			"bufferView":11,
			"componentType":5123,
			"count":36,
			"type":"SCALAR"
		}
	],
	"bufferViews":[
		{
			"buffer":0,
			"byteLength":22320,
			"byteOffset":0,
			"target":34962
		},
		{
			"buffer":0,
			"byteLength":22320,
			"byteOffset":22320,
			"target":34962
		},
		{
			"buffer":0,
			"byteLength":14880,
			"byteOffset":44640,
			"target":34962
		},
		{
			"buffer":0,
			"byteLength":18480,
			"byteOffset":59520,
			"target":34963
		},
		{
			"buffer":0,
			"byteLength":8928,
			"byteOffset":78000,
			"target":34962
		},
		{
			"buffer":0,
			"byteLength":8928,
			"byteOffset":86928,
			"target":34962
		},
		{
			"buffer":0,
			"byteLength":5952,
			"byteOffset":95856,
			"target":34962
		},
		{
			"buffer":0,
			"byteLength":6600,
			"byteOffset":101808,
			"target":34963
		},
		{
			"buffer":0,
			"byteLength":168,
			"byteOffset":108408,
			"target":34962
		},
		{
			"buffer":0,
			"byteLength":168,
			"byteOffset":108576,
			"target":34962
		},
		{
			"buffer":0,
			"byteLength":112,
			"byteOffset":108744,
			"target":34962
		},
		{
			"buffer":0,
			"byteLength":72,
			"byteOffset":108856,
			"target":34963
		}
	],
	"samplers":[
		{
			"magFilter":9729,
			"minFilter":9987
		}
	],
	"buffers":[
		{
			"byteLength":108928,
			"uri":"EE_BookRack_01.bin"
		}
	]
}
