{
	"asset":{
		"generator":"Khronos glTF Blender I/O v4.0.44",
		"version":"2.0"
	},
	"extensionsUsed":[
		"KHR_materials_specular",
		"KHR_materials_emissive_strength"
	],
	"scene":0,
	"scenes":[
		{
			"extras":{
				"recast_navmesh":{},
				"uuid":"8f5da41c-2798-4718-92dc-886bca6f7bd9",
				"assets reported":{},
				"created_collider":{}
			},
			"name":"Scene",
			"nodes":[
				2
			]
		}
	],
	"nodes":[
		{
			"mesh":0,
			"name":"EE_Corner_Lamp_01.001"
		},
		{
			"extras":{
				"xrengine.EE_collider.shape":"mesh",
				"xrengine.entity":"Mesh Collider"
			},
			"mesh":1,
			"name":"EE_Corner_Lamp_01_Collider"
		},
		{
			"children":[
				0,
				1
			],
			"name":"EE_Corner_Lamp_01"
		}
	],
	"materials":[
		{
			"doubleSided":true,
			"extensions":{
				"KHR_materials_specular":{
					"specularColorFactor":[
						2.0,
						2.0,
						2.0
					]
				}
			},
			"name":"EE_013_SetDress_Metal",
			"normalTexture":{
				"index":0
			},
			"pbrMetallicRoughness":{
				"baseColorTexture":{
					"index":1
				},
				"metallicRoughnessTexture":{
					"index":2
				}
			}
		},
		{
			"alphaMode":"BLEND",
			"doubleSided":true,
			"emissiveFactor":[
				0.9148260354995728,
				1,
				0.31565338373184204
			],
			"extensions":{
				"KHR_materials_emissive_strength":{
					"emissiveStrength":3
				},
				"KHR_materials_specular":{
					"specularColorFactor":[
						2.0,
						2.0,
						2.0
					]
				}
			},
			"name":"EE_013_SetDress_Emissive_01",
			"pbrMetallicRoughness":{
				"baseColorFactor":[
					0.9833216667175293,
					1,
					0.9667456150054932,
					1
				],
				"metallicFactor":0.5,
				"roughnessFactor":0.7487671971321106
			}
		},
		{
			"doubleSided":true,
			"extensions":{
				"KHR_materials_specular":{
					"specularColorFactor":[
						2.0,
						2.0,
						2.0
					]
				}
			},
			"name":"Collider_base",
			"pbrMetallicRoughness":{
				"baseColorFactor":[
					0.5,
					0.5,
					0.5,
					1
				],
				"roughnessFactor":0.5527864098548889
			}
		}
	],
	"meshes":[
		{
			"name":"Mesh.060",
			"primitives":[
				{
					"attributes":{
						"POSITION":0,
						"NORMAL":1,
						"TEXCOORD_0":2
					},
					"indices":3,
					"material":0
				},
				{
					"attributes":{
						"POSITION":4,
						"NORMAL":5,
						"TEXCOORD_0":6
					},
					"indices":7,
					"material":1
				}
			]
		},
		{
			"name":"Mesh.059",
			"primitives":[
				{
					"attributes":{
						"POSITION":8,
						"NORMAL":9,
						"TEXCOORD_0":10
					},
					"indices":11,
					"material":2
				}
			]
		}
	],
	"textures":[
		{
			"sampler":0,
			"source":0
		},
		{
			"sampler":0,
			"source":1
		},
		{
			"sampler":0,
			"source":2
		}
	],
	"images":[
		{
			"mimeType":"image/png",
			"name":"EE_SetDress_Normals",
			"uri":"EE_SetDress_Normals.png"
		},
		{
			"mimeType":"image/png",
			"name":"EE_SetDress_Albedo",
			"uri":"EE_SetDress_Albedo.png"
		},
		{
			"mimeType":"image/png",
			"name":"EE_SetDress_ORM",
			"uri":"EE_SetDress_ORM.png"
		}
	],
	"accessors":[
		{
			"bufferView":0,
			"componentType":5126,
			"count":2220,
			"max":[
				0.2982981204986572,
				2.559826612472534,
				0.36070922017097473
			],
			"min":[
				-0.23112869262695312,
				-0.009175236336886883,
				-0.27335426211357117
			],
			"type":"VEC3"
		},
		{
			"bufferView":1,
			"componentType":5126,
			"count":2220,
			"type":"VEC3"
		},
		{
			"bufferView":2,
			"componentType":5126,
			"count":2220,
			"type":"VEC2"
		},
		{
			"bufferView":3,
			"componentType":5123,
			"count":11436,
			"type":"SCALAR"
		},
		{
			"bufferView":4,
			"componentType":5126,
			"count":34,
			"max":[
				0.2824728488922119,
				2.089310884475708,
				0.34498146176338196
			],
			"min":[
				-0.21535277366638184,
				1.4581454992294312,
				-0.013946495950222015
			],
			"type":"VEC3"
		},
		{
			"bufferView":5,
			"componentType":5126,
			"count":34,
			"type":"VEC3"
		},
		{
			"bufferView":6,
			"componentType":5126,
			"count":34,
			"type":"VEC2"
		},
		{
			"bufferView":7,
			"componentType":5123,
			"count":96,
			"type":"SCALAR"
		},
		{
			"bufferView":8,
			"componentType":5126,
			"count":14,
			"max":[
				0.2636069059371948,
				2.567470073699951,
				0.3620748519897461
			],
			"min":[
				-0.27311503887176514,
				-0.007593209855258465,
				-0.28408336639404297
			],
			"type":"VEC3"
		},
		{
			"bufferView":9,
			"componentType":5126,
			"count":14,
			"type":"VEC3"
		},
		{
			"bufferView":10,
			"componentType":5126,
			"count":14,
			"type":"VEC2"
		},
		{
			"bufferView":11,
			"componentType":5123,
			"count":36,
			"type":"SCALAR"
		}
	],
	"bufferViews":[
		{
			"buffer":0,
			"byteLength":26640,
			"byteOffset":0,
			"target":34962
		},
		{
			"buffer":0,
			"byteLength":26640,
			"byteOffset":26640,
			"target":34962
		},
		{
			"buffer":0,
			"byteLength":17760,
			"byteOffset":53280,
			"target":34962
		},
		{
			"buffer":0,
			"byteLength":22872,
			"byteOffset":71040,
			"target":34963
		},
		{
			"buffer":0,
			"byteLength":408,
			"byteOffset":93912,
			"target":34962
		},
		{
			"buffer":0,
			"byteLength":408,
			"byteOffset":94320,
			"target":34962
		},
		{
			"buffer":0,
			"byteLength":272,
			"byteOffset":94728,
			"target":34962
		},
		{
			"buffer":0,
			"byteLength":192,
			"byteOffset":95000,
			"target":34963
		},
		{
			"buffer":0,
			"byteLength":168,
			"byteOffset":95192,
			"target":34962
		},
		{
			"buffer":0,
			"byteLength":168,
			"byteOffset":95360,
			"target":34962
		},
		{
			"buffer":0,
			"byteLength":112,
			"byteOffset":95528,
			"target":34962
		},
		{
			"buffer":0,
			"byteLength":72,
			"byteOffset":95640,
			"target":34963
		}
	],
	"samplers":[
		{
			"magFilter":9729,
			"minFilter":9987
		}
	],
	"buffers":[
		{
			"byteLength":95712,
			"uri":"EE_Corner_Lamp_01.bin"
		}
	]
}
