{
	"asset":{
		"generator":"Khronos glTF Blender I/O v4.0.44",
		"version":"2.0"
	},
	"extensionsUsed":[
		"KHR_materials_specular"
	],
	"scene":0,
	"scenes":[
		{
			"extras":{
				"recast_navmesh":{},
				"uuid":"8f5da41c-2798-4718-92dc-886bca6f7bd9",
				"assets reported":{},
				"created_collider":{}
			},
			"name":"Scene",
			"nodes":[
				2
			]
		}
	],
	"nodes":[
		{
			"mesh":0,
			"name":"EE_Corner_Table_01.001"
		},
		{
			"extras":{
				"xrengine.EE_collider.shape":"mesh",
				"xrengine.entity":"Mesh Collider"
			},
			"mesh":1,
			"name":"EE_Corner_Table_01_collider"
		},
		{
			"children":[
				0,
				1
			],
			"name":"EE_Corner_Table_01"
		}
	],
	"materials":[
		{
			"doubleSided":true,
			"extensions":{
				"KHR_materials_specular":{
					"specularColorFactor":[
						2.0,
						2.0,
						2.0
					]
				}
			},
			"name":"EE_013_SetDress_01",
			"normalTexture":{
				"index":0
			},
			"pbrMetallicRoughness":{
				"baseColorTexture":{
					"index":1
				},
				"metallicRoughnessTexture":{
					"index":2
				}
			}
		},
		{
			"doubleSided":true,
			"extensions":{
				"KHR_materials_specular":{
					"specularColorFactor":[
						2.0,
						2.0,
						2.0
					]
				}
			},
			"name":"EE_013_SetDress_Metal",
			"normalTexture":{
				"index":3
			},
			"pbrMetallicRoughness":{
				"baseColorTexture":{
					"index":4
				},
				"metallicRoughnessTexture":{
					"index":5
				}
			}
		},
		{
			"doubleSided":true,
			"extensions":{
				"KHR_materials_specular":{
					"specularColorFactor":[
						2.0,
						2.0,
						2.0
					]
				}
			},
			"name":"EE_013_SetDress_Wood",
			"normalTexture":{
				"index":6
			},
			"pbrMetallicRoughness":{
				"baseColorTexture":{
					"index":7
				},
				"metallicRoughnessTexture":{
					"index":8
				}
			}
		},
		{
			"doubleSided":true,
			"extensions":{
				"KHR_materials_specular":{
					"specularColorFactor":[
						2.0,
						2.0,
						2.0
					]
				}
			},
			"name":"Collider_base",
			"pbrMetallicRoughness":{
				"baseColorFactor":[
					0.5,
					0.5,
					0.5,
					1
				],
				"roughnessFactor":0.5527864098548889
			}
		}
	],
	"meshes":[
		{
			"name":"Mesh.088",
			"primitives":[
				{
					"attributes":{
						"POSITION":0,
						"NORMAL":1,
						"TEXCOORD_0":2
					},
					"indices":3,
					"material":0
				},
				{
					"attributes":{
						"POSITION":4,
						"NORMAL":5,
						"TEXCOORD_0":6
					},
					"indices":7,
					"material":1
				},
				{
					"attributes":{
						"POSITION":8,
						"NORMAL":9,
						"TEXCOORD_0":10
					},
					"indices":11,
					"material":2
				}
			]
		},
		{
			"name":"Mesh.087",
			"primitives":[
				{
					"attributes":{
						"POSITION":12,
						"NORMAL":13,
						"TEXCOORD_0":14
					},
					"indices":15,
					"material":3
				}
			]
		}
	],
	"textures":[
		{
			"sampler":0,
			"source":0
		},
		{
			"sampler":0,
			"source":1
		},
		{
			"sampler":0,
			"source":2
		},
		{
			"sampler":0,
			"source":0
		},
		{
			"sampler":0,
			"source":1
		},
		{
			"sampler":0,
			"source":2
		},
		{
			"sampler":0,
			"source":0
		},
		{
			"sampler":0,
			"source":1
		},
		{
			"sampler":0,
			"source":2
		}
	],
	"images":[
		{
			"mimeType":"image/png",
			"name":"EE_SetDress_Normals",
			"uri":"EE_SetDress_Normals.png"
		},
		{
			"mimeType":"image/png",
			"name":"EE_SetDress_Albedo",
			"uri":"EE_SetDress_Albedo.png"
		},
		{
			"mimeType":"image/png",
			"name":"EE_SetDress_ORM",
			"uri":"EE_SetDress_ORM.png"
		}
	],
	"accessors":[
		{
			"bufferView":0,
			"componentType":5126,
			"count":1785,
			"max":[
				0.16100478172302246,
				0.7732154726982117,
				0.12953263521194458
			],
			"min":[
				-0.18250536918640137,
				0.07060860842466354,
				-0.18580031394958496
			],
			"type":"VEC3"
		},
		{
			"bufferView":1,
			"componentType":5126,
			"count":1785,
			"type":"VEC3"
		},
		{
			"bufferView":2,
			"componentType":5126,
			"count":1785,
			"type":"VEC2"
		},
		{
			"bufferView":3,
			"componentType":5123,
			"count":8394,
			"type":"SCALAR"
		},
		{
			"bufferView":4,
			"componentType":5126,
			"count":125,
			"max":[
				0.1470586061477661,
				0.6000884175300598,
				0.12960189580917358
			],
			"min":[
				-0.18250536918640137,
				-6.891787052154541e-08,
				-0.18580031394958496
			],
			"type":"VEC3"
		},
		{
			"bufferView":5,
			"componentType":5126,
			"count":125,
			"type":"VEC3"
		},
		{
			"bufferView":6,
			"componentType":5126,
			"count":125,
			"type":"VEC2"
		},
		{
			"bufferView":7,
			"componentType":5123,
			"count":372,
			"type":"SCALAR"
		},
		{
			"bufferView":8,
			"componentType":5126,
			"count":544,
			"max":[
				0.17361068725585938,
				0.5828443169593811,
				0.17868471145629883
			],
			"min":[
				-0.17733919620513916,
				0.04427104443311691,
				-0.17226508259773254
			],
			"type":"VEC3"
		},
		{
			"bufferView":9,
			"componentType":5126,
			"count":544,
			"type":"VEC3"
		},
		{
			"bufferView":10,
			"componentType":5126,
			"count":544,
			"type":"VEC2"
		},
		{
			"bufferView":11,
			"componentType":5123,
			"count":2280,
			"type":"SCALAR"
		},
		{
			"bufferView":12,
			"componentType":5126,
			"count":14,
			"max":[
				0.16992545127868652,
				0.7754276990890503,
				0.18319356441497803
			],
			"min":[
				-0.19179940223693848,
				-0.031017392873764038,
				-0.18730568885803223
			],
			"type":"VEC3"
		},
		{
			"bufferView":13,
			"componentType":5126,
			"count":14,
			"type":"VEC3"
		},
		{
			"bufferView":14,
			"componentType":5126,
			"count":14,
			"type":"VEC2"
		},
		{
			"bufferView":15,
			"componentType":5123,
			"count":36,
			"type":"SCALAR"
		}
	],
	"bufferViews":[
		{
			"buffer":0,
			"byteLength":21420,
			"byteOffset":0,
			"target":34962
		},
		{
			"buffer":0,
			"byteLength":21420,
			"byteOffset":21420,
			"target":34962
		},
		{
			"buffer":0,
			"byteLength":14280,
			"byteOffset":42840,
			"target":34962
		},
		{
			"buffer":0,
			"byteLength":16788,
			"byteOffset":57120,
			"target":34963
		},
		{
			"buffer":0,
			"byteLength":1500,
			"byteOffset":73908,
			"target":34962
		},
		{
			"buffer":0,
			"byteLength":1500,
			"byteOffset":75408,
			"target":34962
		},
		{
			"buffer":0,
			"byteLength":1000,
			"byteOffset":76908,
			"target":34962
		},
		{
			"buffer":0,
			"byteLength":744,
			"byteOffset":77908,
			"target":34963
		},
		{
			"buffer":0,
			"byteLength":6528,
			"byteOffset":78652,
			"target":34962
		},
		{
			"buffer":0,
			"byteLength":6528,
			"byteOffset":85180,
			"target":34962
		},
		{
			"buffer":0,
			"byteLength":4352,
			"byteOffset":91708,
			"target":34962
		},
		{
			"buffer":0,
			"byteLength":4560,
			"byteOffset":96060,
			"target":34963
		},
		{
			"buffer":0,
			"byteLength":168,
			"byteOffset":100620,
			"target":34962
		},
		{
			"buffer":0,
			"byteLength":168,
			"byteOffset":100788,
			"target":34962
		},
		{
			"buffer":0,
			"byteLength":112,
			"byteOffset":100956,
			"target":34962
		},
		{
			"buffer":0,
			"byteLength":72,
			"byteOffset":101068,
			"target":34963
		}
	],
	"samplers":[
		{
			"magFilter":9729,
			"minFilter":9987
		}
	],
	"buffers":[
		{
			"byteLength":101140,
			"uri":"EE_Corner_Table_01.bin"
		}
	]
}
