{
	"asset":{
		"generator":"Khronos glTF Blender I/O v4.0.44",
		"version":"2.0"
	},
	"extensionsUsed":[
		"KHR_materials_specular"
	],
	"scene":0,
	"scenes":[
		{
			"extras":{
				"recast_navmesh":{},
				"uuid":"8f5da41c-2798-4718-92dc-886bca6f7bd9",
				"assets reported":{},
				"created_collider":{}
			},
			"name":"Scene",
			"nodes":[
				2
			]
		}
	],
	"nodes":[
		{
			"mesh":0,
			"name":"EE_HorseFigurine_01.001"
		},
		{
			"extras":{
				"xrengine.EE_collider.shape":"mesh",
				"xrengine.entity":"Mesh Collider"
			},
			"mesh":1,
			"name":"EE_HorseFigurine_01_collider"
		},
		{
			"children":[
				0,
				1
			],
			"name":"EE_HorseFigurine_01"
		}
	],
	"materials":[
		{
			"doubleSided":true,
			"extensions":{
				"KHR_materials_specular":{
					"specularColorFactor":[
						2.0,
						2.0,
						2.0
					]
				}
			},
			"name":"EE_013_SetDress_01.002",
			"normalTexture":{
				"index":0
			},
			"pbrMetallicRoughness":{
				"baseColorTexture":{
					"index":1
				},
				"metallicRoughnessTexture":{
					"index":2
				}
			}
		},
		{
			"doubleSided":true,
			"extensions":{
				"KHR_materials_specular":{
					"specularColorFactor":[
						2.0,
						2.0,
						2.0
					]
				}
			},
			"name":"Collider_base",
			"pbrMetallicRoughness":{
				"baseColorFactor":[
					0.5,
					0.5,
					0.5,
					1
				],
				"roughnessFactor":0.5527864098548889
			}
		}
	],
	"meshes":[
		{
			"name":"Mesh.012",
			"primitives":[
				{
					"attributes":{
						"POSITION":0,
						"NORMAL":1,
						"TEXCOORD_0":2
					},
					"indices":3,
					"material":0
				}
			]
		},
		{
			"name":"Mesh.011",
			"primitives":[
				{
					"attributes":{
						"POSITION":4,
						"NORMAL":5,
						"TEXCOORD_0":6
					},
					"indices":7,
					"material":1
				}
			]
		}
	],
	"textures":[
		{
			"sampler":0,
			"source":0
		},
		{
			"sampler":0,
			"source":1
		},
		{
			"sampler":0,
			"source":2
		}
	],
	"images":[
		{
			"mimeType":"image/png",
			"name":"EE_SetDress_Normals",
			"uri":"EE_SetDress_Normals.png"
		},
		{
			"mimeType":"image/png",
			"name":"EE_SetDress_Albedo",
			"uri":"EE_SetDress_Albedo.png"
		},
		{
			"mimeType":"image/png",
			"name":"EE_SetDress_ORM",
			"uri":"EE_SetDress_ORM.png"
		}
	],
	"accessors":[
		{
			"bufferView":0,
			"componentType":5126,
			"count":4313,
			"max":[
				0.18820473551750183,
				0.29212749004364014,
				0.00690770149230957
			],
			"min":[
				-0.15914493799209595,
				-0.0001201629638671875,
				-0.05332040786743164
			],
			"type":"VEC3"
		},
		{
			"bufferView":1,
			"componentType":5126,
			"count":4313,
			"type":"VEC3"
		},
		{
			"bufferView":2,
			"componentType":5126,
			"count":4313,
			"type":"VEC2"
		},
		{
			"bufferView":3,
			"componentType":5123,
			"count":23232,
			"type":"SCALAR"
		},
		{
			"bufferView":4,
			"componentType":5126,
			"count":14,
			"max":[
				0.17748863995075226,
				0.29398369789123535,
				0.039725303649902344
			],
			"min":[
				-0.17748768627643585,
				-9.5367431640625e-07,
				-0.03971672058105469
			],
			"type":"VEC3"
		},
		{
			"bufferView":5,
			"componentType":5126,
			"count":14,
			"type":"VEC3"
		},
		{
			"bufferView":6,
			"componentType":5126,
			"count":14,
			"type":"VEC2"
		},
		{
			"bufferView":7,
			"componentType":5123,
			"count":36,
			"type":"SCALAR"
		}
	],
	"bufferViews":[
		{
			"buffer":0,
			"byteLength":51756,
			"byteOffset":0,
			"target":34962
		},
		{
			"buffer":0,
			"byteLength":51756,
			"byteOffset":51756,
			"target":34962
		},
		{
			"buffer":0,
			"byteLength":34504,
			"byteOffset":103512,
			"target":34962
		},
		{
			"buffer":0,
			"byteLength":46464,
			"byteOffset":138016,
			"target":34963
		},
		{
			"buffer":0,
			"byteLength":168,
			"byteOffset":184480,
			"target":34962
		},
		{
			"buffer":0,
			"byteLength":168,
			"byteOffset":184648,
			"target":34962
		},
		{
			"buffer":0,
			"byteLength":112,
			"byteOffset":184816,
			"target":34962
		},
		{
			"buffer":0,
			"byteLength":72,
			"byteOffset":184928,
			"target":34963
		}
	],
	"samplers":[
		{
			"magFilter":9729,
			"minFilter":9987
		}
	],
	"buffers":[
		{
			"byteLength":185000,
			"uri":"EE_Horse_Figurine_01.bin"
		}
	]
}
