{
	"asset":{
		"generator":"Khronos glTF Blender I/O v4.0.44",
		"version":"2.0"
	},
	"extensionsUsed":[
		"KHR_materials_specular"
	],
	"scene":0,
	"scenes":[
		{
			"extras":{
				"recast_navmesh":{},
				"uuid":"8f5da41c-2798-4718-92dc-886bca6f7bd9",
				"assets reported":{},
				"created_collider":{}
			},
			"name":"Scene",
			"nodes":[
				2
			]
		}
	],
	"nodes":[
		{
			"mesh":0,
			"name":"EE_Planter_04.001"
		},
		{
			"extras":{
				"xrengine.EE_collider.shape":"box",
				"xrengine.entity":"EE_Planter_04.001_bcol"
			},
			"mesh":1,
			"name":"EE_Planter_04.001_bcol"
		},
		{
			"children":[
				0,
				1
			],
			"extras":{
				"xrengine.EE_rigidbody.type":"fixed",
				"xrengine.entity":"Everyday_Essentials_Props"
			},
			"name":"EE_Planter_04"
		}
	],
	"materials":[
		{
			"doubleSided":true,
			"extensions":{
				"KHR_materials_specular":{
					"specularColorFactor":[
						2.0,
						2.0,
						2.0
					]
				}
			},
			"name":"EE_013_SetDress_01.002",
			"normalTexture":{
				"index":0
			},
			"pbrMetallicRoughness":{
				"baseColorTexture":{
					"index":1
				},
				"metallicRoughnessTexture":{
					"index":2
				}
			}
		}
	],
	"meshes":[
		{
			"name":"Mesh.018",
			"primitives":[
				{
					"attributes":{
						"POSITION":0,
						"NORMAL":1,
						"TEXCOORD_0":2
					},
					"indices":3,
					"material":0
				}
			]
		},
		{
			"name":"Cube",
			"primitives":[
				{
					"attributes":{
						"POSITION":4,
						"NORMAL":5,
						"TEXCOORD_0":6
					},
					"indices":7
				}
			]
		}
	],
	"textures":[
		{
			"sampler":0,
			"source":0
		},
		{
			"sampler":0,
			"source":1
		},
		{
			"sampler":0,
			"source":2
		}
	],
	"images":[
		{
			"mimeType":"image/png",
			"name":"EE_SetDress_Normals",
			"uri":"EE_SetDress_Normals.png"
		},
		{
			"mimeType":"image/png",
			"name":"EE_SetDress_Albedo",
			"uri":"EE_SetDress_Albedo.png"
		},
		{
			"mimeType":"image/png",
			"name":"EE_SetDress_ORM",
			"uri":"EE_SetDress_ORM.png"
		}
	],
	"accessors":[
		{
			"bufferView":0,
			"componentType":5126,
			"count":1741,
			"max":[
				0.1783900260925293,
				0.2513155937194824,
				0.15188777446746826
			],
			"min":[
				-0.1545398235321045,
				-0.0013744831085205078,
				-0.15699458122253418
			],
			"type":"VEC3"
		},
		{
			"bufferView":1,
			"componentType":5126,
			"count":1741,
			"type":"VEC3"
		},
		{
			"bufferView":2,
			"componentType":5126,
			"count":1741,
			"type":"VEC2"
		},
		{
			"bufferView":3,
			"componentType":5123,
			"count":7680,
			"type":"SCALAR"
		},
		{
			"bufferView":4,
			"componentType":5126,
			"count":24,
			"max":[
				0.1783900260925293,
				0.2513155937194824,
				0.15188777446746826
			],
			"min":[
				-0.1545398235321045,
				-0.0013744831085205078,
				-0.15699458122253418
			],
			"type":"VEC3"
		},
		{
			"bufferView":5,
			"componentType":5126,
			"count":24,
			"type":"VEC3"
		},
		{
			"bufferView":6,
			"componentType":5126,
			"count":24,
			"type":"VEC2"
		},
		{
			"bufferView":7,
			"componentType":5123,
			"count":36,
			"type":"SCALAR"
		}
	],
	"bufferViews":[
		{
			"buffer":0,
			"byteLength":20892,
			"byteOffset":0,
			"target":34962
		},
		{
			"buffer":0,
			"byteLength":20892,
			"byteOffset":20892,
			"target":34962
		},
		{
			"buffer":0,
			"byteLength":13928,
			"byteOffset":41784,
			"target":34962
		},
		{
			"buffer":0,
			"byteLength":15360,
			"byteOffset":55712,
			"target":34963
		},
		{
			"buffer":0,
			"byteLength":288,
			"byteOffset":71072,
			"target":34962
		},
		{
			"buffer":0,
			"byteLength":288,
			"byteOffset":71360,
			"target":34962
		},
		{
			"buffer":0,
			"byteLength":192,
			"byteOffset":71648,
			"target":34962
		},
		{
			"buffer":0,
			"byteLength":72,
			"byteOffset":71840,
			"target":34963
		}
	],
	"samplers":[
		{
			"magFilter":9729,
			"minFilter":9987
		}
	],
	"buffers":[
		{
			"byteLength":71912,
			"uri":"EE_Planter_04.bin"
		}
	]
}
