{
	"asset":{
		"generator":"Khronos glTF Blender I/O v4.0.44",
		"version":"2.0"
	},
	"extensionsUsed":[
		"KHR_materials_specular"
	],
	"scene":0,
	"scenes":[
		{
			"extras":{
				"recast_navmesh":{},
				"uuid":"8f5da41c-2798-4718-92dc-886bca6f7bd9",
				"assets reported":{},
				"created_collider":{}
			},
			"name":"Scene",
			"nodes":[
				2
			]
		}
	],
	"nodes":[
		{
			"mesh":0,
			"name":"EE_StorageDisUnit_04.001"
		},
		{
			"extras":{
				"xrengine.EE_collider.shape":"mesh",
				"xrengine.entity":"Mesh Collider"
			},
			"mesh":1,
			"name":"EE_StorageDisUnit_04_collider"
		},
		{
			"children":[
				0,
				1
			],
			"name":"EE_StorageDisUnit_04"
		}
	],
	"materials":[
		{
			"doubleSided":true,
			"extensions":{
				"KHR_materials_specular":{
					"specularColorFactor":[
						2.0,
						2.0,
						2.0
					]
				}
			},
			"name":"EE_013_SetDress_Wood",
			"normalTexture":{
				"index":0
			},
			"pbrMetallicRoughness":{
				"baseColorTexture":{
					"index":1
				},
				"metallicRoughnessTexture":{
					"index":2
				}
			}
		},
		{
			"doubleSided":true,
			"extensions":{
				"KHR_materials_specular":{
					"specularColorFactor":[
						2.0,
						2.0,
						2.0
					]
				}
			},
			"name":"Collider_base",
			"pbrMetallicRoughness":{
				"baseColorFactor":[
					0.5,
					0.5,
					0.5,
					1
				],
				"roughnessFactor":0.5527864098548889
			}
		}
	],
	"meshes":[
		{
			"name":"Mesh.045",
			"primitives":[
				{
					"attributes":{
						"POSITION":0,
						"NORMAL":1,
						"TEXCOORD_0":2
					},
					"indices":3,
					"material":0
				}
			]
		},
		{
			"name":"Mesh.046",
			"primitives":[
				{
					"attributes":{
						"POSITION":4,
						"NORMAL":5,
						"TEXCOORD_0":6
					},
					"indices":7,
					"material":1
				}
			]
		}
	],
	"textures":[
		{
			"sampler":0,
			"source":0
		},
		{
			"sampler":0,
			"source":1
		},
		{
			"sampler":0,
			"source":2
		}
	],
	"images":[
		{
			"mimeType":"image/png",
			"name":"EE_SetDress_Normals",
			"uri":"EE_SetDress_Normals.png"
		},
		{
			"mimeType":"image/png",
			"name":"EE_SetDress_Albedo",
			"uri":"EE_SetDress_Albedo.png"
		},
		{
			"mimeType":"image/png",
			"name":"EE_SetDress_ORM",
			"uri":"EE_SetDress_ORM.png"
		}
	],
	"accessors":[
		{
			"bufferView":0,
			"componentType":5126,
			"count":3222,
			"max":[
				1.72322416305542,
				0.5877060294151306,
				0.4191570281982422
			],
			"min":[
				-1.725447654724121,
				-0.020282268524169922,
				-0.4402961730957031
			],
			"type":"VEC3"
		},
		{
			"bufferView":1,
			"componentType":5126,
			"count":3222,
			"type":"VEC3"
		},
		{
			"bufferView":2,
			"componentType":5126,
			"count":3222,
			"type":"VEC2"
		},
		{
			"bufferView":3,
			"componentType":5123,
			"count":12876,
			"type":"SCALAR"
		},
		{
			"bufferView":4,
			"componentType":5126,
			"count":14,
			"max":[
				1.7305445671081543,
				1.0718209743499756,
				0.44255220890045166
			],
			"min":[
				-1.7305374145507812,
				-0.035201847553253174,
				-0.4425477981567383
			],
			"type":"VEC3"
		},
		{
			"bufferView":5,
			"componentType":5126,
			"count":14,
			"type":"VEC3"
		},
		{
			"bufferView":6,
			"componentType":5126,
			"count":14,
			"type":"VEC2"
		},
		{
			"bufferView":7,
			"componentType":5123,
			"count":36,
			"type":"SCALAR"
		}
	],
	"bufferViews":[
		{
			"buffer":0,
			"byteLength":38664,
			"byteOffset":0,
			"target":34962
		},
		{
			"buffer":0,
			"byteLength":38664,
			"byteOffset":38664,
			"target":34962
		},
		{
			"buffer":0,
			"byteLength":25776,
			"byteOffset":77328,
			"target":34962
		},
		{
			"buffer":0,
			"byteLength":25752,
			"byteOffset":103104,
			"target":34963
		},
		{
			"buffer":0,
			"byteLength":168,
			"byteOffset":128856,
			"target":34962
		},
		{
			"buffer":0,
			"byteLength":168,
			"byteOffset":129024,
			"target":34962
		},
		{
			"buffer":0,
			"byteLength":112,
			"byteOffset":129192,
			"target":34962
		},
		{
			"buffer":0,
			"byteLength":72,
			"byteOffset":129304,
			"target":34963
		}
	],
	"samplers":[
		{
			"magFilter":9729,
			"minFilter":9987
		}
	],
	"buffers":[
		{
			"byteLength":129376,
			"uri":"EE_StorageDisUnit_04.bin"
		}
	]
}
