{
	"asset":{
		"generator":"Khronos glTF Blender I/O v4.0.44",
		"version":"2.0"
	},
	"extensionsUsed":[
		"KHR_materials_specular"
	],
	"scene":0,
	"scenes":[
		{
			"extras":{
				"recast_navmesh":{},
				"uuid":"8f5da41c-2798-4718-92dc-886bca6f7bd9",
				"assets reported":{},
				"created_collider":{}
			},
			"name":"Scene",
			"nodes":[
				2
			]
		}
	],
	"nodes":[
		{
			"mesh":0,
			"name":"EE_Sofa3Seater_01.001"
		},
		{
			"extras":{
				"xrengine.EE_collider.shape":"mesh",
				"xrengine.entity":"Mesh Collider"
			},
			"mesh":1,
			"name":"EE_Sofa3Seater_01_collider"
		},
		{
			"children":[
				0,
				1
			],
			"name":"EE_Sofa3Seater_01"
		}
	],
	"materials":[
		{
			"doubleSided":true,
			"extensions":{
				"KHR_materials_specular":{
					"specularColorFactor":[
						2.0,
						2.0,
						2.0
					]
				}
			},
			"name":"EE_013_SetDress_01.002",
			"normalTexture":{
				"index":0
			},
			"pbrMetallicRoughness":{
				"baseColorTexture":{
					"index":1
				},
				"metallicRoughnessTexture":{
					"index":2
				}
			}
		},
		{
			"doubleSided":true,
			"extensions":{
				"KHR_materials_specular":{
					"specularColorFactor":[
						2.0,
						2.0,
						2.0
					]
				}
			},
			"name":"Collider_base",
			"pbrMetallicRoughness":{
				"baseColorFactor":[
					0.5,
					0.5,
					0.5,
					1
				],
				"roughnessFactor":0.5527864098548889
			}
		}
	],
	"meshes":[
		{
			"name":"Mesh.069",
			"primitives":[
				{
					"attributes":{
						"POSITION":0,
						"NORMAL":1,
						"TEXCOORD_0":2
					},
					"indices":3,
					"material":0
				}
			]
		},
		{
			"name":"Mesh.070",
			"primitives":[
				{
					"attributes":{
						"POSITION":4,
						"NORMAL":5,
						"TEXCOORD_0":6
					},
					"indices":7,
					"material":1
				}
			]
		}
	],
	"textures":[
		{
			"sampler":0,
			"source":0
		},
		{
			"sampler":0,
			"source":1
		},
		{
			"sampler":0,
			"source":2
		}
	],
	"images":[
		{
			"mimeType":"image/png",
			"name":"EE_SetDress_Normals",
			"uri":"EE_SetDress_Normals.png"
		},
		{
			"mimeType":"image/png",
			"name":"EE_SetDress_Albedo",
			"uri":"EE_SetDress_Albedo.png"
		},
		{
			"mimeType":"image/png",
			"name":"EE_SetDress_ORM",
			"uri":"EE_SetDress_ORM.png"
		}
	],
	"accessors":[
		{
			"bufferView":0,
			"componentType":5126,
			"count":4674,
			"max":[
				0.48380792140960693,
				0.7989190816879272,
				1.181553840637207
			],
			"min":[
				-0.3342735767364502,
				-0.0009762048721313477,
				-1.174052119255066
			],
			"type":"VEC3"
		},
		{
			"bufferView":1,
			"componentType":5126,
			"count":4674,
			"type":"VEC3"
		},
		{
			"bufferView":2,
			"componentType":5126,
			"count":4674,
			"type":"VEC2"
		},
		{
			"bufferView":3,
			"componentType":5123,
			"count":23892,
			"type":"SCALAR"
		},
		{
			"bufferView":4,
			"componentType":5126,
			"count":14,
			"max":[
				0.48284637928009033,
				0.9684975743293762,
				1.188180685043335
			],
			"min":[
				-0.4005817174911499,
				-0.01306849718093872,
				-1.1794332265853882
			],
			"type":"VEC3"
		},
		{
			"bufferView":5,
			"componentType":5126,
			"count":14,
			"type":"VEC3"
		},
		{
			"bufferView":6,
			"componentType":5126,
			"count":14,
			"type":"VEC2"
		},
		{
			"bufferView":7,
			"componentType":5123,
			"count":36,
			"type":"SCALAR"
		}
	],
	"bufferViews":[
		{
			"buffer":0,
			"byteLength":56088,
			"byteOffset":0,
			"target":34962
		},
		{
			"buffer":0,
			"byteLength":56088,
			"byteOffset":56088,
			"target":34962
		},
		{
			"buffer":0,
			"byteLength":37392,
			"byteOffset":112176,
			"target":34962
		},
		{
			"buffer":0,
			"byteLength":47784,
			"byteOffset":149568,
			"target":34963
		},
		{
			"buffer":0,
			"byteLength":168,
			"byteOffset":197352,
			"target":34962
		},
		{
			"buffer":0,
			"byteLength":168,
			"byteOffset":197520,
			"target":34962
		},
		{
			"buffer":0,
			"byteLength":112,
			"byteOffset":197688,
			"target":34962
		},
		{
			"buffer":0,
			"byteLength":72,
			"byteOffset":197800,
			"target":34963
		}
	],
	"samplers":[
		{
			"magFilter":9729,
			"minFilter":9987
		}
	],
	"buffers":[
		{
			"byteLength":197872,
			"uri":"EE_Sofa3Seater_01.bin"
		}
	]
}
