{
	"asset":{
		"generator":"Khronos glTF Blender I/O v4.0.44",
		"version":"2.0"
	},
	"extensionsUsed":[
		"KHR_materials_specular"
	],
	"scene":0,
	"scenes":[
		{
			"extras":{
				"recast_navmesh":{},
				"uuid":"8f5da41c-2798-4718-92dc-886bca6f7bd9",
				"assets reported":{},
				"created_collider":{}
			},
			"name":"Scene",
			"nodes":[
				2
			]
		}
	],
	"nodes":[
		{
			"mesh":0,
			"name":"EE_Sofa2Seater_01.001"
		},
		{
			"extras":{
				"xrengine.EE_collider.shape":"mesh",
				"xrengine.entity":"Mesh Collider"
			},
			"mesh":1,
			"name":"EE_Sofa2Seater_01_collider"
		},
		{
			"children":[
				0,
				1
			],
			"name":"EE_Sofa2Seater_01"
		}
	],
	"materials":[
		{
			"doubleSided":true,
			"extensions":{
				"KHR_materials_specular":{
					"specularColorFactor":[
						2.0,
						2.0,
						2.0
					]
				}
			},
			"name":"EE_013_SetDress_01",
			"normalTexture":{
				"index":0
			},
			"pbrMetallicRoughness":{
				"baseColorTexture":{
					"index":1
				},
				"metallicRoughnessTexture":{
					"index":2
				}
			}
		},
		{
			"doubleSided":true,
			"extensions":{
				"KHR_materials_specular":{
					"specularColorFactor":[
						2.0,
						2.0,
						2.0
					]
				}
			},
			"name":"EE_013_SetDress_Wood",
			"normalTexture":{
				"index":3
			},
			"pbrMetallicRoughness":{
				"baseColorTexture":{
					"index":4
				},
				"metallicRoughnessTexture":{
					"index":5
				}
			}
		},
		{
			"doubleSided":true,
			"extensions":{
				"KHR_materials_specular":{
					"specularColorFactor":[
						2.0,
						2.0,
						2.0
					]
				}
			},
			"name":"Collider_base",
			"pbrMetallicRoughness":{
				"baseColorFactor":[
					0.5,
					0.5,
					0.5,
					1
				],
				"roughnessFactor":0.5527864098548889
			}
		}
	],
	"meshes":[
		{
			"name":"Mesh.067",
			"primitives":[
				{
					"attributes":{
						"POSITION":0,
						"NORMAL":1,
						"TEXCOORD_0":2
					},
					"indices":3,
					"material":0
				},
				{
					"attributes":{
						"POSITION":4,
						"NORMAL":5,
						"TEXCOORD_0":6
					},
					"indices":7,
					"material":1
				}
			]
		},
		{
			"name":"Mesh.068",
			"primitives":[
				{
					"attributes":{
						"POSITION":8,
						"NORMAL":9,
						"TEXCOORD_0":10
					},
					"indices":11,
					"material":2
				}
			]
		}
	],
	"textures":[
		{
			"sampler":0,
			"source":0
		},
		{
			"sampler":0,
			"source":1
		},
		{
			"sampler":0,
			"source":2
		},
		{
			"sampler":0,
			"source":0
		},
		{
			"sampler":0,
			"source":1
		},
		{
			"sampler":0,
			"source":2
		}
	],
	"images":[
		{
			"mimeType":"image/png",
			"name":"EE_SetDress_Normals",
			"uri":"EE_SetDress_Normals.png"
		},
		{
			"mimeType":"image/png",
			"name":"EE_SetDress_Albedo",
			"uri":"EE_SetDress_Albedo.png"
		},
		{
			"mimeType":"image/png",
			"name":"EE_SetDress_ORM",
			"uri":"EE_SetDress_ORM.png"
		}
	],
	"accessors":[
		{
			"bufferView":0,
			"componentType":5126,
			"count":2290,
			"max":[
				0.44832539558410645,
				0.9894043803215027,
				1.059472680091858
			],
			"min":[
				-0.36881518363952637,
				0.16528475284576416,
				-1.014622449874878
			],
			"type":"VEC3"
		},
		{
			"bufferView":1,
			"componentType":5126,
			"count":2290,
			"type":"VEC3"
		},
		{
			"bufferView":2,
			"componentType":5126,
			"count":2290,
			"type":"VEC2"
		},
		{
			"bufferView":3,
			"componentType":5123,
			"count":11262,
			"type":"SCALAR"
		},
		{
			"bufferView":4,
			"componentType":5126,
			"count":536,
			"max":[
				0.35943102836608887,
				0.5932527184486389,
				1.031398057937622
			],
			"min":[
				-0.34960484504699707,
				-0.0010793209075927734,
				-0.9884608387947083
			],
			"type":"VEC3"
		},
		{
			"bufferView":5,
			"componentType":5126,
			"count":536,
			"type":"VEC3"
		},
		{
			"bufferView":6,
			"componentType":5126,
			"count":536,
			"type":"VEC2"
		},
		{
			"bufferView":7,
			"componentType":5123,
			"count":2112,
			"type":"SCALAR"
		},
		{
			"bufferView":8,
			"componentType":5126,
			"count":14,
			"max":[
				0.4207324981689453,
				0.9858788847923279,
				1.041346549987793
			],
			"min":[
				-0.4207324981689453,
				-1.1920928955078125e-07,
				-1.041346549987793
			],
			"type":"VEC3"
		},
		{
			"bufferView":9,
			"componentType":5126,
			"count":14,
			"type":"VEC3"
		},
		{
			"bufferView":10,
			"componentType":5126,
			"count":14,
			"type":"VEC2"
		},
		{
			"bufferView":11,
			"componentType":5123,
			"count":36,
			"type":"SCALAR"
		}
	],
	"bufferViews":[
		{
			"buffer":0,
			"byteLength":27480,
			"byteOffset":0,
			"target":34962
		},
		{
			"buffer":0,
			"byteLength":27480,
			"byteOffset":27480,
			"target":34962
		},
		{
			"buffer":0,
			"byteLength":18320,
			"byteOffset":54960,
			"target":34962
		},
		{
			"buffer":0,
			"byteLength":22524,
			"byteOffset":73280,
			"target":34963
		},
		{
			"buffer":0,
			"byteLength":6432,
			"byteOffset":95804,
			"target":34962
		},
		{
			"buffer":0,
			"byteLength":6432,
			"byteOffset":102236,
			"target":34962
		},
		{
			"buffer":0,
			"byteLength":4288,
			"byteOffset":108668,
			"target":34962
		},
		{
			"buffer":0,
			"byteLength":4224,
			"byteOffset":112956,
			"target":34963
		},
		{
			"buffer":0,
			"byteLength":168,
			"byteOffset":117180,
			"target":34962
		},
		{
			"buffer":0,
			"byteLength":168,
			"byteOffset":117348,
			"target":34962
		},
		{
			"buffer":0,
			"byteLength":112,
			"byteOffset":117516,
			"target":34962
		},
		{
			"buffer":0,
			"byteLength":72,
			"byteOffset":117628,
			"target":34963
		}
	],
	"samplers":[
		{
			"magFilter":9729,
			"minFilter":9987
		}
	],
	"buffers":[
		{
			"byteLength":117700,
			"uri":"EE_Sofa2Seater_01.bin"
		}
	]
}
