{
	"asset":{
		"generator":"Khronos glTF Blender I/O v4.0.44",
		"version":"2.0"
	},
	"extensionsUsed":[
		"KHR_materials_specular",
		"KHR_materials_emissive_strength"
	],
	"scene":0,
	"scenes":[
		{
			"extras":{
				"recast_navmesh":{},
				"uuid":"8f5da41c-2798-4718-92dc-886bca6f7bd9",
				"assets reported":{},
				"created_collider":{}
			},
			"name":"Scene",
			"nodes":[
				2
			]
		}
	],
	"nodes":[
		{
			"mesh":0,
			"name":"EE_Table_Lamp_01.001"
		},
		{
			"extras":{
				"xrengine.EE_collider.shape":"mesh",
				"xrengine.entity":"Mesh Collider"
			},
			"mesh":1,
			"name":"EE_Table_Lamp_01_collider"
		},
		{
			"children":[
				0,
				1
			],
			"name":"EE_Table_Lamp_01"
		}
	],
	"materials":[
		{
			"doubleSided":true,
			"extensions":{
				"KHR_materials_specular":{
					"specularColorFactor":[
						2.0,
						2.0,
						2.0
					]
				}
			},
			"name":"EE_013_SetDress_01.002",
			"normalTexture":{
				"index":0
			},
			"pbrMetallicRoughness":{
				"baseColorTexture":{
					"index":1
				},
				"metallicRoughnessTexture":{
					"index":2
				}
			}
		},
		{
			"alphaMode":"BLEND",
			"doubleSided":true,
			"emissiveFactor":[
				0.9148260354995728,
				1,
				0.31565338373184204
			],
			"extensions":{
				"KHR_materials_emissive_strength":{
					"emissiveStrength":3
				},
				"KHR_materials_specular":{
					"specularColorFactor":[
						2.0,
						2.0,
						2.0
					]
				}
			},
			"name":"EE_013_SetDress_Emissive_01",
			"pbrMetallicRoughness":{
				"baseColorFactor":[
					0.9833216667175293,
					1,
					0.9667456150054932,
					1
				],
				"metallicFactor":0.5,
				"roughnessFactor":0.7487671971321106
			}
		},
		{
			"doubleSided":true,
			"extensions":{
				"KHR_materials_specular":{
					"specularColorFactor":[
						2.0,
						2.0,
						2.0
					]
				}
			},
			"name":"Collider_base",
			"pbrMetallicRoughness":{
				"baseColorFactor":[
					0.5,
					0.5,
					0.5,
					1
				],
				"roughnessFactor":0.5527864098548889
			}
		}
	],
	"meshes":[
		{
			"name":"Mesh.062",
			"primitives":[
				{
					"attributes":{
						"POSITION":0,
						"NORMAL":1,
						"TEXCOORD_0":2
					},
					"indices":3,
					"material":0
				},
				{
					"attributes":{
						"POSITION":4,
						"NORMAL":5,
						"TEXCOORD_0":6
					},
					"indices":7,
					"material":1
				}
			]
		},
		{
			"name":"Mesh.061",
			"primitives":[
				{
					"attributes":{
						"POSITION":8,
						"NORMAL":9,
						"TEXCOORD_0":10
					},
					"indices":11,
					"material":2
				}
			]
		}
	],
	"textures":[
		{
			"sampler":0,
			"source":0
		},
		{
			"sampler":0,
			"source":1
		},
		{
			"sampler":0,
			"source":2
		}
	],
	"images":[
		{
			"mimeType":"image/png",
			"name":"EE_SetDress_Normals",
			"uri":"EE_SetDress_Normals.png"
		},
		{
			"mimeType":"image/png",
			"name":"EE_SetDress_Albedo",
			"uri":"EE_SetDress_Albedo.png"
		},
		{
			"mimeType":"image/png",
			"name":"EE_SetDress_ORM",
			"uri":"EE_SetDress_ORM.png"
		}
	],
	"accessors":[
		{
			"bufferView":0,
			"componentType":5126,
			"count":1744,
			"max":[
				0.15758919715881348,
				0.6305882930755615,
				0.1575942039489746
			],
			"min":[
				-0.1575915813446045,
				0.03988528251647949,
				-0.15758681297302246
			],
			"type":"VEC3"
		},
		{
			"bufferView":1,
			"componentType":5126,
			"count":1744,
			"type":"VEC3"
		},
		{
			"bufferView":2,
			"componentType":5126,
			"count":1744,
			"type":"VEC2"
		},
		{
			"bufferView":3,
			"componentType":5123,
			"count":8820,
			"type":"SCALAR"
		},
		{
			"bufferView":4,
			"componentType":5126,
			"count":646,
			"max":[
				0.1973555088043213,
				0.6415717601776123,
				0.19736051559448242
			],
			"min":[
				-0.1973578929901123,
				0.37180233001708984,
				-0.19735288619995117
			],
			"type":"VEC3"
		},
		{
			"bufferView":5,
			"componentType":5126,
			"count":646,
			"type":"VEC3"
		},
		{
			"bufferView":6,
			"componentType":5126,
			"count":646,
			"type":"VEC2"
		},
		{
			"bufferView":7,
			"componentType":5123,
			"count":2880,
			"type":"SCALAR"
		},
		{
			"bufferView":8,
			"componentType":5126,
			"count":14,
			"max":[
				0.20417094230651855,
				0.621402382850647,
				0.22549045085906982
			],
			"min":[
				-0.171433687210083,
				-0.016891002655029297,
				-0.2053624391555786
			],
			"type":"VEC3"
		},
		{
			"bufferView":9,
			"componentType":5126,
			"count":14,
			"type":"VEC3"
		},
		{
			"bufferView":10,
			"componentType":5126,
			"count":14,
			"type":"VEC2"
		},
		{
			"bufferView":11,
			"componentType":5123,
			"count":36,
			"type":"SCALAR"
		}
	],
	"bufferViews":[
		{
			"buffer":0,
			"byteLength":20928,
			"byteOffset":0,
			"target":34962
		},
		{
			"buffer":0,
			"byteLength":20928,
			"byteOffset":20928,
			"target":34962
		},
		{
			"buffer":0,
			"byteLength":13952,
			"byteOffset":41856,
			"target":34962
		},
		{
			"buffer":0,
			"byteLength":17640,
			"byteOffset":55808,
			"target":34963
		},
		{
			"buffer":0,
			"byteLength":7752,
			"byteOffset":73448,
			"target":34962
		},
		{
			"buffer":0,
			"byteLength":7752,
			"byteOffset":81200,
			"target":34962
		},
		{
			"buffer":0,
			"byteLength":5168,
			"byteOffset":88952,
			"target":34962
		},
		{
			"buffer":0,
			"byteLength":5760,
			"byteOffset":94120,
			"target":34963
		},
		{
			"buffer":0,
			"byteLength":168,
			"byteOffset":99880,
			"target":34962
		},
		{
			"buffer":0,
			"byteLength":168,
			"byteOffset":100048,
			"target":34962
		},
		{
			"buffer":0,
			"byteLength":112,
			"byteOffset":100216,
			"target":34962
		},
		{
			"buffer":0,
			"byteLength":72,
			"byteOffset":100328,
			"target":34963
		}
	],
	"samplers":[
		{
			"magFilter":9729,
			"minFilter":9987
		}
	],
	"buffers":[
		{
			"byteLength":100400,
			"uri":"EE_Table_Lamp_01.bin"
		}
	]
}
