{
	"asset":{
		"generator":"Khronos glTF Blender I/O v4.0.44",
		"version":"2.0"
	},
	"extensionsUsed":[
		"KHR_materials_emissive_strength",
		"KHR_materials_specular"
	],
	"scene":0,
	"scenes":[
		{
			"extras":{
				"recast_navmesh":{},
				"uuid":"8f5da41c-2798-4718-92dc-886bca6f7bd9",
				"assets reported":{},
				"created_collider":{}
			},
			"name":"Scene",
			"nodes":[
				2
			]
		}
	],
	"nodes":[
		{
			"mesh":0,
			"name":"EE_Wall_Lamp_02.001"
		},
		{
			"extras":{
				"xrengine.EE_collider.shape":"mesh",
				"xrengine.entity":"Mesh Collider"
			},
			"mesh":1,
			"name":"EE_Wall_Lamp_02_collider"
		},
		{
			"children":[
				0,
				1
			],
			"name":"EE_Wall_Lamp_02"
		}
	],
	"materials":[
		{
			"alphaMode":"BLEND",
			"doubleSided":true,
			"emissiveFactor":[
				0.9148260354995728,
				1,
				0.31565338373184204
			],
			"extensions":{
				"KHR_materials_emissive_strength":{
					"emissiveStrength":3
				},
				"KHR_materials_specular":{
					"specularColorFactor":[
						2.0,
						2.0,
						2.0
					]
				}
			},
			"name":"EE_013_SetDress_Emissive_01",
			"pbrMetallicRoughness":{
				"baseColorFactor":[
					0.9833216667175293,
					1,
					0.9667456150054932,
					1
				],
				"metallicFactor":0.5,
				"roughnessFactor":0.7487671971321106
			}
		},
		{
			"doubleSided":true,
			"extensions":{
				"KHR_materials_specular":{
					"specularColorFactor":[
						2.0,
						2.0,
						2.0
					]
				}
			},
			"name":"EE_013_SetDress_Metal",
			"normalTexture":{
				"index":0
			},
			"pbrMetallicRoughness":{
				"baseColorTexture":{
					"index":1
				},
				"metallicRoughnessTexture":{
					"index":2
				}
			}
		},
		{
			"doubleSided":true,
			"extensions":{
				"KHR_materials_specular":{
					"specularColorFactor":[
						2.0,
						2.0,
						2.0
					]
				}
			},
			"name":"Collider_base",
			"pbrMetallicRoughness":{
				"baseColorFactor":[
					0.5,
					0.5,
					0.5,
					1
				],
				"roughnessFactor":0.5527864098548889
			}
		}
	],
	"meshes":[
		{
			"name":"Mesh.053",
			"primitives":[
				{
					"attributes":{
						"POSITION":0,
						"NORMAL":1,
						"TEXCOORD_0":2
					},
					"indices":3,
					"material":0
				},
				{
					"attributes":{
						"POSITION":4,
						"NORMAL":5,
						"TEXCOORD_0":6
					},
					"indices":7,
					"material":1
				}
			]
		},
		{
			"name":"Mesh.054",
			"primitives":[
				{
					"attributes":{
						"POSITION":8,
						"NORMAL":9,
						"TEXCOORD_0":10
					},
					"indices":11,
					"material":2
				}
			]
		}
	],
	"textures":[
		{
			"sampler":0,
			"source":0
		},
		{
			"sampler":0,
			"source":1
		},
		{
			"sampler":0,
			"source":2
		}
	],
	"images":[
		{
			"mimeType":"image/png",
			"name":"EE_SetDress_Normals",
			"uri":"EE_SetDress_Normals.png"
		},
		{
			"mimeType":"image/png",
			"name":"EE_SetDress_Albedo",
			"uri":"EE_SetDress_Albedo.png"
		},
		{
			"mimeType":"image/png",
			"name":"EE_SetDress_ORM",
			"uri":"EE_SetDress_ORM.png"
		}
	],
	"accessors":[
		{
			"bufferView":0,
			"componentType":5126,
			"count":52,
			"max":[
				-0.0054051876068115234,
				1.3432376384735107,
				0.009679317474365234
			],
			"min":[
				-0.005582928657531738,
				-0.005427122116088867,
				-0.009667396545410156
			],
			"type":"VEC3"
		},
		{
			"bufferView":1,
			"componentType":5126,
			"count":52,
			"type":"VEC3"
		},
		{
			"bufferView":2,
			"componentType":5126,
			"count":52,
			"type":"VEC2"
		},
		{
			"bufferView":3,
			"componentType":5123,
			"count":270,
			"type":"SCALAR"
		},
		{
			"bufferView":4,
			"componentType":5126,
			"count":230,
			"max":[
				0.08022487163543701,
				1.3432912826538086,
				0.0522913932800293
			],
			"min":[
				-0.0681692361831665,
				-0.005481243133544922,
				-0.052084922790527344
			],
			"type":"VEC3"
		},
		{
			"bufferView":5,
			"componentType":5126,
			"count":230,
			"type":"VEC3"
		},
		{
			"bufferView":6,
			"componentType":5126,
			"count":230,
			"type":"VEC2"
		},
		{
			"bufferView":7,
			"componentType":5123,
			"count":1062,
			"type":"SCALAR"
		},
		{
			"bufferView":8,
			"componentType":5126,
			"count":14,
			"max":[
				0.07717323303222656,
				1.347457766532898,
				0.05386781692504883
			],
			"min":[
				-0.07717323303222656,
				0,
				-0.05386781692504883
			],
			"type":"VEC3"
		},
		{
			"bufferView":9,
			"componentType":5126,
			"count":14,
			"type":"VEC3"
		},
		{
			"bufferView":10,
			"componentType":5126,
			"count":14,
			"type":"VEC2"
		},
		{
			"bufferView":11,
			"componentType":5123,
			"count":36,
			"type":"SCALAR"
		}
	],
	"bufferViews":[
		{
			"buffer":0,
			"byteLength":624,
			"byteOffset":0,
			"target":34962
		},
		{
			"buffer":0,
			"byteLength":624,
			"byteOffset":624,
			"target":34962
		},
		{
			"buffer":0,
			"byteLength":416,
			"byteOffset":1248,
			"target":34962
		},
		{
			"buffer":0,
			"byteLength":540,
			"byteOffset":1664,
			"target":34963
		},
		{
			"buffer":0,
			"byteLength":2760,
			"byteOffset":2204,
			"target":34962
		},
		{
			"buffer":0,
			"byteLength":2760,
			"byteOffset":4964,
			"target":34962
		},
		{
			"buffer":0,
			"byteLength":1840,
			"byteOffset":7724,
			"target":34962
		},
		{
			"buffer":0,
			"byteLength":2124,
			"byteOffset":9564,
			"target":34963
		},
		{
			"buffer":0,
			"byteLength":168,
			"byteOffset":11688,
			"target":34962
		},
		{
			"buffer":0,
			"byteLength":168,
			"byteOffset":11856,
			"target":34962
		},
		{
			"buffer":0,
			"byteLength":112,
			"byteOffset":12024,
			"target":34962
		},
		{
			"buffer":0,
			"byteLength":72,
			"byteOffset":12136,
			"target":34963
		}
	],
	"samplers":[
		{
			"magFilter":9729,
			"minFilter":9987
		}
	],
	"buffers":[
		{
			"byteLength":12208,
			"uri":"EE_Wall_Lamp_02.bin"
		}
	]
}
