{
	"asset":{
		"generator":"Khronos glTF Blender I/O v4.0.44",
		"version":"2.0"
	},
	"extensionsUsed":[
		"KHR_materials_specular",
		"KHR_materials_ior"
	],
	"scene":0,
	"scenes":[
		{
			"extras":{
				"recast_navmesh":{},
				"uuid":"8f5da41c-2798-4718-92dc-886bca6f7bd9",
				"assets reported":{},
				"created_collider":{}
			},
			"name":"Scene",
			"nodes":[
				2
			]
		}
	],
	"nodes":[
		{
			"mesh":0,
			"name":"EE_WallMountShelves_01.001"
		},
		{
			"extras":{
				"xrengine.EE_collider.shape":"mesh",
				"xrengine.entity":"Mesh Collider"
			},
			"mesh":1,
			"name":"EE_WallMountShelves_01_collider",
			"translation":[
				4.291534423828125e-06,
				0,
				-3.5762786865234375e-06
			]
		},
		{
			"children":[
				0,
				1
			],
			"name":"EE_WallMountShelves_01"
		}
	],
	"materials":[
		{
			"doubleSided":true,
			"extensions":{
				"KHR_materials_specular":{
					"specularColorFactor":[
						2.0,
						2.0,
						2.0
					]
				},
				"KHR_materials_ior":{
					"ior":1.4500000476837158
				}
			},
			"name":"EE_013_SetDress_01",
			"pbrMetallicRoughness":{
				"baseColorTexture":{
					"index":0
				},
				"metallicFactor":0,
				"roughnessFactor":0.5527864098548889
			}
		},
		{
			"doubleSided":true,
			"extensions":{
				"KHR_materials_specular":{
					"specularColorFactor":[
						2.0,
						2.0,
						2.0
					]
				}
			},
			"name":"EE_013_SetDress_Glass_01",
			"normalTexture":{
				"index":1
			},
			"pbrMetallicRoughness":{
				"baseColorFactor":[
					1,
					1,
					1,
					0.699999988079071
				],
				"baseColorTexture":{
					"index":2
				},
				"metallicRoughnessTexture":{
					"index":3
				}
			}
		},
		{
			"doubleSided":true,
			"extensions":{
				"KHR_materials_specular":{
					"specularColorFactor":[
						2.0,
						2.0,
						2.0
					]
				}
			},
			"name":"Collider_base",
			"pbrMetallicRoughness":{
				"baseColorFactor":[
					0.5,
					0.5,
					0.5,
					1
				],
				"roughnessFactor":0.5527864098548889
			}
		}
	],
	"meshes":[
		{
			"name":"Mesh.082",
			"primitives":[
				{
					"attributes":{
						"POSITION":0,
						"NORMAL":1,
						"TEXCOORD_0":2
					},
					"indices":3,
					"material":0
				},
				{
					"attributes":{
						"POSITION":4,
						"NORMAL":5,
						"TEXCOORD_0":6
					},
					"indices":7,
					"material":1
				}
			]
		},
		{
			"name":"Mesh.081",
			"primitives":[
				{
					"attributes":{
						"POSITION":8,
						"NORMAL":9,
						"TEXCOORD_0":10
					},
					"indices":11,
					"material":2
				}
			]
		}
	],
	"textures":[
		{
			"sampler":0,
			"source":0
		},
		{
			"sampler":0,
			"source":1
		},
		{
			"sampler":0,
			"source":0
		},
		{
			"sampler":0,
			"source":2
		}
	],
	"images":[
		{
			"mimeType":"image/png",
			"name":"EE_SetDress_Albedo",
			"uri":"EE_SetDress_Albedo.png"
		},
		{
			"mimeType":"image/png",
			"name":"EE_SetDress_Normals",
			"uri":"EE_SetDress_Normals.png"
		},
		{
			"mimeType":"image/png",
			"name":"EE_SetDress_ORM",
			"uri":"EE_SetDress_ORM.png"
		}
	],
	"accessors":[
		{
			"bufferView":0,
			"componentType":5126,
			"count":229,
			"max":[
				0.5019773244857788,
				0.059950947761535645,
				-0.15008316934108734
			],
			"min":[
				-0.5493122339248657,
				-0.007285386323928833,
				-0.20672379434108734
			],
			"type":"VEC3"
		},
		{
			"bufferView":1,
			"componentType":5126,
			"count":229,
			"type":"VEC3"
		},
		{
			"bufferView":2,
			"componentType":5126,
			"count":229,
			"type":"VEC2"
		},
		{
			"bufferView":3,
			"componentType":5123,
			"count":852,
			"type":"SCALAR"
		},
		{
			"bufferView":4,
			"componentType":5126,
			"count":102,
			"max":[
				0.8056265711784363,
				0.11253884434700012,
				0.2646433413028717
			],
			"min":[
				-0.8279877305030823,
				0.059950947761535645,
				-0.21171727776527405
			],
			"type":"VEC3"
		},
		{
			"bufferView":5,
			"componentType":5126,
			"count":102,
			"type":"VEC3"
		},
		{
			"bufferView":6,
			"componentType":5126,
			"count":102,
			"type":"VEC2"
		},
		{
			"bufferView":7,
			"componentType":5123,
			"count":324,
			"type":"SCALAR"
		},
		{
			"bufferView":8,
			"componentType":5126,
			"count":14,
			"max":[
				0.8282742500305176,
				0.11771190166473389,
				0.2601921558380127
			],
			"min":[
				-0.8282747268676758,
				0,
				-0.2601919174194336
			],
			"type":"VEC3"
		},
		{
			"bufferView":9,
			"componentType":5126,
			"count":14,
			"type":"VEC3"
		},
		{
			"bufferView":10,
			"componentType":5126,
			"count":14,
			"type":"VEC2"
		},
		{
			"bufferView":11,
			"componentType":5123,
			"count":36,
			"type":"SCALAR"
		}
	],
	"bufferViews":[
		{
			"buffer":0,
			"byteLength":2748,
			"byteOffset":0,
			"target":34962
		},
		{
			"buffer":0,
			"byteLength":2748,
			"byteOffset":2748,
			"target":34962
		},
		{
			"buffer":0,
			"byteLength":1832,
			"byteOffset":5496,
			"target":34962
		},
		{
			"buffer":0,
			"byteLength":1704,
			"byteOffset":7328,
			"target":34963
		},
		{
			"buffer":0,
			"byteLength":1224,
			"byteOffset":9032,
			"target":34962
		},
		{
			"buffer":0,
			"byteLength":1224,
			"byteOffset":10256,
			"target":34962
		},
		{
			"buffer":0,
			"byteLength":816,
			"byteOffset":11480,
			"target":34962
		},
		{
			"buffer":0,
			"byteLength":648,
			"byteOffset":12296,
			"target":34963
		},
		{
			"buffer":0,
			"byteLength":168,
			"byteOffset":12944,
			"target":34962
		},
		{
			"buffer":0,
			"byteLength":168,
			"byteOffset":13112,
			"target":34962
		},
		{
			"buffer":0,
			"byteLength":112,
			"byteOffset":13280,
			"target":34962
		},
		{
			"buffer":0,
			"byteLength":72,
			"byteOffset":13392,
			"target":34963
		}
	],
	"samplers":[
		{
			"magFilter":9729,
			"minFilter":9987
		}
	],
	"buffers":[
		{
			"byteLength":13464,
			"uri":"EE_WallMountShelves_01.bin"
		}
	]
}
