{
	"asset":{
		"generator":"Khronos glTF Blender I/O v4.0.44",
		"version":"2.0"
	},
	"extensionsUsed":[
		"KHR_materials_specular",
		"KHR_materials_ior"
	],
	"scene":0,
	"scenes":[
		{
			"extras":{
				"max_samples":50,
				"vrm_addon_extension":{},
				"uuid":"438cee43-7d1c-4b5d-83c2-af8360045fd2",
				"assets reported":{},
				"created_collider":{}
			},
			"name":"Scene",
			"nodes":[
				2
			]
		}
	],
	"nodes":[
		{
			"extras":{
				"MapChannel:1":"UVMap",
				"MapChannel:2":"Lightmap",
				"MaxHandle":50
			},
			"mesh":0,
			"name":"ElMi_Loveseat.001",
			"scale":[
				0.02539999969303608,
				0.02539999969303608,
				0.02539999969303608
			],
			"translation":[
				0.008721939288079739,
				0.5220250487327576,
				-0.00045393110485747457
			]
		},
		{
			"extras":{
				"xrengine.EE_collider.shape":"box",
				"xrengine.entity":"ElMi_Loveseat_bcol"
			},
			"mesh":1,
			"name":"ElMi_Loveseat_bcol"
		},
		{
			"children":[
				0,
				1
			],
			"name":"ElMi_Loveseat"
		}
	],
	"materials":[
		{
			"doubleSided":true,
			"extensions":{
				"KHR_materials_specular":{
					"specularColorFactor":[
						2.0,
						2.0,
						2.0
					]
				},
				"KHR_materials_ior":{
					"ior":1.4500000476837158
				}
			},
			"name":"ChairAccent_MAT",
			"pbrMetallicRoughness":{
				"baseColorFactor":[
					0.23100000619888306,
					0.23100000619888306,
					0.23100000619888306,
					1
				],
				"metallicFactor":0,
				"roughnessFactor":0.5527864098548889
			}
		},
		{
			"doubleSided":true,
			"extras":{
				"vrm_addon_extension":{
					"mtoon1":{}
				}
			},
			"name":"Metal",
			"pbrMetallicRoughness":{
				"baseColorFactor":[
					0.04971330612897873,
					0.04971330612897873,
					0.04971330612897873,
					1
				],
				"metallicFactor":0.6097561120986938,
				"roughnessFactor":0.05958548188209534
			}
		}
	],
	"meshes":[
		{
			"name":"Mesh.005",
			"primitives":[
				{
					"attributes":{
						"POSITION":0,
						"NORMAL":1,
						"TEXCOORD_0":2,
						"TEXCOORD_1":3
					},
					"indices":4,
					"material":0
				},
				{
					"attributes":{
						"POSITION":5,
						"NORMAL":6,
						"TEXCOORD_0":7,
						"TEXCOORD_1":8
					},
					"indices":9,
					"material":1
				}
			]
		},
		{
			"name":"Cube.003",
			"primitives":[
				{
					"attributes":{
						"POSITION":10,
						"NORMAL":11,
						"TEXCOORD_0":12
					},
					"indices":13
				}
			]
		}
	],
	"accessors":[
		{
			"bufferView":0,
			"componentType":5126,
			"count":13093,
			"max":[
				13.312538146972656,
				15.438018798828125,
				27.583423614501953
			],
			"min":[
				-15.479248046875,
				-5.3791046142578125,
				-27.593822479248047
			],
			"type":"VEC3"
		},
		{
			"bufferView":1,
			"componentType":5126,
			"count":13093,
			"type":"VEC3"
		},
		{
			"bufferView":2,
			"componentType":5126,
			"count":13093,
			"type":"VEC2"
		},
		{
			"bufferView":3,
			"componentType":5126,
			"count":13093,
			"type":"VEC2"
		},
		{
			"bufferView":4,
			"componentType":5123,
			"count":69360,
			"type":"SCALAR"
		},
		{
			"bufferView":5,
			"componentType":5126,
			"count":2763,
			"max":[
				14.36016845703125,
				9.744674682617188,
				28.810779571533203
			],
			"min":[
				-14.452468872070312,
				-19.445419311523438,
				-28.799755096435547
			],
			"type":"VEC3"
		},
		{
			"bufferView":6,
			"componentType":5126,
			"count":2763,
			"type":"VEC3"
		},
		{
			"bufferView":7,
			"componentType":5126,
			"count":2763,
			"type":"VEC2"
		},
		{
			"bufferView":8,
			"componentType":5126,
			"count":2763,
			"type":"VEC2"
		},
		{
			"bufferView":9,
			"componentType":5123,
			"count":10332,
			"type":"SCALAR"
		},
		{
			"bufferView":10,
			"componentType":5126,
			"count":24,
			"max":[
				0.3734702169895172,
				0.9141507148742676,
				0.7313398718833923
			],
			"min":[
				-0.3844509422779083,
				0.028111398220062256,
				-0.7319677472114563
			],
			"type":"VEC3"
		},
		{
			"bufferView":11,
			"componentType":5126,
			"count":24,
			"type":"VEC3"
		},
		{
			"bufferView":12,
			"componentType":5126,
			"count":24,
			"type":"VEC2"
		},
		{
			"bufferView":13,
			"componentType":5123,
			"count":36,
			"type":"SCALAR"
		}
	],
	"bufferViews":[
		{
			"buffer":0,
			"byteLength":157116,
			"byteOffset":0,
			"target":34962
		},
		{
			"buffer":0,
			"byteLength":157116,
			"byteOffset":157116,
			"target":34962
		},
		{
			"buffer":0,
			"byteLength":104744,
			"byteOffset":314232,
			"target":34962
		},
		{
			"buffer":0,
			"byteLength":104744,
			"byteOffset":418976,
			"target":34962
		},
		{
			"buffer":0,
			"byteLength":138720,
			"byteOffset":523720,
			"target":34963
		},
		{
			"buffer":0,
			"byteLength":33156,
			"byteOffset":662440,
			"target":34962
		},
		{
			"buffer":0,
			"byteLength":33156,
			"byteOffset":695596,
			"target":34962
		},
		{
			"buffer":0,
			"byteLength":22104,
			"byteOffset":728752,
			"target":34962
		},
		{
			"buffer":0,
			"byteLength":22104,
			"byteOffset":750856,
			"target":34962
		},
		{
			"buffer":0,
			"byteLength":20664,
			"byteOffset":772960,
			"target":34963
		},
		{
			"buffer":0,
			"byteLength":288,
			"byteOffset":793624,
			"target":34962
		},
		{
			"buffer":0,
			"byteLength":288,
			"byteOffset":793912,
			"target":34962
		},
		{
			"buffer":0,
			"byteLength":192,
			"byteOffset":794200,
			"target":34962
		},
		{
			"buffer":0,
			"byteLength":72,
			"byteOffset":794392,
			"target":34963
		}
	],
	"buffers":[
		{
			"byteLength":794464,
			"uri":"ElMi_Loveseat.bin"
		}
	]
}
