{
	"asset":{
		"generator":"Khronos glTF Blender I/O v4.0.44",
		"version":"2.0"
	},
	"extensionsUsed":[
		"KHR_materials_specular",
		"KHR_materials_ior"
	],
	"scene":0,
	"scenes":[
		{
			"extras":{
				"max_samples":50,
				"vrm_addon_extension":{},
				"uuid":"438cee43-7d1c-4b5d-83c2-af8360045fd2",
				"assets reported":{},
				"created_collider":{}
			},
			"name":"Scene",
			"nodes":[
				2
			]
		}
	],
	"nodes":[
		{
			"extras":{
				"MapChannel:1":"UVMap",
				"MaxHandle":47
			},
			"mesh":0,
			"name":"ElMi_Table_Round.001",
			"rotation":[
				0.0003974919382017106,
				9.961113391909748e-05,
				0.0035439105704426765,
				0.999993622303009
			],
			"scale":[
				0.02539999969303608,
				0.02539999969303608,
				0.02539999783039093
			],
			"translation":[
				0.0005690366961061954,
				0.46471312642097473,
				-0.0015974934212863445
			]
		},
		{
			"extras":{
				"xrengine.EE_collider.shape":"box",
				"xrengine.entity":"ElMi_Table_Round_bcol"
			},
			"mesh":1,
			"name":"ElMi_Table_Round_bcol"
		},
		{
			"children":[
				0,
				1
			],
			"name":"ElMi_Table_Round"
		}
	],
	"materials":[
		{
			"doubleSided":true,
			"extensions":{
				"KHR_materials_specular":{
					"specularColorFactor":[
						2.0,
						2.0,
						2.0
					]
				},
				"KHR_materials_ior":{
					"ior":1.4500000476837158
				}
			},
			"name":"Glass_MAT",
			"pbrMetallicRoughness":{
				"baseColorFactor":[
					1,
					1,
					1,
					0.4419580101966858
				],
				"metallicFactor":0,
				"roughnessFactor":0.5527864098548889
			}
		},
		{
			"doubleSided":true,
			"extras":{
				"vrm_addon_extension":{
					"mtoon1":{}
				}
			},
			"name":"Wood_MAT",
			"normalTexture":{
				"index":0,
				"scale":0.125
			},
			"pbrMetallicRoughness":{
				"baseColorTexture":{
					"index":1
				},
				"metallicFactor":0,
				"metallicRoughnessTexture":{
					"index":2
				}
			}
		},
		{
			"doubleSided":true,
			"extras":{
				"vrm_addon_extension":{
					"mtoon1":{}
				}
			},
			"name":"Metal",
			"pbrMetallicRoughness":{
				"baseColorFactor":[
					0.04971330612897873,
					0.04971330612897873,
					0.04971330612897873,
					1
				],
				"metallicFactor":0.6097561120986938,
				"roughnessFactor":0.05958548188209534
			}
		}
	],
	"meshes":[
		{
			"name":"Mesh.002",
			"primitives":[
				{
					"attributes":{
						"POSITION":0,
						"NORMAL":1,
						"TEXCOORD_0":2,
						"TEXCOORD_1":3
					},
					"indices":4,
					"material":0
				},
				{
					"attributes":{
						"POSITION":5,
						"NORMAL":6,
						"TEXCOORD_0":7,
						"TEXCOORD_1":8
					},
					"indices":9,
					"material":1
				},
				{
					"attributes":{
						"POSITION":10,
						"NORMAL":11,
						"TEXCOORD_0":12,
						"TEXCOORD_1":13
					},
					"indices":14,
					"material":2
				}
			]
		},
		{
			"name":"Cube.002",
			"primitives":[
				{
					"attributes":{
						"POSITION":15,
						"NORMAL":16,
						"TEXCOORD_0":17
					},
					"indices":18
				}
			]
		}
	],
	"textures":[
		{
			"sampler":0,
			"source":0
		},
		{
			"sampler":0,
			"source":1
		},
		{
			"sampler":0,
			"source":2
		}
	],
	"images":[
		{
			"mimeType":"image/png",
			"name":"oak_wood_sawn_Normal",
			"uri":"oak_wood_sawn_Normal.png"
		},
		{
			"mimeType":"image/png",
			"name":"oak_wood_sawn_Base02_Color",
			"uri":"oak_wood_sawn_Base02_Color.png"
		},
		{
			"mimeType":"image/png",
			"name":"oak_wood_sawn_Roughness",
			"uri":"oak_wood_sawn_Roughness.png"
		}
	],
	"accessors":[
		{
			"bufferView":0,
			"componentType":5126,
			"count":650,
			"max":[
				24.79912757873535,
				3.8923583030700684,
				24.859481811523438
			],
			"min":[
				-24.798351287841797,
				2.460427761077881,
				-24.738750457763672
			],
			"type":"VEC3"
		},
		{
			"bufferView":1,
			"componentType":5126,
			"count":650,
			"type":"VEC3"
		},
		{
			"bufferView":2,
			"componentType":5126,
			"count":650,
			"type":"VEC2"
		},
		{
			"bufferView":3,
			"componentType":5126,
			"count":650,
			"type":"VEC2"
		},
		{
			"bufferView":4,
			"componentType":5123,
			"count":2880,
			"type":"SCALAR"
		},
		{
			"bufferView":5,
			"componentType":5126,
			"count":1119,
			"max":[
				31.78971290588379,
				4.352243423461914,
				31.837249755859375
			],
			"min":[
				-31.788732528686523,
				-4.116534233093262,
				-31.742191314697266
			],
			"type":"VEC3"
		},
		{
			"bufferView":6,
			"componentType":5126,
			"count":1119,
			"type":"VEC3"
		},
		{
			"bufferView":7,
			"componentType":5126,
			"count":1119,
			"type":"VEC2"
		},
		{
			"bufferView":8,
			"componentType":5126,
			"count":1119,
			"type":"VEC2"
		},
		{
			"bufferView":9,
			"componentType":5123,
			"count":3840,
			"type":"SCALAR"
		},
		{
			"bufferView":10,
			"componentType":5126,
			"count":4956,
			"max":[
				41.56903839111328,
				2.4634532928466797,
				37.5128288269043
			],
			"min":[
				-26.893178939819336,
				-18.00714683532715,
				-37.754154205322266
			],
			"type":"VEC3"
		},
		{
			"bufferView":11,
			"componentType":5126,
			"count":4956,
			"type":"VEC3"
		},
		{
			"bufferView":12,
			"componentType":5126,
			"count":4956,
			"type":"VEC2"
		},
		{
			"bufferView":13,
			"componentType":5126,
			"count":4956,
			"type":"VEC2"
		},
		{
			"bufferView":14,
			"componentType":5123,
			"count":14400,
			"type":"SCALAR"
		},
		{
			"bufferView":15,
			"componentType":5126,
			"count":24,
			"max":[
				1.0598303079605103,
				0.5835027098655701,
				0.9514745473861694
			],
			"min":[
				-0.8078216314315796,
				0.0008634328842163086,
				-0.9611239433288574
			],
			"type":"VEC3"
		},
		{
			"bufferView":16,
			"componentType":5126,
			"count":24,
			"type":"VEC3"
		},
		{
			"bufferView":17,
			"componentType":5126,
			"count":24,
			"type":"VEC2"
		},
		{
			"bufferView":18,
			"componentType":5123,
			"count":36,
			"type":"SCALAR"
		}
	],
	"bufferViews":[
		{
			"buffer":0,
			"byteLength":7800,
			"byteOffset":0,
			"target":34962
		},
		{
			"buffer":0,
			"byteLength":7800,
			"byteOffset":7800,
			"target":34962
		},
		{
			"buffer":0,
			"byteLength":5200,
			"byteOffset":15600,
			"target":34962
		},
		{
			"buffer":0,
			"byteLength":5200,
			"byteOffset":20800,
			"target":34962
		},
		{
			"buffer":0,
			"byteLength":5760,
			"byteOffset":26000,
			"target":34963
		},
		{
			"buffer":0,
			"byteLength":13428,
			"byteOffset":31760,
			"target":34962
		},
		{
			"buffer":0,
			"byteLength":13428,
			"byteOffset":45188,
			"target":34962
		},
		{
			"buffer":0,
			"byteLength":8952,
			"byteOffset":58616,
			"target":34962
		},
		{
			"buffer":0,
			"byteLength":8952,
			"byteOffset":67568,
			"target":34962
		},
		{
			"buffer":0,
			"byteLength":7680,
			"byteOffset":76520,
			"target":34963
		},
		{
			"buffer":0,
			"byteLength":59472,
			"byteOffset":84200,
			"target":34962
		},
		{
			"buffer":0,
			"byteLength":59472,
			"byteOffset":143672,
			"target":34962
		},
		{
			"buffer":0,
			"byteLength":39648,
			"byteOffset":203144,
			"target":34962
		},
		{
			"buffer":0,
			"byteLength":39648,
			"byteOffset":242792,
			"target":34962
		},
		{
			"buffer":0,
			"byteLength":28800,
			"byteOffset":282440,
			"target":34963
		},
		{
			"buffer":0,
			"byteLength":288,
			"byteOffset":311240,
			"target":34962
		},
		{
			"buffer":0,
			"byteLength":288,
			"byteOffset":311528,
			"target":34962
		},
		{
			"buffer":0,
			"byteLength":192,
			"byteOffset":311816,
			"target":34962
		},
		{
			"buffer":0,
			"byteLength":72,
			"byteOffset":312008,
			"target":34963
		}
	],
	"samplers":[
		{
			"magFilter":9729,
			"minFilter":9987
		}
	],
	"buffers":[
		{
			"byteLength":312080,
			"uri":"ElMi_Table_Round.bin"
		}
	]
}
