{
	"asset":{
		"generator":"Khronos glTF Blender I/O v4.0.44",
		"version":"2.0"
	},
	"extensionsUsed":[
		"KHR_materials_specular",
		"KHR_materials_ior"
	],
	"scene":0,
	"scenes":[
		{
			"extras":{
				"max_samples":50,
				"vrm_addon_extension":{},
				"uuid":"438cee43-7d1c-4b5d-83c2-af8360045fd2",
				"assets reported":{},
				"created_collider":{}
			},
			"name":"Scene",
			"nodes":[
				2
			]
		}
	],
	"nodes":[
		{
			"extras":{
				"MapChannel:1":"UVMap",
				"MapChannel:2":"Lightmap",
				"MaxHandle":51
			},
			"mesh":0,
			"name":"ElMi_Sofa.001",
			"rotation":[
				0,
				-0.7071068286895752,
				0,
				0.7071068286895752
			],
			"scale":[
				0.02539999969303608,
				0.02539999969303608,
				0.02539999969303608
			],
			"translation":[
				0.0581766702234745,
				0.5363773107528687,
				1.1696783985826187e-05
			]
		},
		{
			"extras":{
				"xrengine.EE_collider.shape":"box",
				"xrengine.entity":"ElMi_Sofa_bcol"
			},
			"mesh":1,
			"name":"ElMi_Sofa_bcol"
		},
		{
			"children":[
				0,
				1
			],
			"name":"ElMi_Sofa"
		}
	],
	"materials":[
		{
			"doubleSided":true,
			"extensions":{
				"KHR_materials_specular":{
					"specularColorFactor":[
						2.0,
						2.0,
						2.0
					]
				},
				"KHR_materials_ior":{
					"ior":1.4500000476837158
				}
			},
			"name":"ChairAccent_MAT",
			"pbrMetallicRoughness":{
				"baseColorFactor":[
					0.23100000619888306,
					0.23100000619888306,
					0.23100000619888306,
					1
				],
				"metallicFactor":0,
				"roughnessFactor":0.5527864098548889
			}
		},
		{
			"doubleSided":true,
			"extras":{
				"vrm_addon_extension":{
					"mtoon1":{}
				}
			},
			"name":"Metal",
			"pbrMetallicRoughness":{
				"baseColorFactor":[
					0.04971330612897873,
					0.04971330612897873,
					0.04971330612897873,
					1
				],
				"metallicFactor":0.6097561120986938,
				"roughnessFactor":0.05958548188209534
			}
		}
	],
	"meshes":[
		{
			"name":"Mesh.006",
			"primitives":[
				{
					"attributes":{
						"POSITION":0,
						"NORMAL":1,
						"TEXCOORD_0":2,
						"TEXCOORD_1":3
					},
					"indices":4,
					"material":0
				},
				{
					"attributes":{
						"POSITION":5,
						"NORMAL":6,
						"TEXCOORD_0":7,
						"TEXCOORD_1":8
					},
					"indices":9,
					"material":1
				}
			]
		},
		{
			"name":"Cube.004",
			"primitives":[
				{
					"attributes":{
						"POSITION":10,
						"NORMAL":11,
						"TEXCOORD_0":12
					},
					"indices":13
				}
			]
		}
	],
	"accessors":[
		{
			"bufferView":0,
			"componentType":5126,
			"count":6910,
			"max":[
				62.952091217041016,
				15.564188957214355,
				28.144790649414062
			],
			"min":[
				-62.875,
				-8.404057502746582,
				-22.406051635742188
			],
			"type":"VEC3"
		},
		{
			"bufferView":1,
			"componentType":5126,
			"count":6910,
			"type":"VEC3"
		},
		{
			"bufferView":2,
			"componentType":5126,
			"count":6910,
			"type":"VEC2"
		},
		{
			"bufferView":3,
			"componentType":5126,
			"count":6910,
			"type":"VEC2"
		},
		{
			"bufferView":4,
			"componentType":5123,
			"count":35712,
			"type":"SCALAR"
		},
		{
			"bufferView":5,
			"componentType":5126,
			"count":640,
			"max":[
				51.11509704589844,
				1.998011589050293,
				15.337478637695312
			],
			"min":[
				-51.23357009887695,
				-20.72658348083496,
				-21.550033569335938
			],
			"type":"VEC3"
		},
		{
			"bufferView":6,
			"componentType":5126,
			"count":640,
			"type":"VEC3"
		},
		{
			"bufferView":7,
			"componentType":5126,
			"count":640,
			"type":"VEC2"
		},
		{
			"bufferView":8,
			"componentType":5126,
			"count":640,
			"type":"VEC2"
		},
		{
			"bufferView":9,
			"componentType":5123,
			"count":2304,
			"type":"SCALAR"
		},
		{
			"bufferView":10,
			"componentType":5126,
			"count":24,
			"max":[
				0.6272904872894287,
				0.9317077398300171,
				1.5989947319030762
			],
			"min":[
				-0.6567010879516602,
				0.0099220871925354,
				-1.5970134735107422
			],
			"type":"VEC3"
		},
		{
			"bufferView":11,
			"componentType":5126,
			"count":24,
			"type":"VEC3"
		},
		{
			"bufferView":12,
			"componentType":5126,
			"count":24,
			"type":"VEC2"
		},
		{
			"bufferView":13,
			"componentType":5123,
			"count":36,
			"type":"SCALAR"
		}
	],
	"bufferViews":[
		{
			"buffer":0,
			"byteLength":82920,
			"byteOffset":0,
			"target":34962
		},
		{
			"buffer":0,
			"byteLength":82920,
			"byteOffset":82920,
			"target":34962
		},
		{
			"buffer":0,
			"byteLength":55280,
			"byteOffset":165840,
			"target":34962
		},
		{
			"buffer":0,
			"byteLength":55280,
			"byteOffset":221120,
			"target":34962
		},
		{
			"buffer":0,
			"byteLength":71424,
			"byteOffset":276400,
			"target":34963
		},
		{
			"buffer":0,
			"byteLength":7680,
			"byteOffset":347824,
			"target":34962
		},
		{
			"buffer":0,
			"byteLength":7680,
			"byteOffset":355504,
			"target":34962
		},
		{
			"buffer":0,
			"byteLength":5120,
			"byteOffset":363184,
			"target":34962
		},
		{
			"buffer":0,
			"byteLength":5120,
			"byteOffset":368304,
			"target":34962
		},
		{
			"buffer":0,
			"byteLength":4608,
			"byteOffset":373424,
			"target":34963
		},
		{
			"buffer":0,
			"byteLength":288,
			"byteOffset":378032,
			"target":34962
		},
		{
			"buffer":0,
			"byteLength":288,
			"byteOffset":378320,
			"target":34962
		},
		{
			"buffer":0,
			"byteLength":192,
			"byteOffset":378608,
			"target":34962
		},
		{
			"buffer":0,
			"byteLength":72,
			"byteOffset":378800,
			"target":34963
		}
	],
	"buffers":[
		{
			"byteLength":378872,
			"uri":"ElMi_Sofa.bin"
		}
	]
}
