{
	"asset":{
		"generator":"Khronos glTF Blender I/O v4.0.44",
		"version":"2.0"
	},
	"extensionsUsed":[
		"KHR_materials_specular",
		"KHR_materials_ior"
	],
	"scene":0,
	"scenes":[
		{
			"extras":{
				"max_samples":50,
				"vrm_addon_extension":{},
				"uuid":"438cee43-7d1c-4b5d-83c2-af8360045fd2",
				"assets reported":{},
				"created_collider":{}
			},
			"name":"Scene",
			"nodes":[
				2
			]
		}
	],
	"nodes":[
		{
			"extras":{
				"MapChannel:1":"UVMap",
				"MapChannel:2":"Lightmap",
				"MaxHandle":44
			},
			"mesh":0,
			"name":"ElMi_Table_Square.001",
			"rotation":[
				0.0003974919382017106,
				9.961113391909748e-05,
				0.0035439105704426765,
				0.999993622303009
			],
			"scale":[
				0.02539999969303608,
				0.02539999969303608,
				0.02539999783039093
			],
			"translation":[
				0.00014492713671643287,
				0.4171035587787628,
				-1.6134879842866212e-05
			]
		},
		{
			"extras":{
				"xrengine.EE_collider.shape":"box",
				"xrengine.entity":"ElMi_Table_Square_bcol"
			},
			"mesh":1,
			"name":"ElMi_Table_Square_bcol"
		},
		{
			"children":[
				0,
				1
			],
			"name":"ElMi_Table_Square"
		}
	],
	"materials":[
		{
			"doubleSided":true,
			"extensions":{
				"KHR_materials_specular":{
					"specularColorFactor":[
						2.0,
						2.0,
						2.0
					]
				},
				"KHR_materials_ior":{
					"ior":1.4500000476837158
				}
			},
			"name":"Wall_MAT",
			"pbrMetallicRoughness":{
				"metallicFactor":0,
				"roughnessFactor":0.5527864098548889
			}
		},
		{
			"doubleSided":true,
			"extras":{
				"vrm_addon_extension":{
					"mtoon1":{}
				}
			},
			"name":"Metal",
			"pbrMetallicRoughness":{
				"baseColorFactor":[
					0.04971330612897873,
					0.04971330612897873,
					0.04971330612897873,
					1
				],
				"metallicFactor":0.6097561120986938,
				"roughnessFactor":0.05958548188209534
			}
		}
	],
	"meshes":[
		{
			"name":"Mesh",
			"primitives":[
				{
					"attributes":{
						"POSITION":0,
						"NORMAL":1,
						"TEXCOORD_0":2,
						"TEXCOORD_1":3
					},
					"indices":4,
					"material":0
				},
				{
					"attributes":{
						"POSITION":5,
						"NORMAL":6,
						"TEXCOORD_0":7,
						"TEXCOORD_1":8
					},
					"indices":9,
					"material":1
				}
			]
		},
		{
			"name":"Cube.001",
			"primitives":[
				{
					"attributes":{
						"POSITION":10,
						"NORMAL":11,
						"TEXCOORD_0":12
					},
					"indices":13
				}
			]
		}
	],
	"accessors":[
		{
			"bufferView":0,
			"componentType":5126,
			"count":66,
			"max":[
				25.800703048706055,
				2.6111559867858887,
				25.8006534576416
			],
			"min":[
				-25.80072593688965,
				-0.8410229086875916,
				-25.8006649017334
			],
			"type":"VEC3"
		},
		{
			"bufferView":1,
			"componentType":5126,
			"count":66,
			"type":"VEC3"
		},
		{
			"bufferView":2,
			"componentType":5126,
			"count":66,
			"type":"VEC2"
		},
		{
			"bufferView":3,
			"componentType":5126,
			"count":66,
			"type":"VEC2"
		},
		{
			"bufferView":4,
			"componentType":5123,
			"count":132,
			"type":"SCALAR"
		},
		{
			"bufferView":5,
			"componentType":5126,
			"count":2922,
			"max":[
				25.80071449279785,
				-0.8408665060997009,
				26.11039924621582
			],
			"min":[
				-25.800722122192383,
				-16.3212890625,
				-26.11018180847168
			],
			"type":"VEC3"
		},
		{
			"bufferView":6,
			"componentType":5126,
			"count":2922,
			"type":"VEC3"
		},
		{
			"bufferView":7,
			"componentType":5126,
			"count":2922,
			"type":"VEC2"
		},
		{
			"bufferView":8,
			"componentType":5126,
			"count":2922,
			"type":"VEC2"
		},
		{
			"bufferView":9,
			"componentType":5123,
			"count":8688,
			"type":"SCALAR"
		},
		{
			"bufferView":10,
			"componentType":5126,
			"count":24,
			"max":[
				0.6585388779640198,
				0.48859694600105286,
				0.6633692979812622
			],
			"min":[
				-0.655781090259552,
				-0.002618342638015747,
				-0.6636730432510376
			],
			"type":"VEC3"
		},
		{
			"bufferView":11,
			"componentType":5126,
			"count":24,
			"type":"VEC3"
		},
		{
			"bufferView":12,
			"componentType":5126,
			"count":24,
			"type":"VEC2"
		},
		{
			"bufferView":13,
			"componentType":5123,
			"count":36,
			"type":"SCALAR"
		}
	],
	"bufferViews":[
		{
			"buffer":0,
			"byteLength":792,
			"byteOffset":0,
			"target":34962
		},
		{
			"buffer":0,
			"byteLength":792,
			"byteOffset":792,
			"target":34962
		},
		{
			"buffer":0,
			"byteLength":528,
			"byteOffset":1584,
			"target":34962
		},
		{
			"buffer":0,
			"byteLength":528,
			"byteOffset":2112,
			"target":34962
		},
		{
			"buffer":0,
			"byteLength":264,
			"byteOffset":2640,
			"target":34963
		},
		{
			"buffer":0,
			"byteLength":35064,
			"byteOffset":2904,
			"target":34962
		},
		{
			"buffer":0,
			"byteLength":35064,
			"byteOffset":37968,
			"target":34962
		},
		{
			"buffer":0,
			"byteLength":23376,
			"byteOffset":73032,
			"target":34962
		},
		{
			"buffer":0,
			"byteLength":23376,
			"byteOffset":96408,
			"target":34962
		},
		{
			"buffer":0,
			"byteLength":17376,
			"byteOffset":119784,
			"target":34963
		},
		{
			"buffer":0,
			"byteLength":288,
			"byteOffset":137160,
			"target":34962
		},
		{
			"buffer":0,
			"byteLength":288,
			"byteOffset":137448,
			"target":34962
		},
		{
			"buffer":0,
			"byteLength":192,
			"byteOffset":137736,
			"target":34962
		},
		{
			"buffer":0,
			"byteLength":72,
			"byteOffset":137928,
			"target":34963
		}
	],
	"buffers":[
		{
			"byteLength":138000,
			"uri":"ElMi_Table_Square.bin"
		}
	]
}
