{
	"asset":{
		"generator":"Khronos glTF Blender I/O v4.0.44",
		"version":"2.0"
	},
	"extensionsUsed":[
		"KHR_materials_specular",
		"KHR_materials_ior"
	],
	"scene":0,
	"scenes":[
		{
			"extras":{
				"max_samples":50,
				"vrm_addon_extension":{},
				"uuid":"438cee43-7d1c-4b5d-83c2-af8360045fd2",
				"assets reported":{},
				"created_collider":{}
			},
			"name":"Scene",
			"nodes":[
				2
			]
		}
	],
	"nodes":[
		{
			"extras":{
				"MapChannel:1":"UVMap",
				"MapChannel:2":"Lightmap",
				"MaxHandle":49
			},
			"mesh":0,
			"name":"ElMi_Chair.001",
			"rotation":[
				0.002006205730140209,
				-0.4668232202529907,
				0.002948295557871461,
				0.8843435645103455
			],
			"scale":[
				0.02539999969303608,
				0.02539999969303608,
				0.02539999969303608
			],
			"translation":[
				0.011397979222238064,
				0.5063144564628601,
				0.0005155025282874703
			]
		},
		{
			"extras":{
				"xrengine.EE_collider.shape":"box",
				"xrengine.entity":"ElMi_Chair_bcol"
			},
			"mesh":1,
			"name":"ElMi_Chair_bcol"
		},
		{
			"children":[
				0,
				1
			],
			"extras":{
				"xrengine.EE_rigidbody.type":"fixed",
				"xrengine.entity":"Elevated_Minimalist_Props"
			},
			"name":"ElMi_Chair"
		}
	],
	"materials":[
		{
			"doubleSided":true,
			"extensions":{
				"KHR_materials_specular":{
					"specularColorFactor":[
						2.0,
						2.0,
						2.0
					]
				},
				"KHR_materials_ior":{
					"ior":1.4500000476837158
				}
			},
			"name":"ChairAccent_MAT",
			"pbrMetallicRoughness":{
				"baseColorFactor":[
					0.23100000619888306,
					0.23100000619888306,
					0.23100000619888306,
					1
				],
				"metallicFactor":0,
				"roughnessFactor":0.5527864098548889
			}
		},
		{
			"doubleSided":true,
			"extras":{
				"vrm_addon_extension":{
					"mtoon1":{}
				}
			},
			"name":"Metal",
			"pbrMetallicRoughness":{
				"baseColorFactor":[
					0.04971330612897873,
					0.04971330612897873,
					0.04971330612897873,
					1
				],
				"metallicFactor":0.6097561120986938,
				"roughnessFactor":0.05958548188209534
			}
		}
	],
	"meshes":[
		{
			"name":"Mesh.004",
			"primitives":[
				{
					"attributes":{
						"POSITION":0,
						"NORMAL":1,
						"TEXCOORD_0":2,
						"TEXCOORD_1":3
					},
					"indices":4,
					"material":0
				},
				{
					"attributes":{
						"POSITION":5,
						"NORMAL":6,
						"TEXCOORD_0":7,
						"TEXCOORD_1":8
					},
					"indices":9,
					"material":1
				}
			]
		},
		{
			"name":"Cube",
			"primitives":[
				{
					"attributes":{
						"POSITION":10,
						"NORMAL":11,
						"TEXCOORD_0":12
					},
					"indices":13
				}
			]
		}
	],
	"accessors":[
		{
			"bufferView":0,
			"componentType":5126,
			"count":12016,
			"max":[
				19.291654586791992,
				14.771183013916016,
				14.279278755187988
			],
			"min":[
				-14.220742225646973,
				-6.078929901123047,
				-19.126543045043945
			],
			"type":"VEC3"
		},
		{
			"bufferView":1,
			"componentType":5126,
			"count":12016,
			"type":"VEC3"
		},
		{
			"bufferView":2,
			"componentType":5126,
			"count":12016,
			"type":"VEC2"
		},
		{
			"bufferView":3,
			"componentType":5126,
			"count":12016,
			"type":"VEC2"
		},
		{
			"bufferView":4,
			"componentType":5123,
			"count":61872,
			"type":"SCALAR"
		},
		{
			"bufferView":5,
			"componentType":5126,
			"count":2789,
			"max":[
				18.669164657592773,
				9.077838897705078,
				15.514691352844238
			],
			"min":[
				-15.306710243225098,
				-20.112255096435547,
				-18.373369216918945
			],
			"type":"VEC3"
		},
		{
			"bufferView":6,
			"componentType":5126,
			"count":2789,
			"type":"VEC3"
		},
		{
			"bufferView":7,
			"componentType":5126,
			"count":2789,
			"type":"VEC2"
		},
		{
			"bufferView":8,
			"componentType":5126,
			"count":2789,
			"type":"VEC2"
		},
		{
			"bufferView":9,
			"componentType":5123,
			"count":10194,
			"type":"SCALAR"
		},
		{
			"bufferView":10,
			"componentType":5126,
			"count":24,
			"max":[
				0.6925629377365112,
				0.8861914277076721,
				0.6277159452438354
			],
			"min":[
				-0.5359588861465454,
				-0.008306026458740234,
				-0.5949751138687134
			],
			"type":"VEC3"
		},
		{
			"bufferView":11,
			"componentType":5126,
			"count":24,
			"type":"VEC3"
		},
		{
			"bufferView":12,
			"componentType":5126,
			"count":24,
			"type":"VEC2"
		},
		{
			"bufferView":13,
			"componentType":5123,
			"count":36,
			"type":"SCALAR"
		}
	],
	"bufferViews":[
		{
			"buffer":0,
			"byteLength":144192,
			"byteOffset":0,
			"target":34962
		},
		{
			"buffer":0,
			"byteLength":144192,
			"byteOffset":144192,
			"target":34962
		},
		{
			"buffer":0,
			"byteLength":96128,
			"byteOffset":288384,
			"target":34962
		},
		{
			"buffer":0,
			"byteLength":96128,
			"byteOffset":384512,
			"target":34962
		},
		{
			"buffer":0,
			"byteLength":123744,
			"byteOffset":480640,
			"target":34963
		},
		{
			"buffer":0,
			"byteLength":33468,
			"byteOffset":604384,
			"target":34962
		},
		{
			"buffer":0,
			"byteLength":33468,
			"byteOffset":637852,
			"target":34962
		},
		{
			"buffer":0,
			"byteLength":22312,
			"byteOffset":671320,
			"target":34962
		},
		{
			"buffer":0,
			"byteLength":22312,
			"byteOffset":693632,
			"target":34962
		},
		{
			"buffer":0,
			"byteLength":20388,
			"byteOffset":715944,
			"target":34963
		},
		{
			"buffer":0,
			"byteLength":288,
			"byteOffset":736332,
			"target":34962
		},
		{
			"buffer":0,
			"byteLength":288,
			"byteOffset":736620,
			"target":34962
		},
		{
			"buffer":0,
			"byteLength":192,
			"byteOffset":736908,
			"target":34962
		},
		{
			"buffer":0,
			"byteLength":72,
			"byteOffset":737100,
			"target":34963
		}
	],
	"buffers":[
		{
			"byteLength":737172,
			"uri":"ElMi_Chair.bin"
		}
	]
}
