{
	"asset":{
		"generator":"Khronos glTF Blender I/O v3.6.28",
		"version":"2.0"
	},
	"extensionsUsed":[
		"KHR_materials_transmission",
		"KHR_materials_specular",
		"KHR_materials_ior"
	],
	"scene":0,
	"scenes":[
		{
			"extras":{
				"xol_link_apps":[
					{
						"id":62564,
						"port":"62564",
						"type":"BLD",
						"label":"Blender Foundation - Blender"
					},
					{
						"id":62621,
						"port":"62621",
						"type":"BLD",
						"label":"Blender Foundation - Blender"
					},
					{
						"id":64743,
						"port":"64743",
						"type":"BLD",
						"label":"Blender Foundation - Blender"
					}
				],
				"xol_link_apps_list":0
			},
			"name":"Scene",
			"nodes":[
				4
			]
		}
	],
	"nodes":[
		{
			"extras":{
				"xrengine.entity":"light_plinth_collider",
				"xrengine.EE_collider.shape":"mesh"
			},
			"mesh":0,
			"name":"light_circle_collider"
		},
		{
			"mesh":1,
			"name":"shapes_light_circle"
		},
		{
			"mesh":2,
			"name":"shapes_plinth_circle"
		},
		{
			"mesh":3,
			"name":"shapes_plinth_floor_circle"
		},
		{
			"children":[
				0,
				1,
				2,
				3
			],
			"extras":{
				"xrengine.entity":"rbd",
				"xrengine.EE_rigidbody.type":"fixed"
			},
			"name":"plinth_circle"
		}
	],
	"materials":[
		{
			"doubleSided":true,
			"extensions":{
				"KHR_materials_transmission":{
					"transmissionFactor":1
				},
				"KHR_materials_specular":{
					"specularColorFactor":[
						1,
						1,
						1
					]
				},
				"KHR_materials_ior":{
					"ior":1.4500000476837158
				}
			},
			"name":"wire_115115115",
			"pbrMetallicRoughness":{
				"baseColorFactor":[
					0.45100000500679016,
					0.45100000500679016,
					0.45100000500679016,
					1
				],
				"metallicFactor":0,
				"roughnessFactor":0.8211145401000977
			}
		},
		{
			"doubleSided":true,
			"extensions":{
				"KHR_materials_transmission":{
					"transmissionFactor":1
				},
				"KHR_materials_specular":{
					"specularColorFactor":[
						1,
						1,
						1
					]
				},
				"KHR_materials_ior":{
					"ior":1.5199999809265137
				}
			},
			"name":"01___Default",
			"pbrMetallicRoughness":{
				"baseColorFactor":[
					0.25,
					0.25,
					0.30230000615119934,
					1
				],
				"roughnessFactor":0.28999999165534973
			}
		},
		{
			"doubleSided":true,
			"extensions":{
				"KHR_materials_transmission":{
					"transmissionFactor":1
				},
				"KHR_materials_specular":{
					"specularColorFactor":[
						1,
						1,
						1
					]
				},
				"KHR_materials_ior":{
					"ior":1.5199999809265137
				}
			},
			"name":"07___Default",
			"pbrMetallicRoughness":{
				"baseColorFactor":[
					0.5,
					0.5,
					0.5,
					1
				],
				"metallicFactor":0,
				"roughnessFactor":0
			}
		}
	],
	"meshes":[
		{
			"name":"Cylinder",
			"primitives":[
				{
					"attributes":{
						"POSITION":0,
						"NORMAL":1,
						"TEXCOORD_0":2
					},
					"indices":3
				}
			]
		},
		{
			"name":"shapes_light_circle",
			"primitives":[
				{
					"attributes":{
						"POSITION":4,
						"NORMAL":5,
						"TEXCOORD_0":6
					},
					"indices":7,
					"material":0
				}
			]
		},
		{
			"name":"shapes_plinth_circle",
			"primitives":[
				{
					"attributes":{
						"POSITION":8,
						"NORMAL":9,
						"TEXCOORD_0":10
					},
					"indices":11,
					"material":1
				}
			]
		},
		{
			"name":"Object002",
			"primitives":[
				{
					"attributes":{
						"POSITION":12,
						"NORMAL":13,
						"TEXCOORD_0":14
					},
					"indices":15,
					"material":2
				}
			]
		}
	],
	"accessors":[
		{
			"bufferView":0,
			"componentType":5126,
			"count":192,
			"max":[
				0.5122021436691284,
				0.5317952036857605,
				0.6046261191368103
			],
			"min":[
				-0.5481561422348022,
				0.01168888807296753,
				-0.45573219656944275
			],
			"type":"VEC3"
		},
		{
			"bufferView":1,
			"componentType":5126,
			"count":192,
			"type":"VEC3"
		},
		{
			"bufferView":2,
			"componentType":5126,
			"count":192,
			"type":"VEC2"
		},
		{
			"bufferView":3,
			"componentType":5123,
			"count":372,
			"type":"SCALAR"
		},
		{
			"bufferView":4,
			"componentType":5126,
			"count":844,
			"max":[
				0.5637421607971191,
				2.3635001182556152,
				0.6524999737739563
			],
			"min":[
				-0.5933578014373779,
				2.212599992752075,
				-0.5045999884605408
			],
			"type":"VEC3"
		},
		{
			"bufferView":5,
			"componentType":5126,
			"count":844,
			"type":"VEC3"
		},
		{
			"bufferView":6,
			"componentType":5126,
			"count":844,
			"type":"VEC2"
		},
		{
			"bufferView":7,
			"componentType":5123,
			"count":3588,
			"type":"SCALAR"
		},
		{
			"bufferView":8,
			"componentType":5126,
			"count":920,
			"max":[
				0.519942045211792,
				0.5327597260475159,
				0.6086000204086304
			],
			"min":[
				-0.5495579242706299,
				0.026059746742248535,
				-0.4607999920845032
			],
			"type":"VEC3"
		},
		{
			"bufferView":9,
			"componentType":5126,
			"count":920,
			"type":"VEC3"
		},
		{
			"bufferView":10,
			"componentType":5126,
			"count":920,
			"type":"VEC2"
		},
		{
			"bufferView":11,
			"componentType":5123,
			"count":4068,
			"type":"SCALAR"
		},
		{
			"bufferView":12,
			"componentType":5126,
			"count":240,
			"max":[
				0.8317420482635498,
				0.0063597410917282104,
				0.9204000234603882
			],
			"min":[
				-0.8613576889038086,
				0.0005597472190856934,
				-0.772599995136261
			],
			"type":"VEC3"
		},
		{
			"bufferView":13,
			"componentType":5126,
			"count":240,
			"type":"VEC3"
		},
		{
			"bufferView":14,
			"componentType":5126,
			"count":240,
			"type":"VEC2"
		},
		{
			"bufferView":15,
			"componentType":5123,
			"count":1074,
			"type":"SCALAR"
		}
	],
	"bufferViews":[
		{
			"buffer":0,
			"byteLength":2304,
			"byteOffset":0,
			"target":34962
		},
		{
			"buffer":0,
			"byteLength":2304,
			"byteOffset":2304,
			"target":34962
		},
		{
			"buffer":0,
			"byteLength":1536,
			"byteOffset":4608,
			"target":34962
		},
		{
			"buffer":0,
			"byteLength":744,
			"byteOffset":6144,
			"target":34963
		},
		{
			"buffer":0,
			"byteLength":10128,
			"byteOffset":6888,
			"target":34962
		},
		{
			"buffer":0,
			"byteLength":10128,
			"byteOffset":17016,
			"target":34962
		},
		{
			"buffer":0,
			"byteLength":6752,
			"byteOffset":27144,
			"target":34962
		},
		{
			"buffer":0,
			"byteLength":7176,
			"byteOffset":33896,
			"target":34963
		},
		{
			"buffer":0,
			"byteLength":11040,
			"byteOffset":41072,
			"target":34962
		},
		{
			"buffer":0,
			"byteLength":11040,
			"byteOffset":52112,
			"target":34962
		},
		{
			"buffer":0,
			"byteLength":7360,
			"byteOffset":63152,
			"target":34962
		},
		{
			"buffer":0,
			"byteLength":8136,
			"byteOffset":70512,
			"target":34963
		},
		{
			"buffer":0,
			"byteLength":2880,
			"byteOffset":78648,
			"target":34962
		},
		{
			"buffer":0,
			"byteLength":2880,
			"byteOffset":81528,
			"target":34962
		},
		{
			"buffer":0,
			"byteLength":1920,
			"byteOffset":84408,
			"target":34962
		},
		{
			"buffer":0,
			"byteLength":2148,
			"byteOffset":86328,
			"target":34963
		}
	],
	"buffers":[
		{
			"byteLength":88476,
			"uri":"large_circular_plinth.bin"
		}
	]
}
