{
	"asset":{
		"generator":"Khronos glTF Blender I/O v4.0.44",
		"version":"2.0"
	},
	"scene":0,
	"scenes":[
		{
			"extras":{
				"sun_pos_properties":{
					"show_surface":0,
					"show_analemmas":0,
					"show_north":0,
					"latitude":0.0,
					"day_of_year":150,
					"sun_object":{},
					"object_collection":{}
				},
				"true_sky":{
					"presets":{
						"full_sky_preset":{
							"presets":[
								{
									"name":"Default",
									"display_name":"Default"
								},
								{
									"name":"Morning",
									"display_name":"Morning"
								},
								{
									"name":"Mid-Morning",
									"display_name":"Mid-Morning"
								},
								{
									"name":"Midday",
									"display_name":"Midday"
								},
								{
									"name":"Azure Afternoon",
									"display_name":"Azure Afternoon"
								},
								{
									"name":"Dusty Afternoon",
									"display_name":"Dusty Afternoon"
								},
								{
									"name":"Dusk",
									"display_name":"Dusk"
								},
								{
									"name":"Dusty Dusk",
									"display_name":"Dusty Dusk"
								},
								{
									"name":"Alien Morning",
									"display_name":"Alien Morning"
								},
								{
									"name":"Alien Gas Desert",
									"display_name":"Alien Gas Desert"
								},
								{
									"name":"Alien Day",
									"display_name":"Alien Day"
								},
								{
									"name":"Mars",
									"display_name":"Mars"
								}
							]
						},
						"time_preset":{
							"presets":[
								{
									"name":"Sunrise",
									"display_name":"Sunrise"
								},
								{
									"name":"Morning - Golden Hour End",
									"display_name":"Morning - Golden Hour End"
								},
								{
									"name":"Mid-Morning",
									"display_name":"Mid-Morning"
								},
								{
									"name":"Noon",
									"display_name":"Noon"
								},
								{
									"name":"Afternoon",
									"display_name":"Afternoon"
								},
								{
									"name":"Evening - Golden Hour Start",
									"display_name":"Evening - Golden Hour Start"
								},
								{
									"name":"Sunset",
									"display_name":"Sunset"
								}
							]
						},
						"sol_hsv_preset":{
							"presets":[
								{
									"name":"Base",
									"display_name":"Base"
								},
								{
									"name":"Test",
									"display_name":"Mars"
								},
								{
									"name":"Venus",
									"display_name":"Venus"
								},
								{
									"name":"Saturated",
									"display_name":"Saturated"
								},
								{
									"name":"Desaturated",
									"display_name":"Desaturated"
								}
							]
						},
						"atmosphere_preset":{
							"presets":[
								{
									"name":"Clear",
									"display_name":"Clear"
								},
								{
									"name":"Dusty",
									"display_name":"Dusty"
								}
							]
						},
						"haze_preset":{
							"presets":[
								{
									"name":"Clear",
									"display_name":"Clear"
								},
								{
									"name":"Polluted",
									"display_name":"Polluted"
								},
								{
									"name":"Drab",
									"display_name":"Drab"
								},
								{
									"name":"Other",
									"display_name":"Mars"
								},
								{
									"name":"Green",
									"display_name":"Green"
								}
							]
						},
						"fog_preset":{
							"presets":[
								{
									"name":"Fog Clear",
									"display_name":"Fog Clear"
								},
								{
									"name":"Fog Dense",
									"display_name":"Fog Dense"
								},
								{
									"name":"",
									"display_name":"Fog Blanket"
								},
								{
									"name":"Fog Stormy",
									"display_name":"Fog Stormy"
								},
								{
									"name":"Fog (Sandy)",
									"display_name":"Fog (Sandy/Dust)"
								}
							]
						},
						"night_sky_preset":{
							"presets":[
								{
									"name":"Test",
									"display_name":"Clear Night"
								},
								{
									"name":"Clear Night w/o Moon",
									"display_name":"Clear Night w/o Moon"
								},
								{
									"name":"Test 2",
									"display_name":"Hazy Night"
								},
								{
									"name":"Hazy Night w/o Moon",
									"display_name":"Hazy Night w/o Moon"
								}
							]
						},
						"night_hdris_preset":{
							"presets":[
								{
									"name":"Earth Night",
									"display_name":"Earth Night"
								},
								{
									"name":"Interstellar Nursery",
									"display_name":"Interstellar Nursery"
								},
								{
									"name":"Black Hole",
									"display_name":"Black Hole"
								},
								{
									"name":"Blue Nebula",
									"display_name":"Blue Nebula"
								},
								{
									"name":"Red Nebula",
									"display_name":"Blue Clouds"
								},
								{
									"name":"Red Gas",
									"display_name":"Red Gas"
								},
								{
									"name":"Great Portal",
									"display_name":"Great Portal"
								},
								{
									"name":"Orange Nebula",
									"display_name":"Orange Nebula"
								}
							]
						},
						"moon_preset":{
							"presets":[
								{
									"name":"Base",
									"display_name":"Earth Moon"
								},
								{
									"name":"Super Moon",
									"display_name":"Super Moon"
								}
							]
						},
						"moon_phase_preset":{
							"presets":[
								{
									"name":"Waxing Crescent",
									"display_name":"Waxing Crescent"
								},
								{
									"name":"First Quarter",
									"display_name":"First Quarter"
								},
								{
									"name":"Waxing Gibbous",
									"display_name":"Waxing Gibbous"
								},
								{
									"name":"Full",
									"display_name":"Full"
								},
								{
									"name":"Waning Gibbous",
									"display_name":"Waning Gibbous"
								},
								{
									"name":"Third Quarter",
									"display_name":"Third Quarter"
								},
								{
									"name":"Waning Crescent",
									"display_name":"Waning Crescent"
								}
							]
						},
						"nebula_preset":{
							"presets":[
								{
									"name":"Base",
									"display_name":"Base"
								},
								{
									"name":"Pale Wisp",
									"display_name":"Pale Wisp"
								},
								{
									"name":"Golden Flares",
									"display_name":"Golden Flares"
								}
							]
						},
						"stars_preset":{
							"presets":[
								{
									"name":"Base",
									"display_name":"Base"
								},
								{
									"name":"Deep Space",
									"display_name":"Deep Space"
								},
								{
									"name":"Starry Night",
									"display_name":"Starry Night"
								}
							]
						},
						"night_clarity_preset":{
							"presets":[
								{
									"name":"Base",
									"display_name":"Base"
								},
								{
									"name":"Intense",
									"display_name":"City Lights"
								}
							]
						},
						"cloud_preset":{
							"presets":[
								{
									"name":"tVFX_Clouds-Stratocumulus",
									"display_name":"Stratocumulus"
								},
								{
									"name":"tVFX_Clouds-Cumulus Mediocris",
									"display_name":"Cumulus Mediocris"
								},
								{
									"name":"tVFX_Clouds-Cumulonimbus",
									"display_name":"Cumulonimbus"
								},
								{
									"name":"tVFX_Clouds-Cirrus",
									"display_name":"Cirrus"
								},
								{
									"name":"tVFX_Clouds-Altostratus Translucidus",
									"display_name":"Altostratus Translucidus"
								},
								{
									"name":"tVFX_Clouds-Altostratus Opacus",
									"display_name":"Altostratus Opacus"
								},
								{
									"name":"tVFX_Clouds-Altocumulus",
									"display_name":"Altocumulus"
								}
							]
						}
					},
					"performance":{
						"performance_items":[
							{
								"name":"Testing"
							},
							{
								"name":"Viewport Render Region"
							},
							{
								"name":"Pixel Size"
							},
							{
								"name":"Tile Size"
							},
							{
								"name":"True-Speed"
							}
						]
					}
				},
				"srr_settings":{
					"status":{
						"is_rendering":0,
						"should_stop":0
					}
				},
				"puresky_properties":{
					"int_flag_updt_camera":1
				},
				"uuid":"3b80aae4-e0c8-4f00-9e9e-112806d2242f",
				"assets reported":{}
			},
			"name":"Scene",
			"nodes":[
				2
			]
		}
	],
	"nodes":[
		{
			"extras":{
				"currentUVSet":"map1"
			},
			"mesh":0,
			"name":"linelamp_mesh"
		},
		{
			"extras":{
				"xrengine.entity":"linelamp_mesh_Box_Collider",
				"xrengine.EE_collider.shape":"box"
			},
			"mesh":1,
			"name":"linelamp_mesh_Box_Collider",
			"rotation":[
				0.5004493594169617,
				-0.49995946884155273,
				0.5000373721122742,
				0.49955350160598755
			],
			"scale":[
				0.6783161759376526,
				0.025699421763420105,
				0.26797911524772644
			],
			"translation":[
				-0.00022354113752953708,
				0.2673991918563843,
				0.00018787384033203125
			]
		},
		{
			"children":[
				0,
				1
			],
			"extras":{
				"xrengine.entity":"linelamp",
				"xrengine.EE_rigidbody.type":"fixed"
			},
			"name":"linelamp.002"
		}
	],
	"materials":[
		{
			"doubleSided":true,
			"emissiveTexture":{
				"index":0
			},
			"name":"Furniture_02",
			"normalTexture":{
				"index":1
			},
			"pbrMetallicRoughness":{
				"baseColorTexture":{
					"index":2
				},
				"metallicRoughnessTexture":{
					"index":3
				}
			}
		}
	],
	"meshes":[
		{
			"name":"Mesh.005",
			"primitives":[
				{
					"attributes":{
						"POSITION":0,
						"NORMAL":1,
						"TEXCOORD_0":2
					},
					"indices":3,
					"material":0
				}
			]
		},
		{
			"name":"Cube.009",
			"primitives":[
				{
					"attributes":{
						"POSITION":4,
						"NORMAL":5,
						"TEXCOORD_0":6
					},
					"indices":7
				}
			]
		}
	],
	"textures":[
		{
			"sampler":0,
			"source":0
		},
		{
			"sampler":0,
			"source":1
		},
		{
			"sampler":0,
			"source":2
		},
		{
			"sampler":0,
			"source":3
		}
	],
	"images":[
		{
			"mimeType":"image/png",
			"name":"Furniture_CC02_Emission",
			"uri":"textures/Furniture_CC02_Emission.png"
		},
		{
			"mimeType":"image/png",
			"name":"Furniture_CC02_Normal",
			"uri":"textures/Furniture_CC02_Normal.png"
		},
		{
			"mimeType":"image/png",
			"name":"Furniture_CC02_BaseColor",
			"uri":"textures/Furniture_CC02_BaseColor.png"
		},
		{
			"mimeType":"image/png",
			"name":"Furniture_CC02_Metallic.png-Furniture_CC02_Roughness.png",
			"uri":"textures/Furniture_CC02_Metallic_png-Furniture_CC02_Roughness_png.png"
		}
	],
	"accessors":[
		{
			"bufferView":0,
			"componentType":5126,
			"count":224,
			"max":[
				0.025658845901489258,
				0.535002589225769,
				0.6782853007316589
			],
			"min":[
				-0.025658786296844482,
				0,
				-0.6782853007316589
			],
			"type":"VEC3"
		},
		{
			"bufferView":1,
			"componentType":5126,
			"count":224,
			"type":"VEC3"
		},
		{
			"bufferView":2,
			"componentType":5126,
			"count":224,
			"type":"VEC2"
		},
		{
			"bufferView":3,
			"componentType":5123,
			"count":516,
			"type":"SCALAR"
		},
		{
			"bufferView":4,
			"componentType":5126,
			"count":24,
			"max":[
				1,
				1,
				1
			],
			"min":[
				-1,
				-1,
				-1
			],
			"type":"VEC3"
		},
		{
			"bufferView":5,
			"componentType":5126,
			"count":24,
			"type":"VEC3"
		},
		{
			"bufferView":6,
			"componentType":5126,
			"count":24,
			"type":"VEC2"
		},
		{
			"bufferView":7,
			"componentType":5123,
			"count":36,
			"type":"SCALAR"
		}
	],
	"bufferViews":[
		{
			"buffer":0,
			"byteLength":2688,
			"byteOffset":0,
			"target":34962
		},
		{
			"buffer":0,
			"byteLength":2688,
			"byteOffset":2688,
			"target":34962
		},
		{
			"buffer":0,
			"byteLength":1792,
			"byteOffset":5376,
			"target":34962
		},
		{
			"buffer":0,
			"byteLength":1032,
			"byteOffset":7168,
			"target":34963
		},
		{
			"buffer":0,
			"byteLength":288,
			"byteOffset":8200,
			"target":34962
		},
		{
			"buffer":0,
			"byteLength":288,
			"byteOffset":8488,
			"target":34962
		},
		{
			"buffer":0,
			"byteLength":192,
			"byteOffset":8776,
			"target":34962
		},
		{
			"buffer":0,
			"byteLength":72,
			"byteOffset":8968,
			"target":34963
		}
	],
	"samplers":[
		{
			"magFilter":9729,
			"minFilter":9987
		}
	],
	"buffers":[
		{
			"byteLength":9040,
			"uri":"linelamp.002.bin"
		}
	]
}
