{
	"asset":{
		"generator":"Khronos glTF Blender I/O v4.0.44",
		"version":"2.0"
	},
	"extensionsUsed":[
		"KHR_materials_specular",
		"KHR_materials_ior"
	],
	"scene":0,
	"scenes":[
		{
			"extras":{
				"created_collider":{},
				"max_samples":150,
				"uuid":"e1bf76d0-8642-457f-a6f6-891b504d4e51",
				"assets reported":{}
			},
			"name":"Scene",
			"nodes":[
				2
			]
		}
	],
	"nodes":[
		{
			"extras":{
				"MapChannel:1":"UVChannel_1",
				"MapChannel:2":"UVChannel_2",
				"MapChannel:3":"UVMap",
				"MapChannel:4":"UVMap.001",
				"MapChannel:5":"Lightmap",
				"MaxHandle":17
			},
			"mesh":0,
			"name":"MeCo_Small_Display.001",
			"scale":[
				0.01274688821285963,
				0.01274688821285963,
				0.01274688821285963
			],
			"translation":[
				0,
				0.6701009273529053,
				0
			]
		},
		{
			"extras":{
				"xrengine.EE_collider.shape":"box",
				"xrengine.entity":"MeCo_Small_Display_bcol"
			},
			"mesh":1,
			"name":"MeCo_Small_Display_bcol"
		},
		{
			"children":[
				0,
				1
			],
			"extras":{
				"xrengine.EE_rigidbody.type":"fixed",
				"xrengine.entity":"Memphis_Courtyard_Props"
			},
			"name":"MeCo_Small_Display"
		}
	],
	"materials":[
		{
			"doubleSided":true,
			"extensions":{
				"KHR_materials_specular":{
					"specularColorFactor":[
						2.0,
						2.0,
						2.0
					]
				},
				"KHR_materials_ior":{
					"ior":1.4500000476837158
				}
			},
			"name":"MeCo_Small_Display",
			"normalTexture":{
				"index":0
			},
			"pbrMetallicRoughness":{
				"baseColorTexture":{
					"index":1
				},
				"metallicFactor":0,
				"metallicRoughnessTexture":{
					"index":2
				}
			}
		}
	],
	"meshes":[
		{
			"name":"Mesh.007",
			"primitives":[
				{
					"attributes":{
						"POSITION":0,
						"NORMAL":1,
						"TEXCOORD_0":2,
						"TEXCOORD_1":3,
						"TEXCOORD_2":4,
						"TEXCOORD_3":5,
						"TEXCOORD_4":6
					},
					"indices":7,
					"material":0
				}
			]
		},
		{
			"name":"Cube.002",
			"primitives":[
				{
					"attributes":{
						"POSITION":8,
						"NORMAL":9,
						"TEXCOORD_0":10
					},
					"indices":11
				}
			]
		}
	],
	"textures":[
		{
			"sampler":0,
			"source":0
		},
		{
			"sampler":0,
			"source":1
		},
		{
			"sampler":0,
			"source":2
		}
	],
	"images":[
		{
			"mimeType":"image/png",
			"name":"block_folly_Norm",
			"uri":"block_folly_Norm.png"
		},
		{
			"mimeType":"image/png",
			"name":"block_folly_AO",
			"uri":"block_folly_AO.png"
		},
		{
			"mimeType":"image/png",
			"name":"block_folly_Rough",
			"uri":"block_folly_Rough.png"
		}
	],
	"accessors":[
		{
			"bufferView":0,
			"componentType":5126,
			"count":182,
			"max":[
				50.57177734375,
				22.714418411254883,
				50.380157470703125
			],
			"min":[
				-50.57177734375,
				-39.350894927978516,
				-50.380165100097656
			],
			"type":"VEC3"
		},
		{
			"bufferView":1,
			"componentType":5126,
			"count":182,
			"type":"VEC3"
		},
		{
			"bufferView":2,
			"componentType":5126,
			"count":182,
			"type":"VEC2"
		},
		{
			"bufferView":3,
			"componentType":5126,
			"count":182,
			"type":"VEC2"
		},
		{
			"bufferView":4,
			"componentType":5126,
			"count":182,
			"type":"VEC2"
		},
		{
			"bufferView":5,
			"componentType":5126,
			"count":182,
			"type":"VEC2"
		},
		{
			"bufferView":6,
			"componentType":5126,
			"count":182,
			"type":"VEC2"
		},
		{
			"bufferView":7,
			"componentType":5123,
			"count":510,
			"type":"SCALAR"
		},
		{
			"bufferView":8,
			"componentType":5126,
			"count":24,
			"max":[
				0.6446340084075928,
				0.9596390724182129,
				0.6421897411346436
			],
			"min":[
				-0.6446316242218018,
				0.16849946975708008,
				-0.6421908140182495
			],
			"type":"VEC3"
		},
		{
			"bufferView":9,
			"componentType":5126,
			"count":24,
			"type":"VEC3"
		},
		{
			"bufferView":10,
			"componentType":5126,
			"count":24,
			"type":"VEC2"
		},
		{
			"bufferView":11,
			"componentType":5123,
			"count":36,
			"type":"SCALAR"
		}
	],
	"bufferViews":[
		{
			"buffer":0,
			"byteLength":2184,
			"byteOffset":0,
			"target":34962
		},
		{
			"buffer":0,
			"byteLength":2184,
			"byteOffset":2184,
			"target":34962
		},
		{
			"buffer":0,
			"byteLength":1456,
			"byteOffset":4368,
			"target":34962
		},
		{
			"buffer":0,
			"byteLength":1456,
			"byteOffset":5824,
			"target":34962
		},
		{
			"buffer":0,
			"byteLength":1456,
			"byteOffset":7280,
			"target":34962
		},
		{
			"buffer":0,
			"byteLength":1456,
			"byteOffset":8736,
			"target":34962
		},
		{
			"buffer":0,
			"byteLength":1456,
			"byteOffset":10192,
			"target":34962
		},
		{
			"buffer":0,
			"byteLength":1020,
			"byteOffset":11648,
			"target":34963
		},
		{
			"buffer":0,
			"byteLength":288,
			"byteOffset":12668,
			"target":34962
		},
		{
			"buffer":0,
			"byteLength":288,
			"byteOffset":12956,
			"target":34962
		},
		{
			"buffer":0,
			"byteLength":192,
			"byteOffset":13244,
			"target":34962
		},
		{
			"buffer":0,
			"byteLength":72,
			"byteOffset":13436,
			"target":34963
		}
	],
	"samplers":[
		{
			"magFilter":9729,
			"minFilter":9987
		}
	],
	"buffers":[
		{
			"byteLength":13508,
			"uri":"MeCo_Small_Display.bin"
		}
	]
}
