{
	"asset":{
		"generator":"Khronos glTF Blender I/O v4.0.44",
		"version":"2.0"
	},
	"extensionsUsed":[
		"KHR_materials_specular",
		"KHR_materials_ior"
	],
	"scene":0,
	"scenes":[
		{
			"extras":{
				"created_collider":{},
				"max_samples":150,
				"uuid":"e1bf76d0-8642-457f-a6f6-891b504d4e51",
				"assets reported":{}
			},
			"name":"Scene",
			"nodes":[
				2
			]
		}
	],
	"nodes":[
		{
			"extras":{
				"MapChannel:1":"UVChannel_1",
				"MapChannel:2":"UVChannel_2",
				"MapChannel:3":"UVMap",
				"MapChannel:4":"UVMap.001",
				"MapChannel:5":"Lightmap",
				"MaxHandle":23
			},
			"mesh":0,
			"name":"MeCo_Gravel_Small.001",
			"scale":[
				0.01274688821285963,
				0.01274688821285963,
				0.01274688821285963
			],
			"translation":[
				-0.0018983802292495966,
				0.18972119688987732,
				0.0633317306637764
			]
		},
		{
			"extras":{
				"xrengine.EE_collider.shape":"box",
				"xrengine.entity":"MeCo_Gravel_Small_bcol"
			},
			"mesh":1,
			"name":"MeCo_Gravel_Small_bcol"
		},
		{
			"children":[
				0,
				1
			],
			"extras":{
				"xrengine.EE_rigidbody.type":"fixed",
				"xrengine.entity":"Memphis_Courtyard_Props"
			},
			"name":"MeCo_Gravel_Small"
		}
	],
	"materials":[
		{
			"doubleSided":true,
			"extensions":{
				"KHR_materials_specular":{
					"specularColorFactor":[
						2.0,
						2.0,
						2.0
					]
				},
				"KHR_materials_ior":{
					"ior":1.4500000476837158
				}
			},
			"name":"Accent",
			"pbrMetallicRoughness":{
				"baseColorFactor":[
					0.010273154824972153,
					0.1539786159992218,
					0.4407196342945099,
					1
				],
				"metallicFactor":0,
				"roughnessFactor":0.5527864098548889
			}
		},
		{
			"doubleSided":true,
			"extensions":{
				"KHR_materials_specular":{
					"specularColorFactor":[
						2.0,
						2.0,
						2.0
					]
				},
				"KHR_materials_ior":{
					"ior":1.4500000476837158
				}
			},
			"name":"MeCo_Small_Display",
			"normalTexture":{
				"index":0
			},
			"pbrMetallicRoughness":{
				"baseColorTexture":{
					"index":1
				},
				"metallicFactor":0,
				"metallicRoughnessTexture":{
					"index":2
				}
			}
		}
	],
	"meshes":[
		{
			"name":"Mesh.013",
			"primitives":[
				{
					"attributes":{
						"POSITION":0,
						"NORMAL":1,
						"TEXCOORD_0":2,
						"TEXCOORD_1":3,
						"TEXCOORD_2":4,
						"TEXCOORD_3":5,
						"TEXCOORD_4":6
					},
					"indices":7,
					"material":0
				},
				{
					"attributes":{
						"POSITION":8,
						"NORMAL":9,
						"TEXCOORD_0":10,
						"TEXCOORD_1":11,
						"TEXCOORD_2":12,
						"TEXCOORD_3":13,
						"TEXCOORD_4":14
					},
					"indices":15,
					"material":1
				}
			]
		},
		{
			"name":"Cube.003",
			"primitives":[
				{
					"attributes":{
						"POSITION":16,
						"NORMAL":17,
						"TEXCOORD_0":18
					},
					"indices":19
				}
			]
		}
	],
	"textures":[
		{
			"sampler":0,
			"source":0
		},
		{
			"sampler":0,
			"source":1
		},
		{
			"sampler":0,
			"source":2
		}
	],
	"images":[
		{
			"mimeType":"image/png",
			"name":"block_folly_Norm",
			"uri":"block_folly_Norm.png"
		},
		{
			"mimeType":"image/png",
			"name":"block_folly_AO",
			"uri":"block_folly_AO.png"
		},
		{
			"mimeType":"image/png",
			"name":"block_folly_Rough",
			"uri":"block_folly_Rough.png"
		}
	],
	"accessors":[
		{
			"bufferView":0,
			"componentType":5126,
			"count":592,
			"max":[
				94.99066925048828,
				6.350497245788574,
				146.1512908935547
			],
			"min":[
				-94.90697479248047,
				-11.669644355773926,
				-123.5797348022461
			],
			"type":"VEC3"
		},
		{
			"bufferView":1,
			"componentType":5126,
			"count":592,
			"type":"VEC3"
		},
		{
			"bufferView":2,
			"componentType":5126,
			"count":592,
			"type":"VEC2"
		},
		{
			"bufferView":3,
			"componentType":5126,
			"count":592,
			"type":"VEC2"
		},
		{
			"bufferView":4,
			"componentType":5126,
			"count":592,
			"type":"VEC2"
		},
		{
			"bufferView":5,
			"componentType":5126,
			"count":592,
			"type":"VEC2"
		},
		{
			"bufferView":6,
			"componentType":5126,
			"count":592,
			"type":"VEC2"
		},
		{
			"bufferView":7,
			"componentType":5123,
			"count":1194,
			"type":"SCALAR"
		},
		{
			"bufferView":8,
			"componentType":5126,
			"count":62472,
			"max":[
				86.66700744628906,
				3.7514610290527344,
				140.36000061035156
			],
			"min":[
				-86.4666748046875,
				-0.7623022198677063,
				-121.5442123413086
			],
			"type":"VEC3"
		},
		{
			"bufferView":9,
			"componentType":5126,
			"count":62472,
			"type":"VEC3"
		},
		{
			"bufferView":10,
			"componentType":5126,
			"count":62472,
			"type":"VEC2"
		},
		{
			"bufferView":11,
			"componentType":5126,
			"count":62472,
			"type":"VEC2"
		},
		{
			"bufferView":12,
			"componentType":5126,
			"count":62472,
			"type":"VEC2"
		},
		{
			"bufferView":13,
			"componentType":5126,
			"count":62472,
			"type":"VEC2"
		},
		{
			"bufferView":14,
			"componentType":5126,
			"count":62472,
			"type":"VEC2"
		},
		{
			"bufferView":15,
			"componentType":5123,
			"count":128745,
			"type":"SCALAR"
		},
		{
			"bufferView":16,
			"componentType":5126,
			"count":24,
			"max":[
				1.208937168121338,
				0.2706712484359741,
				1.9263060092926025
			],
			"min":[
				-1.2116670608520508,
				0.040968723595142365,
				-1.511925458908081
			],
			"type":"VEC3"
		},
		{
			"bufferView":17,
			"componentType":5126,
			"count":24,
			"type":"VEC3"
		},
		{
			"bufferView":18,
			"componentType":5126,
			"count":24,
			"type":"VEC2"
		},
		{
			"bufferView":19,
			"componentType":5123,
			"count":36,
			"type":"SCALAR"
		}
	],
	"bufferViews":[
		{
			"buffer":0,
			"byteLength":7104,
			"byteOffset":0,
			"target":34962
		},
		{
			"buffer":0,
			"byteLength":7104,
			"byteOffset":7104,
			"target":34962
		},
		{
			"buffer":0,
			"byteLength":4736,
			"byteOffset":14208,
			"target":34962
		},
		{
			"buffer":0,
			"byteLength":4736,
			"byteOffset":18944,
			"target":34962
		},
		{
			"buffer":0,
			"byteLength":4736,
			"byteOffset":23680,
			"target":34962
		},
		{
			"buffer":0,
			"byteLength":4736,
			"byteOffset":28416,
			"target":34962
		},
		{
			"buffer":0,
			"byteLength":4736,
			"byteOffset":33152,
			"target":34962
		},
		{
			"buffer":0,
			"byteLength":2388,
			"byteOffset":37888,
			"target":34963
		},
		{
			"buffer":0,
			"byteLength":749664,
			"byteOffset":40276,
			"target":34962
		},
		{
			"buffer":0,
			"byteLength":749664,
			"byteOffset":789940,
			"target":34962
		},
		{
			"buffer":0,
			"byteLength":499776,
			"byteOffset":1539604,
			"target":34962
		},
		{
			"buffer":0,
			"byteLength":499776,
			"byteOffset":2039380,
			"target":34962
		},
		{
			"buffer":0,
			"byteLength":499776,
			"byteOffset":2539156,
			"target":34962
		},
		{
			"buffer":0,
			"byteLength":499776,
			"byteOffset":3038932,
			"target":34962
		},
		{
			"buffer":0,
			"byteLength":499776,
			"byteOffset":3538708,
			"target":34962
		},
		{
			"buffer":0,
			"byteLength":257490,
			"byteOffset":4038484,
			"target":34963
		},
		{
			"buffer":0,
			"byteLength":288,
			"byteOffset":4295976,
			"target":34962
		},
		{
			"buffer":0,
			"byteLength":288,
			"byteOffset":4296264,
			"target":34962
		},
		{
			"buffer":0,
			"byteLength":192,
			"byteOffset":4296552,
			"target":34962
		},
		{
			"buffer":0,
			"byteLength":72,
			"byteOffset":4296744,
			"target":34963
		}
	],
	"samplers":[
		{
			"magFilter":9729,
			"minFilter":9987
		}
	],
	"buffers":[
		{
			"byteLength":4296816,
			"uri":"MeCo_Gravel_Small.bin"
		}
	]
}
