{
	"asset":{
		"generator":"Khronos glTF Blender I/O v4.0.44",
		"version":"2.0"
	},
	"extensionsUsed":[
		"KHR_materials_specular",
		"KHR_materials_ior"
	],
	"scene":0,
	"scenes":[
		{
			"extras":{
				"created_collider":{},
				"max_samples":150,
				"uuid":"e1bf76d0-8642-457f-a6f6-891b504d4e51",
				"assets reported":{}
			},
			"name":"Scene",
			"nodes":[
				2
			]
		}
	],
	"nodes":[
		{
			"extras":{
				"MapChannel:1":"UVChannel_1",
				"MapChannel:2":"UVChannel_2",
				"MapChannel:3":"UVMap",
				"MapChannel:4":"UVMap.001",
				"MapChannel:5":"Lightmap",
				"MaxHandle":18
			},
			"mesh":0,
			"name":"MeCo_Medium_Display.001",
			"scale":[
				0.01274688821285963,
				0.01274688821285963,
				0.01274688821285963
			],
			"translation":[
				-0.001214562333188951,
				0.6001636981964111,
				0.0006026938208378851
			]
		},
		{
			"extras":{
				"xrengine.EE_collider.shape":"box",
				"xrengine.entity":"MeCo_Medium_Display_bcol"
			},
			"mesh":1,
			"name":"MeCo_Medium_Display_bcol"
		},
		{
			"children":[
				0,
				1
			],
			"extras":{
				"xrengine.EE_rigidbody.type":"fixed",
				"xrengine.entity":"Memphis_Courtyard_Props"
			},
			"name":"MeCo_Medium_Display"
		}
	],
	"materials":[
		{
			"doubleSided":true,
			"extensions":{
				"KHR_materials_specular":{
					"specularColorFactor":[
						2.0,
						2.0,
						2.0
					]
				},
				"KHR_materials_ior":{
					"ior":1.4500000476837158
				}
			},
			"name":"Accent",
			"pbrMetallicRoughness":{
				"baseColorFactor":[
					0.010273154824972153,
					0.1539786159992218,
					0.4407196342945099,
					1
				],
				"metallicFactor":0,
				"roughnessFactor":0.5527864098548889
			}
		},
		{
			"doubleSided":true,
			"extensions":{
				"KHR_materials_specular":{
					"specularColorFactor":[
						2.0,
						2.0,
						2.0
					]
				},
				"KHR_materials_ior":{
					"ior":1.4500000476837158
				}
			},
			"name":"MeCo_Small_Display",
			"normalTexture":{
				"index":0
			},
			"pbrMetallicRoughness":{
				"baseColorTexture":{
					"index":1
				},
				"metallicFactor":0,
				"metallicRoughnessTexture":{
					"index":2
				}
			}
		}
	],
	"meshes":[
		{
			"name":"Mesh.008",
			"primitives":[
				{
					"attributes":{
						"POSITION":0,
						"NORMAL":1,
						"TEXCOORD_0":2,
						"TEXCOORD_1":3,
						"TEXCOORD_2":4,
						"TEXCOORD_3":5,
						"TEXCOORD_4":6
					},
					"indices":7,
					"material":0
				},
				{
					"attributes":{
						"POSITION":8,
						"NORMAL":9,
						"TEXCOORD_0":10,
						"TEXCOORD_1":11,
						"TEXCOORD_2":12,
						"TEXCOORD_3":13,
						"TEXCOORD_4":14
					},
					"indices":15,
					"material":1
				}
			]
		},
		{
			"name":"Cube.001",
			"primitives":[
				{
					"attributes":{
						"POSITION":16,
						"NORMAL":17,
						"TEXCOORD_0":18
					},
					"indices":19
				}
			]
		}
	],
	"textures":[
		{
			"sampler":0,
			"source":0
		},
		{
			"sampler":0,
			"source":1
		},
		{
			"sampler":0,
			"source":2
		}
	],
	"images":[
		{
			"mimeType":"image/png",
			"name":"block_folly_Norm",
			"uri":"block_folly_Norm.png"
		},
		{
			"mimeType":"image/png",
			"name":"block_folly_AO",
			"uri":"block_folly_AO.png"
		},
		{
			"mimeType":"image/png",
			"name":"block_folly_Rough",
			"uri":"block_folly_Rough.png"
		}
	],
	"accessors":[
		{
			"bufferView":0,
			"componentType":5126,
			"count":512,
			"max":[
				79.8823013305664,
				-19.382753372192383,
				79.7396469116211
			],
			"min":[
				-79.69136810302734,
				-31.007280349731445,
				-79.83402252197266
			],
			"type":"VEC3"
		},
		{
			"bufferView":1,
			"componentType":5126,
			"count":512,
			"type":"VEC3"
		},
		{
			"bufferView":2,
			"componentType":5126,
			"count":512,
			"type":"VEC2"
		},
		{
			"bufferView":3,
			"componentType":5126,
			"count":512,
			"type":"VEC2"
		},
		{
			"bufferView":4,
			"componentType":5126,
			"count":512,
			"type":"VEC2"
		},
		{
			"bufferView":5,
			"componentType":5126,
			"count":512,
			"type":"VEC2"
		},
		{
			"bufferView":6,
			"componentType":5126,
			"count":512,
			"type":"VEC2"
		},
		{
			"bufferView":7,
			"componentType":5123,
			"count":1200,
			"type":"SCALAR"
		},
		{
			"bufferView":8,
			"componentType":5126,
			"count":228,
			"max":[
				71.38534545898438,
				40.37712097167969,
				71.2426528930664
			],
			"min":[
				-71.19435119628906,
				-21.688180923461914,
				-71.33707427978516
			],
			"type":"VEC3"
		},
		{
			"bufferView":9,
			"componentType":5126,
			"count":228,
			"type":"VEC3"
		},
		{
			"bufferView":10,
			"componentType":5126,
			"count":228,
			"type":"VEC2"
		},
		{
			"bufferView":11,
			"componentType":5126,
			"count":228,
			"type":"VEC2"
		},
		{
			"bufferView":12,
			"componentType":5126,
			"count":228,
			"type":"VEC2"
		},
		{
			"bufferView":13,
			"componentType":5126,
			"count":228,
			"type":"VEC2"
		},
		{
			"bufferView":14,
			"componentType":5126,
			"count":228,
			"type":"VEC2"
		},
		{
			"bufferView":15,
			"componentType":5123,
			"count":630,
			"type":"SCALAR"
		},
		{
			"bufferView":16,
			"componentType":5126,
			"count":24,
			"max":[
				1.0170361995697021,
				1.1148463487625122,
				1.0170350074768066
			],
			"min":[
				-1.0170314311981201,
				0.20491734147071838,
				-1.0170326232910156
			],
			"type":"VEC3"
		},
		{
			"bufferView":17,
			"componentType":5126,
			"count":24,
			"type":"VEC3"
		},
		{
			"bufferView":18,
			"componentType":5126,
			"count":24,
			"type":"VEC2"
		},
		{
			"bufferView":19,
			"componentType":5123,
			"count":36,
			"type":"SCALAR"
		}
	],
	"bufferViews":[
		{
			"buffer":0,
			"byteLength":6144,
			"byteOffset":0,
			"target":34962
		},
		{
			"buffer":0,
			"byteLength":6144,
			"byteOffset":6144,
			"target":34962
		},
		{
			"buffer":0,
			"byteLength":4096,
			"byteOffset":12288,
			"target":34962
		},
		{
			"buffer":0,
			"byteLength":4096,
			"byteOffset":16384,
			"target":34962
		},
		{
			"buffer":0,
			"byteLength":4096,
			"byteOffset":20480,
			"target":34962
		},
		{
			"buffer":0,
			"byteLength":4096,
			"byteOffset":24576,
			"target":34962
		},
		{
			"buffer":0,
			"byteLength":4096,
			"byteOffset":28672,
			"target":34962
		},
		{
			"buffer":0,
			"byteLength":2400,
			"byteOffset":32768,
			"target":34963
		},
		{
			"buffer":0,
			"byteLength":2736,
			"byteOffset":35168,
			"target":34962
		},
		{
			"buffer":0,
			"byteLength":2736,
			"byteOffset":37904,
			"target":34962
		},
		{
			"buffer":0,
			"byteLength":1824,
			"byteOffset":40640,
			"target":34962
		},
		{
			"buffer":0,
			"byteLength":1824,
			"byteOffset":42464,
			"target":34962
		},
		{
			"buffer":0,
			"byteLength":1824,
			"byteOffset":44288,
			"target":34962
		},
		{
			"buffer":0,
			"byteLength":1824,
			"byteOffset":46112,
			"target":34962
		},
		{
			"buffer":0,
			"byteLength":1824,
			"byteOffset":47936,
			"target":34962
		},
		{
			"buffer":0,
			"byteLength":1260,
			"byteOffset":49760,
			"target":34963
		},
		{
			"buffer":0,
			"byteLength":288,
			"byteOffset":51020,
			"target":34962
		},
		{
			"buffer":0,
			"byteLength":288,
			"byteOffset":51308,
			"target":34962
		},
		{
			"buffer":0,
			"byteLength":192,
			"byteOffset":51596,
			"target":34962
		},
		{
			"buffer":0,
			"byteLength":72,
			"byteOffset":51788,
			"target":34963
		}
	],
	"samplers":[
		{
			"magFilter":9729,
			"minFilter":9987
		}
	],
	"buffers":[
		{
			"byteLength":51860,
			"uri":"MeCo_Medium_Display.bin"
		}
	]
}
