{
	"asset":{
		"generator":"Khronos glTF Blender I/O v4.0.44",
		"version":"2.0"
	},
	"extensionsUsed":[
		"KHR_materials_specular",
		"KHR_materials_ior"
	],
	"scene":0,
	"scenes":[
		{
			"extras":{
				"created_collider":{},
				"max_samples":150,
				"uuid":"e1bf76d0-8642-457f-a6f6-891b504d4e51",
				"assets reported":{}
			},
			"name":"Scene",
			"nodes":[
				2
			]
		}
	],
	"nodes":[
		{
			"extras":{
				"MapChannel:1":"UVChannel_1",
				"MapChannel:2":"UVChannel_2",
				"MapChannel:3":"UVMap",
				"MapChannel:4":"UVMap.001",
				"MapChannel:5":"Lightmap",
				"MaxHandle":19
			},
			"mesh":0,
			"name":"MeCo_Gravel_Large.001",
			"scale":[
				0.01274688821285963,
				0.01274688821285963,
				0.01274688821285963
			],
			"translation":[
				-0.0022436045110225677,
				0.19574636220932007,
				-0.08162219077348709
			]
		},
		{
			"extras":{
				"xrengine.EE_collider.shape":"box",
				"xrengine.entity":"MeCo_Gravel_Large_bcol"
			},
			"mesh":1,
			"name":"MeCo_Gravel_Large_bcol"
		},
		{
			"children":[
				0,
				1
			],
			"extras":{
				"xrengine.EE_rigidbody.type":"fixed",
				"xrengine.entity":"Memphis_Courtyard_Props"
			},
			"name":"MeCo_Gravel_Large"
		}
	],
	"materials":[
		{
			"doubleSided":true,
			"extensions":{
				"KHR_materials_specular":{
					"specularColorFactor":[
						2.0,
						2.0,
						2.0
					]
				},
				"KHR_materials_ior":{
					"ior":1.4500000476837158
				}
			},
			"name":"MeCo_Small_Display",
			"normalTexture":{
				"index":0
			},
			"pbrMetallicRoughness":{
				"baseColorTexture":{
					"index":1
				},
				"metallicFactor":0,
				"metallicRoughnessTexture":{
					"index":2
				}
			}
		},
		{
			"doubleSided":true,
			"extensions":{
				"KHR_materials_specular":{
					"specularColorFactor":[
						2.0,
						2.0,
						2.0
					]
				},
				"KHR_materials_ior":{
					"ior":1.4500000476837158
				}
			},
			"name":"Floor",
			"pbrMetallicRoughness":{
				"baseColorFactor":[
					0.800000011920929,
					0.800000011920929,
					0.800000011920929,
					1
				],
				"metallicFactor":0,
				"metallicRoughnessTexture":{
					"index":3
				}
			}
		},
		{
			"doubleSided":true,
			"extensions":{
				"KHR_materials_specular":{
					"specularColorFactor":[
						2.0,
						2.0,
						2.0
					]
				},
				"KHR_materials_ior":{
					"ior":1.4500000476837158
				}
			},
			"name":"Accent",
			"pbrMetallicRoughness":{
				"baseColorFactor":[
					0.010273154824972153,
					0.1539786159992218,
					0.4407196342945099,
					1
				],
				"metallicFactor":0,
				"roughnessFactor":0.5527864098548889
			}
		}
	],
	"meshes":[
		{
			"name":"Mesh.009",
			"primitives":[
				{
					"attributes":{
						"POSITION":0,
						"NORMAL":1,
						"TEXCOORD_0":2,
						"TEXCOORD_1":3,
						"TEXCOORD_2":4,
						"TEXCOORD_3":5,
						"TEXCOORD_4":6,
						"TEXCOORD_5":7,
						"TEXCOORD_6":8,
						"TEXCOORD_7":9
					},
					"indices":10,
					"material":0
				},
				{
					"attributes":{
						"POSITION":11,
						"NORMAL":12,
						"TEXCOORD_0":13,
						"TEXCOORD_1":14,
						"TEXCOORD_2":15,
						"TEXCOORD_3":16,
						"TEXCOORD_4":17,
						"TEXCOORD_5":18,
						"TEXCOORD_6":19,
						"TEXCOORD_7":20
					},
					"indices":21,
					"material":1
				},
				{
					"attributes":{
						"POSITION":22,
						"NORMAL":23,
						"TEXCOORD_0":24,
						"TEXCOORD_1":25,
						"TEXCOORD_2":26,
						"TEXCOORD_3":27,
						"TEXCOORD_4":28,
						"TEXCOORD_5":29,
						"TEXCOORD_6":30,
						"TEXCOORD_7":31
					},
					"indices":32,
					"material":2
				}
			]
		},
		{
			"name":"Cube.004",
			"primitives":[
				{
					"attributes":{
						"POSITION":33,
						"NORMAL":34,
						"TEXCOORD_0":35
					},
					"indices":36
				}
			]
		}
	],
	"textures":[
		{
			"sampler":0,
			"source":0
		},
		{
			"sampler":0,
			"source":1
		},
		{
			"sampler":0,
			"source":2
		},
		{
			"sampler":0,
			"source":2
		}
	],
	"images":[
		{
			"mimeType":"image/png",
			"name":"block_folly_Norm",
			"uri":"block_folly_Norm.png"
		},
		{
			"mimeType":"image/png",
			"name":"block_folly_AO",
			"uri":"block_folly_AO.png"
		},
		{
			"mimeType":"image/png",
			"name":"block_folly_Rough",
			"uri":"block_folly_Rough.png"
		}
	],
	"accessors":[
		{
			"bufferView":0,
			"componentType":5126,
			"count":59563,
			"max":[
				83.73445129394531,
				2.1333513259887695,
				184.1293182373047
			],
			"min":[
				-84.89985656738281,
				-0.9380903840065002,
				-156.35072326660156
			],
			"type":"VEC3"
		},
		{
			"bufferView":1,
			"componentType":5126,
			"count":59563,
			"type":"VEC3"
		},
		{
			"bufferView":2,
			"componentType":5126,
			"count":59563,
			"type":"VEC2"
		},
		{
			"bufferView":3,
			"componentType":5126,
			"count":59563,
			"type":"VEC2"
		},
		{
			"bufferView":4,
			"componentType":5126,
			"count":59563,
			"type":"VEC2"
		},
		{
			"bufferView":5,
			"componentType":5126,
			"count":59563,
			"type":"VEC2"
		},
		{
			"bufferView":6,
			"componentType":5126,
			"count":59563,
			"type":"VEC2"
		},
		{
			"bufferView":7,
			"componentType":5126,
			"count":59563,
			"type":"VEC2"
		},
		{
			"bufferView":8,
			"componentType":5126,
			"count":59563,
			"type":"VEC2"
		},
		{
			"bufferView":9,
			"componentType":5126,
			"count":59563,
			"type":"VEC2"
		},
		{
			"bufferView":10,
			"componentType":5123,
			"count":167589,
			"type":"SCALAR"
		},
		{
			"bufferView":11,
			"componentType":5126,
			"count":192,
			"max":[
				70.46427917480469,
				5.069438934326172,
				71.83883666992188
			],
			"min":[
				-75.17327880859375,
				-5.142891883850098,
				-104.197998046875
			],
			"type":"VEC3"
		},
		{
			"bufferView":12,
			"componentType":5126,
			"count":192,
			"type":"VEC3"
		},
		{
			"bufferView":13,
			"componentType":5126,
			"count":192,
			"type":"VEC2"
		},
		{
			"bufferView":14,
			"componentType":5126,
			"count":192,
			"type":"VEC2"
		},
		{
			"bufferView":15,
			"componentType":5126,
			"count":192,
			"type":"VEC2"
		},
		{
			"bufferView":16,
			"componentType":5126,
			"count":192,
			"type":"VEC2"
		},
		{
			"bufferView":17,
			"componentType":5126,
			"count":192,
			"type":"VEC2"
		},
		{
			"bufferView":18,
			"componentType":5126,
			"count":192,
			"type":"VEC2"
		},
		{
			"bufferView":19,
			"componentType":5126,
			"count":192,
			"type":"VEC2"
		},
		{
			"bufferView":20,
			"componentType":5126,
			"count":192,
			"type":"VEC2"
		},
		{
			"bufferView":21,
			"componentType":5123,
			"count":270,
			"type":"SCALAR"
		},
		{
			"bufferView":22,
			"componentType":5126,
			"count":696,
			"max":[
				93.40091705322266,
				5.87782621383667,
				189.45411682128906
			],
			"min":[
				-96.18238067626953,
				-12.142313957214355,
				-160.45350646972656
			],
			"type":"VEC3"
		},
		{
			"bufferView":23,
			"componentType":5126,
			"count":696,
			"type":"VEC3"
		},
		{
			"bufferView":24,
			"componentType":5126,
			"count":696,
			"type":"VEC2"
		},
		{
			"bufferView":25,
			"componentType":5126,
			"count":696,
			"type":"VEC2"
		},
		{
			"bufferView":26,
			"componentType":5126,
			"count":696,
			"type":"VEC2"
		},
		{
			"bufferView":27,
			"componentType":5126,
			"count":696,
			"type":"VEC2"
		},
		{
			"bufferView":28,
			"componentType":5126,
			"count":696,
			"type":"VEC2"
		},
		{
			"bufferView":29,
			"componentType":5126,
			"count":696,
			"type":"VEC2"
		},
		{
			"bufferView":30,
			"componentType":5126,
			"count":696,
			"type":"VEC2"
		},
		{
			"bufferView":31,
			"componentType":5126,
			"count":696,
			"type":"VEC2"
		},
		{
			"bufferView":32,
			"componentType":5123,
			"count":1194,
			"type":"SCALAR"
		},
		{
			"bufferView":33,
			"componentType":5126,
			"count":24,
			"max":[
				1.188327431678772,
				0.2706716060638428,
				2.3333282470703125
			],
			"min":[
				-1.2282696962356567,
				0.04096856713294983,
				-2.1269049644470215
			],
			"type":"VEC3"
		},
		{
			"bufferView":34,
			"componentType":5126,
			"count":24,
			"type":"VEC3"
		},
		{
			"bufferView":35,
			"componentType":5126,
			"count":24,
			"type":"VEC2"
		},
		{
			"bufferView":36,
			"componentType":5123,
			"count":36,
			"type":"SCALAR"
		}
	],
	"bufferViews":[
		{
			"buffer":0,
			"byteLength":714756,
			"byteOffset":0,
			"target":34962
		},
		{
			"buffer":0,
			"byteLength":714756,
			"byteOffset":714756,
			"target":34962
		},
		{
			"buffer":0,
			"byteLength":476504,
			"byteOffset":1429512,
			"target":34962
		},
		{
			"buffer":0,
			"byteLength":476504,
			"byteOffset":1906016,
			"target":34962
		},
		{
			"buffer":0,
			"byteLength":476504,
			"byteOffset":2382520,
			"target":34962
		},
		{
			"buffer":0,
			"byteLength":476504,
			"byteOffset":2859024,
			"target":34962
		},
		{
			"buffer":0,
			"byteLength":476504,
			"byteOffset":3335528,
			"target":34962
		},
		{
			"buffer":0,
			"byteLength":476504,
			"byteOffset":3812032,
			"target":34962
		},
		{
			"buffer":0,
			"byteLength":476504,
			"byteOffset":4288536,
			"target":34962
		},
		{
			"buffer":0,
			"byteLength":476504,
			"byteOffset":4765040,
			"target":34962
		},
		{
			"buffer":0,
			"byteLength":335178,
			"byteOffset":5241544,
			"target":34963
		},
		{
			"buffer":0,
			"byteLength":2304,
			"byteOffset":5576724,
			"target":34962
		},
		{
			"buffer":0,
			"byteLength":2304,
			"byteOffset":5579028,
			"target":34962
		},
		{
			"buffer":0,
			"byteLength":1536,
			"byteOffset":5581332,
			"target":34962
		},
		{
			"buffer":0,
			"byteLength":1536,
			"byteOffset":5582868,
			"target":34962
		},
		{
			"buffer":0,
			"byteLength":1536,
			"byteOffset":5584404,
			"target":34962
		},
		{
			"buffer":0,
			"byteLength":1536,
			"byteOffset":5585940,
			"target":34962
		},
		{
			"buffer":0,
			"byteLength":1536,
			"byteOffset":5587476,
			"target":34962
		},
		{
			"buffer":0,
			"byteLength":1536,
			"byteOffset":5589012,
			"target":34962
		},
		{
			"buffer":0,
			"byteLength":1536,
			"byteOffset":5590548,
			"target":34962
		},
		{
			"buffer":0,
			"byteLength":1536,
			"byteOffset":5592084,
			"target":34962
		},
		{
			"buffer":0,
			"byteLength":540,
			"byteOffset":5593620,
			"target":34963
		},
		{
			"buffer":0,
			"byteLength":8352,
			"byteOffset":5594160,
			"target":34962
		},
		{
			"buffer":0,
			"byteLength":8352,
			"byteOffset":5602512,
			"target":34962
		},
		{
			"buffer":0,
			"byteLength":5568,
			"byteOffset":5610864,
			"target":34962
		},
		{
			"buffer":0,
			"byteLength":5568,
			"byteOffset":5616432,
			"target":34962
		},
		{
			"buffer":0,
			"byteLength":5568,
			"byteOffset":5622000,
			"target":34962
		},
		{
			"buffer":0,
			"byteLength":5568,
			"byteOffset":5627568,
			"target":34962
		},
		{
			"buffer":0,
			"byteLength":5568,
			"byteOffset":5633136,
			"target":34962
		},
		{
			"buffer":0,
			"byteLength":5568,
			"byteOffset":5638704,
			"target":34962
		},
		{
			"buffer":0,
			"byteLength":5568,
			"byteOffset":5644272,
			"target":34962
		},
		{
			"buffer":0,
			"byteLength":5568,
			"byteOffset":5649840,
			"target":34962
		},
		{
			"buffer":0,
			"byteLength":2388,
			"byteOffset":5655408,
			"target":34963
		},
		{
			"buffer":0,
			"byteLength":288,
			"byteOffset":5657796,
			"target":34962
		},
		{
			"buffer":0,
			"byteLength":288,
			"byteOffset":5658084,
			"target":34962
		},
		{
			"buffer":0,
			"byteLength":192,
			"byteOffset":5658372,
			"target":34962
		},
		{
			"buffer":0,
			"byteLength":72,
			"byteOffset":5658564,
			"target":34963
		}
	],
	"samplers":[
		{
			"magFilter":9729,
			"minFilter":9987
		}
	],
	"buffers":[
		{
			"byteLength":5658636,
			"uri":"MeCo_Gravel_Large.bin"
		}
	]
}
