{
	"asset":{
		"generator":"Khronos glTF Blender I/O v4.0.44",
		"version":"2.0"
	},
	"extensionsUsed":[
		"KHR_materials_specular",
		"KHR_materials_ior"
	],
	"scene":0,
	"scenes":[
		{
			"extras":{
				"created_collider":{},
				"max_samples":150,
				"uuid":"e1bf76d0-8642-457f-a6f6-891b504d4e51",
				"assets reported":{}
			},
			"name":"Scene",
			"nodes":[
				2
			]
		}
	],
	"nodes":[
		{
			"extras":{
				"MapChannel:1":"UVChannel_1",
				"MapChannel:2":"UVChannel_2",
				"MapChannel:3":"UVMap",
				"MapChannel:4":"UVMap.001",
				"MapChannel:5":"Lightmap",
				"MaxHandle":15
			},
			"mesh":0,
			"name":"MeCo_large_Display.001",
			"scale":[
				0.01274688821285963,
				0.01274688821285963,
				0.01274688821285963
			],
			"translation":[
				-0.01723211444914341,
				0.4888056218624115,
				0.01625082455575466
			]
		},
		{
			"extras":{
				"xrengine.EE_collider.shape":"box",
				"xrengine.entity":"MeCo_large_Display_bcol"
			},
			"mesh":1,
			"name":"MeCo_large_Display_bcol"
		},
		{
			"children":[
				0,
				1
			],
			"extras":{
				"xrengine.EE_rigidbody.type":"fixed",
				"xrengine.entity":"Memphis_Courtyard_Props"
			},
			"name":"MeCo_large_Display"
		}
	],
	"materials":[
		{
			"doubleSided":true,
			"extensions":{
				"KHR_materials_specular":{
					"specularColorFactor":[
						2.0,
						2.0,
						2.0
					]
				},
				"KHR_materials_ior":{
					"ior":1.4500000476837158
				}
			},
			"name":"MeCo_Small_Display",
			"normalTexture":{
				"index":0
			},
			"pbrMetallicRoughness":{
				"baseColorTexture":{
					"index":1
				},
				"metallicFactor":0,
				"metallicRoughnessTexture":{
					"index":2
				}
			}
		},
		{
			"doubleSided":true,
			"extensions":{
				"KHR_materials_specular":{
					"specularColorFactor":[
						2.0,
						2.0,
						2.0
					]
				},
				"KHR_materials_ior":{
					"ior":1.4500000476837158
				}
			},
			"name":"Accent",
			"pbrMetallicRoughness":{
				"baseColorFactor":[
					0.010273154824972153,
					0.1539786159992218,
					0.4407196342945099,
					1
				],
				"metallicFactor":0,
				"roughnessFactor":0.5527864098548889
			}
		}
	],
	"meshes":[
		{
			"name":"Mesh.001",
			"primitives":[
				{
					"attributes":{
						"POSITION":0,
						"NORMAL":1,
						"TEXCOORD_0":2,
						"TEXCOORD_1":3,
						"TEXCOORD_2":4,
						"TEXCOORD_3":5,
						"TEXCOORD_4":6
					},
					"indices":7,
					"material":0
				},
				{
					"attributes":{
						"POSITION":8,
						"NORMAL":9,
						"TEXCOORD_0":10,
						"TEXCOORD_1":11,
						"TEXCOORD_2":12,
						"TEXCOORD_3":13,
						"TEXCOORD_4":14
					},
					"indices":15,
					"material":1
				}
			]
		},
		{
			"name":"Cube",
			"primitives":[
				{
					"attributes":{
						"POSITION":16,
						"NORMAL":17,
						"TEXCOORD_0":18
					},
					"indices":19
				}
			]
		}
	],
	"textures":[
		{
			"sampler":0,
			"source":0
		},
		{
			"sampler":0,
			"source":1
		},
		{
			"sampler":0,
			"source":2
		}
	],
	"images":[
		{
			"mimeType":"image/png",
			"name":"block_folly_Norm",
			"uri":"block_folly_Norm.png"
		},
		{
			"mimeType":"image/png",
			"name":"block_folly_AO",
			"uri":"block_folly_AO.png"
		},
		{
			"mimeType":"image/png",
			"name":"block_folly_Rough",
			"uri":"block_folly_Rough.png"
		}
	],
	"accessors":[
		{
			"bufferView":0,
			"componentType":5126,
			"count":40459,
			"max":[
				131.57569885253906,
				70.70956420898438,
				133.35296630859375
			],
			"min":[
				-130.2746124267578,
				-19.198949813842773,
				-129.702392578125
			],
			"type":"VEC3"
		},
		{
			"bufferView":1,
			"componentType":5126,
			"count":40459,
			"type":"VEC3"
		},
		{
			"bufferView":2,
			"componentType":5126,
			"count":40459,
			"type":"VEC2"
		},
		{
			"bufferView":3,
			"componentType":5126,
			"count":40459,
			"type":"VEC2"
		},
		{
			"bufferView":4,
			"componentType":5126,
			"count":40459,
			"type":"VEC2"
		},
		{
			"bufferView":5,
			"componentType":5126,
			"count":40459,
			"type":"VEC2"
		},
		{
			"bufferView":6,
			"componentType":5126,
			"count":40459,
			"type":"VEC2"
		},
		{
			"bufferView":7,
			"componentType":5123,
			"count":111168,
			"type":"SCALAR"
		},
		{
			"bufferView":8,
			"componentType":5126,
			"count":834,
			"max":[
				140.53036499023438,
				11.659294128417969,
				140.7972869873047
			],
			"min":[
				-142.30380249023438,
				-35.03390884399414,
				-142.0369110107422
			],
			"type":"VEC3"
		},
		{
			"bufferView":9,
			"componentType":5126,
			"count":834,
			"type":"VEC3"
		},
		{
			"bufferView":10,
			"componentType":5126,
			"count":834,
			"type":"VEC2"
		},
		{
			"bufferView":11,
			"componentType":5126,
			"count":834,
			"type":"VEC2"
		},
		{
			"bufferView":12,
			"componentType":5126,
			"count":834,
			"type":"VEC2"
		},
		{
			"bufferView":13,
			"componentType":5126,
			"count":834,
			"type":"VEC2"
		},
		{
			"bufferView":14,
			"componentType":5126,
			"count":834,
			"type":"VEC2"
		},
		{
			"bufferView":15,
			"componentType":5123,
			"count":2160,
			"type":"SCALAR"
		},
		{
			"bufferView":16,
			"componentType":5126,
			"count":24,
			"max":[
				1.7740929126739502,
				1.3901335000991821,
				1.8109784126281738
			],
			"min":[
				-1.831162691116333,
				0.04223132133483887,
				-1.7942781448364258
			],
			"type":"VEC3"
		},
		{
			"bufferView":17,
			"componentType":5126,
			"count":24,
			"type":"VEC3"
		},
		{
			"bufferView":18,
			"componentType":5126,
			"count":24,
			"type":"VEC2"
		},
		{
			"bufferView":19,
			"componentType":5123,
			"count":36,
			"type":"SCALAR"
		}
	],
	"bufferViews":[
		{
			"buffer":0,
			"byteLength":485508,
			"byteOffset":0,
			"target":34962
		},
		{
			"buffer":0,
			"byteLength":485508,
			"byteOffset":485508,
			"target":34962
		},
		{
			"buffer":0,
			"byteLength":323672,
			"byteOffset":971016,
			"target":34962
		},
		{
			"buffer":0,
			"byteLength":323672,
			"byteOffset":1294688,
			"target":34962
		},
		{
			"buffer":0,
			"byteLength":323672,
			"byteOffset":1618360,
			"target":34962
		},
		{
			"buffer":0,
			"byteLength":323672,
			"byteOffset":1942032,
			"target":34962
		},
		{
			"buffer":0,
			"byteLength":323672,
			"byteOffset":2265704,
			"target":34962
		},
		{
			"buffer":0,
			"byteLength":222336,
			"byteOffset":2589376,
			"target":34963
		},
		{
			"buffer":0,
			"byteLength":10008,
			"byteOffset":2811712,
			"target":34962
		},
		{
			"buffer":0,
			"byteLength":10008,
			"byteOffset":2821720,
			"target":34962
		},
		{
			"buffer":0,
			"byteLength":6672,
			"byteOffset":2831728,
			"target":34962
		},
		{
			"buffer":0,
			"byteLength":6672,
			"byteOffset":2838400,
			"target":34962
		},
		{
			"buffer":0,
			"byteLength":6672,
			"byteOffset":2845072,
			"target":34962
		},
		{
			"buffer":0,
			"byteLength":6672,
			"byteOffset":2851744,
			"target":34962
		},
		{
			"buffer":0,
			"byteLength":6672,
			"byteOffset":2858416,
			"target":34962
		},
		{
			"buffer":0,
			"byteLength":4320,
			"byteOffset":2865088,
			"target":34963
		},
		{
			"buffer":0,
			"byteLength":288,
			"byteOffset":2869408,
			"target":34962
		},
		{
			"buffer":0,
			"byteLength":288,
			"byteOffset":2869696,
			"target":34962
		},
		{
			"buffer":0,
			"byteLength":192,
			"byteOffset":2869984,
			"target":34962
		},
		{
			"buffer":0,
			"byteLength":72,
			"byteOffset":2870176,
			"target":34963
		}
	],
	"samplers":[
		{
			"magFilter":9729,
			"minFilter":9987
		}
	],
	"buffers":[
		{
			"byteLength":2870248,
			"uri":"MeCo_large_Display.bin"
		}
	]
}
