{
	"asset":{
		"generator":"Khronos glTF Blender I/O v4.0.44",
		"version":"2.0"
	},
	"scene":0,
	"scenes":[
		{
			"extras":{
				"sun_pos_properties":{
					"show_surface":0,
					"show_analemmas":0,
					"show_north":0,
					"latitude":0.0,
					"day_of_year":280,
					"sun_object":null,
					"object_collection":{},
					"sky_texture":"Pure-Sky Texture",
					"time":7.0,
					"longitude":0.0,
					"north_offset":1.0299999713897705,
					"use_refraction":1,
					"sun_distance":50.0,
					"use_day_of_year":1,
					"day":7,
					"month":10,
					"year":2022,
					"UTC_zone":0.0,
					"use_daylight_savings":0
				},
				"true_sky":{
					"presets":{
						"full_sky_preset":{
							"presets":[
								{
									"name":"Default",
									"display_name":"Default"
								},
								{
									"name":"Morning",
									"display_name":"Morning"
								},
								{
									"name":"Mid-Morning",
									"display_name":"Mid-Morning"
								},
								{
									"name":"Midday",
									"display_name":"Midday"
								},
								{
									"name":"Azure Afternoon",
									"display_name":"Azure Afternoon"
								},
								{
									"name":"Dusty Afternoon",
									"display_name":"Dusty Afternoon"
								},
								{
									"name":"Dusk",
									"display_name":"Dusk"
								},
								{
									"name":"Dusty Dusk",
									"display_name":"Dusty Dusk"
								},
								{
									"name":"Alien Morning",
									"display_name":"Alien Morning"
								},
								{
									"name":"Alien Gas Desert",
									"display_name":"Alien Gas Desert"
								},
								{
									"name":"Alien Day",
									"display_name":"Alien Day"
								},
								{
									"name":"Mars",
									"display_name":"Mars"
								}
							]
						},
						"time_preset":{
							"presets":[
								{
									"name":"Sunrise",
									"display_name":"Sunrise"
								},
								{
									"name":"Morning - Golden Hour End",
									"display_name":"Morning - Golden Hour End"
								},
								{
									"name":"Mid-Morning",
									"display_name":"Mid-Morning"
								},
								{
									"name":"Noon",
									"display_name":"Noon"
								},
								{
									"name":"Afternoon",
									"display_name":"Afternoon"
								},
								{
									"name":"Evening - Golden Hour Start",
									"display_name":"Evening - Golden Hour Start"
								},
								{
									"name":"Sunset",
									"display_name":"Sunset"
								}
							]
						},
						"sol_hsv_preset":{
							"presets":[
								{
									"name":"Base",
									"display_name":"Base"
								},
								{
									"name":"Test",
									"display_name":"Mars"
								},
								{
									"name":"Venus",
									"display_name":"Venus"
								},
								{
									"name":"Saturated",
									"display_name":"Saturated"
								},
								{
									"name":"Desaturated",
									"display_name":"Desaturated"
								}
							]
						},
						"atmosphere_preset":{
							"presets":[
								{
									"name":"Clear",
									"display_name":"Clear"
								},
								{
									"name":"Dusty",
									"display_name":"Dusty"
								}
							]
						},
						"haze_preset":{
							"presets":[
								{
									"name":"Clear",
									"display_name":"Clear"
								},
								{
									"name":"Polluted",
									"display_name":"Polluted"
								},
								{
									"name":"Drab",
									"display_name":"Drab"
								},
								{
									"name":"Other",
									"display_name":"Mars"
								},
								{
									"name":"Green",
									"display_name":"Green"
								}
							]
						},
						"fog_preset":{
							"presets":[
								{
									"name":"Fog Clear",
									"display_name":"Fog Clear"
								},
								{
									"name":"Fog Dense",
									"display_name":"Fog Dense"
								},
								{
									"name":"",
									"display_name":"Fog Blanket"
								},
								{
									"name":"Fog Stormy",
									"display_name":"Fog Stormy"
								},
								{
									"name":"Fog (Sandy)",
									"display_name":"Fog (Sandy/Dust)"
								}
							]
						},
						"night_sky_preset":{
							"presets":[
								{
									"name":"Test",
									"display_name":"Clear Night"
								},
								{
									"name":"Clear Night w/o Moon",
									"display_name":"Clear Night w/o Moon"
								},
								{
									"name":"Test 2",
									"display_name":"Hazy Night"
								},
								{
									"name":"Hazy Night w/o Moon",
									"display_name":"Hazy Night w/o Moon"
								}
							]
						},
						"night_hdris_preset":{
							"presets":[
								{
									"name":"Earth Night",
									"display_name":"Earth Night"
								},
								{
									"name":"Interstellar Nursery",
									"display_name":"Interstellar Nursery"
								},
								{
									"name":"Black Hole",
									"display_name":"Black Hole"
								},
								{
									"name":"Blue Nebula",
									"display_name":"Blue Nebula"
								},
								{
									"name":"Red Nebula",
									"display_name":"Blue Clouds"
								},
								{
									"name":"Red Gas",
									"display_name":"Red Gas"
								},
								{
									"name":"Great Portal",
									"display_name":"Great Portal"
								},
								{
									"name":"Orange Nebula",
									"display_name":"Orange Nebula"
								}
							]
						},
						"moon_preset":{
							"presets":[
								{
									"name":"Base",
									"display_name":"Earth Moon"
								},
								{
									"name":"Super Moon",
									"display_name":"Super Moon"
								}
							]
						},
						"moon_phase_preset":{
							"presets":[
								{
									"name":"Waxing Crescent",
									"display_name":"Waxing Crescent"
								},
								{
									"name":"First Quarter",
									"display_name":"First Quarter"
								},
								{
									"name":"Waxing Gibbous",
									"display_name":"Waxing Gibbous"
								},
								{
									"name":"Full",
									"display_name":"Full"
								},
								{
									"name":"Waning Gibbous",
									"display_name":"Waning Gibbous"
								},
								{
									"name":"Third Quarter",
									"display_name":"Third Quarter"
								},
								{
									"name":"Waning Crescent",
									"display_name":"Waning Crescent"
								}
							]
						},
						"nebula_preset":{
							"presets":[
								{
									"name":"Base",
									"display_name":"Base"
								},
								{
									"name":"Pale Wisp",
									"display_name":"Pale Wisp"
								},
								{
									"name":"Golden Flares",
									"display_name":"Golden Flares"
								}
							]
						},
						"stars_preset":{
							"presets":[
								{
									"name":"Base",
									"display_name":"Base"
								},
								{
									"name":"Deep Space",
									"display_name":"Deep Space"
								},
								{
									"name":"Starry Night",
									"display_name":"Starry Night"
								}
							]
						},
						"night_clarity_preset":{
							"presets":[
								{
									"name":"Base",
									"display_name":"Base"
								},
								{
									"name":"Intense",
									"display_name":"City Lights"
								}
							]
						},
						"cloud_preset":{
							"presets":[
								{
									"name":"tVFX_Clouds-Stratocumulus",
									"display_name":"Stratocumulus"
								},
								{
									"name":"tVFX_Clouds-Cumulus Mediocris",
									"display_name":"Cumulus Mediocris"
								},
								{
									"name":"tVFX_Clouds-Cumulonimbus",
									"display_name":"Cumulonimbus"
								},
								{
									"name":"tVFX_Clouds-Cirrus",
									"display_name":"Cirrus"
								},
								{
									"name":"tVFX_Clouds-Altostratus Translucidus",
									"display_name":"Altostratus Translucidus"
								},
								{
									"name":"tVFX_Clouds-Altostratus Opacus",
									"display_name":"Altostratus Opacus"
								},
								{
									"name":"tVFX_Clouds-Altocumulus",
									"display_name":"Altocumulus"
								}
							]
						}
					},
					"performance":{
						"performance_items":[
							{
								"name":"Testing"
							},
							{
								"name":"Viewport Render Region"
							},
							{
								"name":"Pixel Size"
							},
							{
								"name":"Tile Size"
							},
							{
								"name":"True-Speed"
							}
						]
					}
				},
				"puresky_properties":{
					"int_flag_updt_camera":0,
					"int_type_puresky":0,
					"int_camera_clipend":1000,
					"int_world_clipend":1000,
					"fl_cy_sun_intensity":0.30000001192092896,
					"fl_cy_sky_stars_gamma":1.5,
					"bool_cy_hlc_link":1,
					"bool_cy_mlc_link":1,
					"bool_cy_llc_link":1,
					"bool_cy_scc_link":0,
					"int_cycle_volume_max_step":10,
					"int_cycle_volume_bounces":0,
					"fl_cycles_sun_angle":59.240509033203125,
					"float_cycles_time_day":7.0,
					"int_cycles_day_of_year":280,
					"bool_cycles_use_day_of_year":1,
					"int_cycles_day":7,
					"int_cycles_month":10,
					"int_cycles_year":2022,
					"float_cycles_utc":0.0,
					"int_cycle_sample_viewport":10,
					"int_cycle_sample_render":10,
					"bool_fast_gi":0,
					"fl_fast_gi_ao_factor":1.0,
					"fl_cy_anim_anime":0.0,
					"cy_hlc_mask_image":{
						"name":"Paint Mask HLC 0",
						"type":"Image"
					},
					"cy_mlc_mask_image":{
						"name":"Paint Mask MLC",
						"type":"Image"
					},
					"cy_llc_mask_image":{
						"name":"Paint Mask LLC",
						"type":"Image"
					},
					"bool_render_region":0,
					"str_quality_mode":"FastGI",
					"fl_latitude":0.0,
					"fl_longitude":0.0,
					"flvec_cy_psp_pure_sky_texture_day":[
						0.20000000298023224,
						0.3200030028820038,
						0.5,
						1.0
					],
					"flvec_cy_psp_pure_sky_texture_night":[
						0.0,
						0.008000059984624386,
						0.019999999552965164,
						1.0
					],
					"flvec_cy_psp_pure_sky_texture_sunrise":[
						0.5,
						0.5,
						0.5,
						1.0
					],
					"flvec_cy_psp_pure_sky_texture_day_ground":[
						1.0,
						1.0,
						1.0,
						1.0
					],
					"flvec_cy_psp_pure_sky_texture_night_ground":[
						0.0,
						0.008115420117974281,
						0.020288599655032158,
						1.0
					],
					"flvec_cy_psp_pure_sky_texture_sunrise_ground":[
						0.05000000074505806,
						0.0700002983212471,
						0.10000000149011612,
						1.0
					],
					"flvec_cy_psp_pure_sky_texture_night_sky_glow":[
						0.11999999731779099,
						0.1920109987258911,
						0.30000001192092896,
						1.0
					],
					"fl_cy_psp_pure_sky_texture_night_sky_duration":1.0,
					"fl_cy_psp_pure_sky_texture_air":1.0,
					"fl_cy_psp_pure_sky_texture_dust":0.20000000298023224,
					"fl_cy_psp_pure_sky_texture_ozone":2.0,
					"fl_cy_psp_pure_sky_texture_altitude":1.5,
					"fl_cy_psp_pure_sky_texture_ground":0.20000000298023224,
					"fl_cy_psp_pure_sky_texture_day_brightness":0.5,
					"fl_cy_psp_pure_sky_texture_night_brightness":0.5,
					"fl_cy_psp_pure_sky_texture_sunrise_brightness":0.5,
					"fl_cy_psp_pure_sky_texture_sunrise_duration":0.5,
					"fl_cy_psp_pure_sky_texture_day_in_light":0.0,
					"fl_cy_psp_pure_sky_texture_night_in_light":1.0,
					"fl_cy_psp_pure_sky_texture_sunrise_in_light":1.0,
					"flvec_cy_psp_pure_sky_texture_ozone":[
						0.02500000037252903,
						0.035003699362277985,
						0.05000000074505806,
						1.0
					],
					"fl_cy_psp_pure_sky_texture_display_ozone":0.0,
					"fl_cy_psp_pure_sky_texture_ozone_altitude":10.0,
					"flvec_cy_psp_pure_sky_texture_stars":[
						1.0,
						1.0,
						1.0,
						1.0
					],
					"fl_cy_psp_pure_sky_texture_stars_gamma":1.5,
					"fl_cy_psp_pure_sky_texture_display_space":1.0,
					"fl_cy_psp_pure_sky_texture_space_altitude":200.0,
					"fl_cy_psp_pure_sky_texture_daytime_stars":0.05000000074505806,
					"flvec_cy_psp_pure_sky_texture_stars_texture":[
						0.0,
						0.0,
						1.0
					]
				},
				"HubsComponentsExtensionProperties":{},
				"hubs_component_list":{},
				"recast_navmesh":{},
				"scatter_properties":{},
				"rflow_props":{},
				"expanded1":1,
				"expanded_sky_manage":1,
				"sna_icongallery":18,
				"srr_settings":{
					"status":{
						"is_rendering":0,
						"should_stop":0
					}
				},
				"uuid":"8caa54dd-f6ed-4e73-975c-3fb2c97cc894",
				"assets reported":{}
			},
			"name":"Scene",
			"nodes":[
				2
			]
		}
	],
	"nodes":[
		{
			"extras":{
				"hubs_component_list":{},
				"Treezy":{},
				"curvebash":{}
			},
			"mesh":0,
			"name":"NMS_Display_platform_03",
			"translation":[
				0,
				0.10000002384185791,
				0
			]
		},
		{
			"extras":{
				"xrengine.entity":"NMS_Display_platform_03_Box_Collider",
				"xrengine.EE_collider.shape":"box"
			},
			"mesh":1,
			"name":"NMS_Display_platform_03_Box_Collider",
			"rotation":[
				-0.7071067094802856,
				0,
				-0.7071068286895752,
				7.359923870353668e-08
			],
			"scale":[
				2,
				0.12500004470348358,
				2
			],
			"translation":[
				0,
				0.1277778595685959,
				0
			]
		},
		{
			"children":[
				0,
				1
			],
			"name":"NMS_Display_platform_03.001"
		}
	],
	"materials":[
		{
			"doubleSided":true,
			"extras":{
				"hubs_component_list":{}
			},
			"name":"Natural Modern Store 1",
			"normalTexture":{
				"index":0
			},
			"pbrMetallicRoughness":{
				"baseColorTexture":{
					"index":1
				},
				"metallicRoughnessTexture":{
					"index":2
				}
			}
		},
		{
			"doubleSided":true,
			"emissiveFactor":[
				1,
				0.6311807036399841,
				0.4060034453868866
			],
			"extras":{
				"hubs_component_list":{}
			},
			"name":"glow",
			"pbrMetallicRoughness":{
				"baseColorFactor":[
					0,
					0,
					0,
					1
				]
			}
		}
	],
	"meshes":[
		{
			"name":"Cube.026",
			"primitives":[
				{
					"attributes":{
						"POSITION":0,
						"NORMAL":1,
						"TEXCOORD_0":2
					},
					"indices":3,
					"material":0
				},
				{
					"attributes":{
						"POSITION":4,
						"NORMAL":5,
						"TEXCOORD_0":6
					},
					"indices":7,
					"material":1
				}
			]
		},
		{
			"name":"Cube.166",
			"primitives":[
				{
					"attributes":{
						"POSITION":8,
						"NORMAL":9,
						"TEXCOORD_0":10
					},
					"indices":11
				}
			]
		}
	],
	"textures":[
		{
			"sampler":0,
			"source":0
		},
		{
			"sampler":0,
			"source":1
		},
		{
			"sampler":0,
			"source":2
		}
	],
	"images":[
		{
			"mimeType":"image/png",
			"name":"Natural_store_trimsheet_1_Normal_OpenGL",
			"uri":"textures/Natural_store_trimsheet_1_Normal_OpenGL.png"
		},
		{
			"mimeType":"image/png",
			"name":"Natural_store_trimsheet_1_Base_color",
			"uri":"textures/Natural_store_trimsheet_1_Base_color.png"
		},
		{
			"mimeType":"image/png",
			"name":"Natural_store_trimsheet_1_Metallic.png-Natural_store_trimsheet_1_Roughness",
			"uri":"textures/Natural_store_trimsheet_1_Metallic_png-Natural_store_trimsheet_1_Roughness.png"
		}
	],
	"accessors":[
		{
			"bufferView":0,
			"componentType":5126,
			"count":475,
			"max":[
				2,
				0.15277796983718872,
				2
			],
			"min":[
				-2,
				-0.09722227603197098,
				-2
			],
			"type":"VEC3"
		},
		{
			"bufferView":1,
			"componentType":5126,
			"count":475,
			"type":"VEC3"
		},
		{
			"bufferView":2,
			"componentType":5126,
			"count":475,
			"type":"VEC2"
		},
		{
			"bufferView":3,
			"componentType":5123,
			"count":1260,
			"type":"SCALAR"
		},
		{
			"bufferView":4,
			"componentType":5126,
			"count":16,
			"max":[
				1.7333333492279053,
				0.05277791619300842,
				1.7333333492279053
			],
			"min":[
				-1.7333333492279053,
				-0.09722226113080978,
				-1.7333333492279053
			],
			"type":"VEC3"
		},
		{
			"bufferView":5,
			"componentType":5126,
			"count":16,
			"type":"VEC3"
		},
		{
			"bufferView":6,
			"componentType":5126,
			"count":16,
			"type":"VEC2"
		},
		{
			"bufferView":7,
			"componentType":5123,
			"count":24,
			"type":"SCALAR"
		},
		{
			"bufferView":8,
			"componentType":5126,
			"count":24,
			"max":[
				1,
				1,
				1
			],
			"min":[
				-1,
				-1,
				-1
			],
			"type":"VEC3"
		},
		{
			"bufferView":9,
			"componentType":5126,
			"count":24,
			"type":"VEC3"
		},
		{
			"bufferView":10,
			"componentType":5126,
			"count":24,
			"type":"VEC2"
		},
		{
			"bufferView":11,
			"componentType":5123,
			"count":36,
			"type":"SCALAR"
		}
	],
	"bufferViews":[
		{
			"buffer":0,
			"byteLength":5700,
			"byteOffset":0,
			"target":34962
		},
		{
			"buffer":0,
			"byteLength":5700,
			"byteOffset":5700,
			"target":34962
		},
		{
			"buffer":0,
			"byteLength":3800,
			"byteOffset":11400,
			"target":34962
		},
		{
			"buffer":0,
			"byteLength":2520,
			"byteOffset":15200,
			"target":34963
		},
		{
			"buffer":0,
			"byteLength":192,
			"byteOffset":17720,
			"target":34962
		},
		{
			"buffer":0,
			"byteLength":192,
			"byteOffset":17912,
			"target":34962
		},
		{
			"buffer":0,
			"byteLength":128,
			"byteOffset":18104,
			"target":34962
		},
		{
			"buffer":0,
			"byteLength":48,
			"byteOffset":18232,
			"target":34963
		},
		{
			"buffer":0,
			"byteLength":288,
			"byteOffset":18280,
			"target":34962
		},
		{
			"buffer":0,
			"byteLength":288,
			"byteOffset":18568,
			"target":34962
		},
		{
			"buffer":0,
			"byteLength":192,
			"byteOffset":18856,
			"target":34962
		},
		{
			"buffer":0,
			"byteLength":72,
			"byteOffset":19048,
			"target":34963
		}
	],
	"samplers":[
		{
			"magFilter":9729,
			"minFilter":9987
		}
	],
	"buffers":[
		{
			"byteLength":19120,
			"uri":"NMS_Display_platform_03.001.bin"
		}
	]
}
