{
	"asset":{
		"generator":"Khronos glTF Blender I/O v4.0.44",
		"version":"2.0"
	},
	"scene":0,
	"scenes":[
		{
			"extras":{
				"sun_pos_properties":{
					"show_surface":0,
					"show_analemmas":0,
					"show_north":0,
					"latitude":0.0,
					"day_of_year":134,
					"sun_object":{},
					"object_collection":{}
				},
				"puresky_properties":{
					"int_flag_updt_camera":1
				},
				"HubsComponentsExtensionProperties":{},
				"hubs_component_list":{},
				"recast_navmesh":{},
				"rflow_props":{},
				"scatter_properties":{},
				"sna_icongallery":0,
				"true_sky":{
					"presets":{
						"full_sky_preset":{
							"presets":[
								{
									"name":"Default",
									"display_name":"Default"
								},
								{
									"name":"Morning",
									"display_name":"Morning"
								},
								{
									"name":"Mid-Morning",
									"display_name":"Mid-Morning"
								},
								{
									"name":"Midday",
									"display_name":"Midday"
								},
								{
									"name":"Azure Afternoon",
									"display_name":"Azure Afternoon"
								},
								{
									"name":"Dusty Afternoon",
									"display_name":"Dusty Afternoon"
								},
								{
									"name":"Dusk",
									"display_name":"Dusk"
								},
								{
									"name":"Dusty Dusk",
									"display_name":"Dusty Dusk"
								},
								{
									"name":"Alien Morning",
									"display_name":"Alien Morning"
								},
								{
									"name":"Alien Gas Desert",
									"display_name":"Alien Gas Desert"
								},
								{
									"name":"Alien Day",
									"display_name":"Alien Day"
								},
								{
									"name":"Mars",
									"display_name":"Mars"
								}
							]
						},
						"time_preset":{
							"presets":[
								{
									"name":"Sunrise",
									"display_name":"Sunrise"
								},
								{
									"name":"Morning - Golden Hour End",
									"display_name":"Morning - Golden Hour End"
								},
								{
									"name":"Mid-Morning",
									"display_name":"Mid-Morning"
								},
								{
									"name":"Noon",
									"display_name":"Noon"
								},
								{
									"name":"Afternoon",
									"display_name":"Afternoon"
								},
								{
									"name":"Evening - Golden Hour Start",
									"display_name":"Evening - Golden Hour Start"
								},
								{
									"name":"Sunset",
									"display_name":"Sunset"
								}
							]
						},
						"sol_hsv_preset":{
							"presets":[
								{
									"name":"Base",
									"display_name":"Base"
								},
								{
									"name":"Test",
									"display_name":"Mars"
								},
								{
									"name":"Venus",
									"display_name":"Venus"
								},
								{
									"name":"Saturated",
									"display_name":"Saturated"
								},
								{
									"name":"Desaturated",
									"display_name":"Desaturated"
								}
							]
						},
						"atmosphere_preset":{
							"presets":[
								{
									"name":"Clear",
									"display_name":"Clear"
								},
								{
									"name":"Dusty",
									"display_name":"Dusty"
								}
							]
						},
						"haze_preset":{
							"presets":[
								{
									"name":"Clear",
									"display_name":"Clear"
								},
								{
									"name":"Polluted",
									"display_name":"Polluted"
								},
								{
									"name":"Drab",
									"display_name":"Drab"
								},
								{
									"name":"Other",
									"display_name":"Mars"
								},
								{
									"name":"Green",
									"display_name":"Green"
								}
							]
						},
						"fog_preset":{
							"presets":[
								{
									"name":"Fog Clear",
									"display_name":"Fog Clear"
								},
								{
									"name":"Fog Dense",
									"display_name":"Fog Dense"
								},
								{
									"name":"",
									"display_name":"Fog Blanket"
								},
								{
									"name":"Fog Stormy",
									"display_name":"Fog Stormy"
								},
								{
									"name":"Fog (Sandy)",
									"display_name":"Fog (Sandy/Dust)"
								}
							]
						},
						"night_sky_preset":{
							"presets":[
								{
									"name":"Test",
									"display_name":"Clear Night"
								},
								{
									"name":"Clear Night w/o Moon",
									"display_name":"Clear Night w/o Moon"
								},
								{
									"name":"Test 2",
									"display_name":"Hazy Night"
								},
								{
									"name":"Hazy Night w/o Moon",
									"display_name":"Hazy Night w/o Moon"
								}
							]
						},
						"night_hdris_preset":{
							"presets":[
								{
									"name":"Earth Night",
									"display_name":"Earth Night"
								},
								{
									"name":"Interstellar Nursery",
									"display_name":"Interstellar Nursery"
								},
								{
									"name":"Black Hole",
									"display_name":"Black Hole"
								},
								{
									"name":"Blue Nebula",
									"display_name":"Blue Nebula"
								},
								{
									"name":"Red Nebula",
									"display_name":"Blue Clouds"
								},
								{
									"name":"Red Gas",
									"display_name":"Red Gas"
								},
								{
									"name":"Great Portal",
									"display_name":"Great Portal"
								},
								{
									"name":"Orange Nebula",
									"display_name":"Orange Nebula"
								}
							]
						},
						"moon_preset":{
							"presets":[
								{
									"name":"Base",
									"display_name":"Earth Moon"
								},
								{
									"name":"Super Moon",
									"display_name":"Super Moon"
								}
							]
						},
						"moon_phase_preset":{
							"presets":[
								{
									"name":"Waxing Crescent",
									"display_name":"Waxing Crescent"
								},
								{
									"name":"First Quarter",
									"display_name":"First Quarter"
								},
								{
									"name":"Waxing Gibbous",
									"display_name":"Waxing Gibbous"
								},
								{
									"name":"Full",
									"display_name":"Full"
								},
								{
									"name":"Waning Gibbous",
									"display_name":"Waning Gibbous"
								},
								{
									"name":"Third Quarter",
									"display_name":"Third Quarter"
								},
								{
									"name":"Waning Crescent",
									"display_name":"Waning Crescent"
								}
							]
						},
						"nebula_preset":{
							"presets":[
								{
									"name":"Base",
									"display_name":"Base"
								},
								{
									"name":"Pale Wisp",
									"display_name":"Pale Wisp"
								},
								{
									"name":"Golden Flares",
									"display_name":"Golden Flares"
								}
							]
						},
						"stars_preset":{
							"presets":[
								{
									"name":"Base",
									"display_name":"Base"
								},
								{
									"name":"Deep Space",
									"display_name":"Deep Space"
								},
								{
									"name":"Starry Night",
									"display_name":"Starry Night"
								}
							]
						},
						"night_clarity_preset":{
							"presets":[
								{
									"name":"Base",
									"display_name":"Base"
								},
								{
									"name":"Intense",
									"display_name":"City Lights"
								}
							]
						},
						"cloud_preset":{
							"presets":[
								{
									"name":"tVFX_Clouds-Stratocumulus",
									"display_name":"Stratocumulus"
								},
								{
									"name":"tVFX_Clouds-Cumulus Mediocris",
									"display_name":"Cumulus Mediocris"
								},
								{
									"name":"tVFX_Clouds-Cumulonimbus",
									"display_name":"Cumulonimbus"
								},
								{
									"name":"tVFX_Clouds-Cirrus",
									"display_name":"Cirrus"
								},
								{
									"name":"tVFX_Clouds-Altostratus Translucidus",
									"display_name":"Altostratus Translucidus"
								},
								{
									"name":"tVFX_Clouds-Altostratus Opacus",
									"display_name":"Altostratus Opacus"
								},
								{
									"name":"tVFX_Clouds-Altocumulus",
									"display_name":"Altocumulus"
								}
							]
						}
					},
					"performance":{
						"performance_items":[
							{
								"name":"Testing"
							},
							{
								"name":"Viewport Render Region"
							},
							{
								"name":"Pixel Size"
							},
							{
								"name":"Tile Size"
							},
							{
								"name":"True-Speed"
							}
						]
					}
				},
				"srr_settings":{
					"status":{
						"is_rendering":0,
						"should_stop":0
					}
				},
				"uuid":"42026fb2-c5aa-4bc4-92e4-931dbee3ed09",
				"assets reported":{}
			},
			"name":"Scene",
			"nodes":[
				2
			]
		}
	],
	"nodes":[
		{
			"extras":{
				"hubs_component_list":{},
				"Treezy":{}
			},
			"mesh":0,
			"name":"Office - Computer 1_mesh"
		},
		{
			"extras":{
				"xrengine.entity":"Office - Computer 1_mesh_Box_Collider",
				"xrengine.EE_collider.shape":"box"
			},
			"mesh":1,
			"name":"Office - Computer 1_mesh_Box_Collider",
			"scale":[
				0.18659089505672455,
				0.05595950782299042,
				0.18404041230678558
			],
			"translation":[
				0.0005252116825431585,
				0.04168836772441864,
				1.811981201171875e-05
			]
		},
		{
			"children":[
				0,
				1
			],
			"extras":{
				"xrengine.entity":"Office - Computer 1",
				"xrengine.EE_rigidbody.type":"fixed"
			},
			"name":"Office - Computer 1.001"
		}
	],
	"materials":[
		{
			"doubleSided":true,
			"extras":{
				"hubs_component_list":{}
			},
			"name":"computers",
			"normalTexture":{
				"index":0
			},
			"pbrMetallicRoughness":{
				"baseColorTexture":{
					"index":1
				},
				"metallicRoughnessTexture":{
					"index":2
				}
			}
		},
		{
			"doubleSided":true,
			"extras":{
				"hubs_component_list":{}
			},
			"name":"office furniture modern",
			"normalTexture":{
				"index":3
			},
			"pbrMetallicRoughness":{
				"baseColorTexture":{
					"index":4
				},
				"metallicRoughnessTexture":{
					"index":5
				}
			}
		}
	],
	"meshes":[
		{
			"name":"Cylinder.001",
			"primitives":[
				{
					"attributes":{
						"POSITION":0,
						"NORMAL":1,
						"TEXCOORD_0":2
					},
					"indices":3,
					"material":0
				},
				{
					"attributes":{
						"POSITION":4,
						"NORMAL":5,
						"TEXCOORD_0":6
					},
					"indices":7,
					"material":1
				}
			]
		},
		{
			"name":"Cube.012",
			"primitives":[
				{
					"attributes":{
						"POSITION":8,
						"NORMAL":9,
						"TEXCOORD_0":10
					},
					"indices":11
				}
			]
		}
	],
	"textures":[
		{
			"sampler":0,
			"source":0
		},
		{
			"sampler":0,
			"source":1
		},
		{
			"sampler":0,
			"source":2
		},
		{
			"sampler":0,
			"source":3
		},
		{
			"sampler":0,
			"source":4
		},
		{
			"sampler":0,
			"source":5
		}
	],
	"images":[
		{
			"mimeType":"image/png",
			"name":"computer_trimsheet_Normal_OpenGL",
			"uri":"textures/computer_trimsheet_Normal_OpenGL.png"
		},
		{
			"mimeType":"image/png",
			"name":"computer_trimsheet_Base_color",
			"uri":"textures/computer_trimsheet_Base_color.png"
		},
		{
			"mimeType":"image/png",
			"name":"computer_trimsheet_Metallic-computer_trimsheet_Roughness",
			"uri":"textures/computer_trimsheet_Metallic-computer_trimsheet_Roughness.png"
		},
		{
			"mimeType":"image/png",
			"name":"Office_Furniture_Trimsheet_Normal_OpenGL",
			"uri":"textures/Office_Furniture_Trimsheet_Normal_OpenGL.png"
		},
		{
			"mimeType":"image/png",
			"name":"Office_Furniture_Trimsheet_Base_color",
			"uri":"textures/Office_Furniture_Trimsheet_Base_color.png"
		},
		{
			"mimeType":"image/png",
			"name":"Office_Furniture_Trimsheet_Metallic-Office_Furniture_Trimsheet_Roughness",
			"uri":"textures/Office_Furniture_Trimsheet_Metallic-Office_Furniture_Trimsheet_Roughness.png"
		}
	],
	"accessors":[
		{
			"bufferView":0,
			"componentType":5126,
			"count":294,
			"max":[
				0.14791780710220337,
				0.08345960825681686,
				0.14736275374889374
			],
			"min":[
				-0.14791756868362427,
				7.450580596923828e-09,
				-0.14736275374889374
			],
			"type":"VEC3"
		},
		{
			"bufferView":1,
			"componentType":5126,
			"count":294,
			"type":"VEC3"
		},
		{
			"bufferView":2,
			"componentType":5126,
			"count":294,
			"type":"VEC2"
		},
		{
			"bufferView":3,
			"componentType":5123,
			"count":936,
			"type":"SCALAR"
		},
		{
			"bufferView":4,
			"componentType":5126,
			"count":24,
			"max":[
				0.13463225960731506,
				0.08345960825681686,
				0.13407722115516663
			],
			"min":[
				-0.1335221827030182,
				0.08345960825681686,
				-0.13407722115516663
			],
			"type":"VEC3"
		},
		{
			"bufferView":5,
			"componentType":5126,
			"count":24,
			"type":"VEC3"
		},
		{
			"bufferView":6,
			"componentType":5126,
			"count":24,
			"type":"VEC2"
		},
		{
			"bufferView":7,
			"componentType":5123,
			"count":66,
			"type":"SCALAR"
		},
		{
			"bufferView":8,
			"componentType":5126,
			"count":24,
			"max":[
				1,
				1,
				1
			],
			"min":[
				-1,
				-1,
				-1
			],
			"type":"VEC3"
		},
		{
			"bufferView":9,
			"componentType":5126,
			"count":24,
			"type":"VEC3"
		},
		{
			"bufferView":10,
			"componentType":5126,
			"count":24,
			"type":"VEC2"
		},
		{
			"bufferView":11,
			"componentType":5123,
			"count":36,
			"type":"SCALAR"
		}
	],
	"bufferViews":[
		{
			"buffer":0,
			"byteLength":3528,
			"byteOffset":0,
			"target":34962
		},
		{
			"buffer":0,
			"byteLength":3528,
			"byteOffset":3528,
			"target":34962
		},
		{
			"buffer":0,
			"byteLength":2352,
			"byteOffset":7056,
			"target":34962
		},
		{
			"buffer":0,
			"byteLength":1872,
			"byteOffset":9408,
			"target":34963
		},
		{
			"buffer":0,
			"byteLength":288,
			"byteOffset":11280,
			"target":34962
		},
		{
			"buffer":0,
			"byteLength":288,
			"byteOffset":11568,
			"target":34962
		},
		{
			"buffer":0,
			"byteLength":192,
			"byteOffset":11856,
			"target":34962
		},
		{
			"buffer":0,
			"byteLength":132,
			"byteOffset":12048,
			"target":34963
		},
		{
			"buffer":0,
			"byteLength":288,
			"byteOffset":12180,
			"target":34962
		},
		{
			"buffer":0,
			"byteLength":288,
			"byteOffset":12468,
			"target":34962
		},
		{
			"buffer":0,
			"byteLength":192,
			"byteOffset":12756,
			"target":34962
		},
		{
			"buffer":0,
			"byteLength":72,
			"byteOffset":12948,
			"target":34963
		}
	],
	"samplers":[
		{
			"magFilter":9729,
			"minFilter":9987
		}
	],
	"buffers":[
		{
			"byteLength":13020,
			"uri":"Office_-_Computer_1.001.bin"
		}
	]
}
