{
	"asset":{
		"generator":"Khronos glTF Blender I/O v4.0.44",
		"version":"2.0"
	},
	"scene":0,
	"scenes":[
		{
			"extras":{
				"skinify":{
					"connect_mesh":0,
					"connect_parents":0,
					"generate_all":0,
					"thickness":0.800000011920929,
					"finger_thickness":0.25,
					"apply_mod":1,
					"parent_armature":1,
					"sub_level":1
				},
				"vrm_addon_extension":{
					"vrm0_material_gltf_property_names":[
						{
							"name":"_Color",
							"value":"_Color"
						},
						{
							"name":"_MainTex_ST",
							"value":"_MainTex_ST"
						},
						{
							"name":"_MainTex_ST_S",
							"value":"_MainTex_ST_S"
						},
						{
							"name":"_MainTex_ST_T",
							"value":"_MainTex_ST_T"
						},
						{
							"name":"_MetallicGlossMap_ST",
							"value":"_MetallicGlossMap_ST"
						},
						{
							"name":"_MetallicGlossMap_ST_S",
							"value":"_MetallicGlossMap_ST_S"
						},
						{
							"name":"_MetallicGlossMap_ST_T",
							"value":"_MetallicGlossMap_ST_T"
						},
						{
							"name":"_BumpMap_ST",
							"value":"_BumpMap_ST"
						},
						{
							"name":"_BumpMap_ST_S",
							"value":"_BumpMap_ST_S"
						},
						{
							"name":"_BumpMap_ST_T",
							"value":"_BumpMap_ST_T"
						},
						{
							"name":"_ParallaxMap_ST",
							"value":"_ParallaxMap_ST"
						},
						{
							"name":"_ParallaxMap_ST_S",
							"value":"_ParallaxMap_ST_S"
						},
						{
							"name":"_ParallaxMap_ST_T",
							"value":"_ParallaxMap_ST_T"
						},
						{
							"name":"_OcclusionMap_ST",
							"value":"_OcclusionMap_ST"
						},
						{
							"name":"_OcclusionMap_ST_S",
							"value":"_OcclusionMap_ST_S"
						},
						{
							"name":"_OcclusionMap_ST_T",
							"value":"_OcclusionMap_ST_T"
						},
						{
							"name":"_EmissionColor",
							"value":"_EmissionColor"
						},
						{
							"name":"_EmissionMap_ST",
							"value":"_EmissionMap_ST"
						},
						{
							"name":"_EmissionMap_ST_S",
							"value":"_EmissionMap_ST_S"
						},
						{
							"name":"_EmissionMap_ST_T",
							"value":"_EmissionMap_ST_T"
						},
						{
							"name":"_DetailMask_ST",
							"value":"_DetailMask_ST"
						},
						{
							"name":"_DetailMask_ST_S",
							"value":"_DetailMask_ST_S"
						},
						{
							"name":"_DetailMask_ST_T",
							"value":"_DetailMask_ST_T"
						},
						{
							"name":"_DetailAlbedoMap_ST",
							"value":"_DetailAlbedoMap_ST"
						},
						{
							"name":"_DetailAlbedoMap_ST_S",
							"value":"_DetailAlbedoMap_ST_S"
						},
						{
							"name":"_DetailAlbedoMap_ST_T",
							"value":"_DetailAlbedoMap_ST_T"
						},
						{
							"name":"_DetailNormalMap_ST",
							"value":"_DetailNormalMap_ST"
						},
						{
							"name":"_DetailNormalMap_ST_S",
							"value":"_DetailNormalMap_ST_S"
						},
						{
							"name":"_DetailNormalMap_ST_T",
							"value":"_DetailNormalMap_ST_T"
						}
					],
					"vrm0_material_mtoon0_property_names":[
						{
							"name":"_Color",
							"value":"_Color"
						},
						{
							"name":"_ShadeColor",
							"value":"_ShadeColor"
						},
						{
							"name":"_MainTex_ST",
							"value":"_MainTex_ST"
						},
						{
							"name":"_MainTex_ST_S",
							"value":"_MainTex_ST_S"
						},
						{
							"name":"_MainTex_ST_T",
							"value":"_MainTex_ST_T"
						},
						{
							"name":"_ShadeTexture_ST",
							"value":"_ShadeTexture_ST"
						},
						{
							"name":"_ShadeTexture_ST_S",
							"value":"_ShadeTexture_ST_S"
						},
						{
							"name":"_ShadeTexture_ST_T",
							"value":"_ShadeTexture_ST_T"
						},
						{
							"name":"_BumpMap_ST",
							"value":"_BumpMap_ST"
						},
						{
							"name":"_BumpMap_ST_S",
							"value":"_BumpMap_ST_S"
						},
						{
							"name":"_BumpMap_ST_T",
							"value":"_BumpMap_ST_T"
						},
						{
							"name":"_ReceiveShadowTexture_ST",
							"value":"_ReceiveShadowTexture_ST"
						},
						{
							"name":"_ReceiveShadowTexture_ST_S",
							"value":"_ReceiveShadowTexture_ST_S"
						},
						{
							"name":"_ReceiveShadowTexture_ST_T",
							"value":"_ReceiveShadowTexture_ST_T"
						},
						{
							"name":"_ShadingGradeTexture_ST",
							"value":"_ShadingGradeTexture_ST"
						},
						{
							"name":"_ShadingGradeTexture_ST_S",
							"value":"_ShadingGradeTexture_ST_S"
						},
						{
							"name":"_ShadingGradeTexture_ST_T",
							"value":"_ShadingGradeTexture_ST_T"
						},
						{
							"name":"_RimColor",
							"value":"_RimColor"
						},
						{
							"name":"_RimTexture_ST",
							"value":"_RimTexture_ST"
						},
						{
							"name":"_RimTexture_ST_S",
							"value":"_RimTexture_ST_S"
						},
						{
							"name":"_RimTexture_ST_T",
							"value":"_RimTexture_ST_T"
						},
						{
							"name":"_SphereAdd_ST",
							"value":"_SphereAdd_ST"
						},
						{
							"name":"_SphereAdd_ST_S",
							"value":"_SphereAdd_ST_S"
						},
						{
							"name":"_SphereAdd_ST_T",
							"value":"_SphereAdd_ST_T"
						},
						{
							"name":"_EmissionColor",
							"value":"_EmissionColor"
						},
						{
							"name":"_EmissionMap_ST",
							"value":"_EmissionMap_ST"
						},
						{
							"name":"_EmissionMap_ST_S",
							"value":"_EmissionMap_ST_S"
						},
						{
							"name":"_EmissionMap_ST_T",
							"value":"_EmissionMap_ST_T"
						},
						{
							"name":"_OutlineWidthTexture_ST",
							"value":"_OutlineWidthTexture_ST"
						},
						{
							"name":"_OutlineWidthTexture_ST_S",
							"value":"_OutlineWidthTexture_ST_S"
						},
						{
							"name":"_OutlineWidthTexture_ST_T",
							"value":"_OutlineWidthTexture_ST_T"
						},
						{
							"name":"_OutlineColor",
							"value":"_OutlineColor"
						},
						{
							"name":"_UvAnimMaskTexture_ST",
							"value":"_UvAnimMaskTexture_ST"
						},
						{
							"name":"_UvAnimMaskTexture_ST_S",
							"value":"_UvAnimMaskTexture_ST_S"
						},
						{
							"name":"_UvAnimMaskTexture_ST_T",
							"value":"_UvAnimMaskTexture_ST_T"
						}
					]
				},
				"recast_navmesh":{},
				"uuid":"5bf082ca-3e0c-4af8-b678-4b6de50f4f55",
				"assets reported":{},
				"created_collider":{}
			},
			"name":"Scene",
			"nodes":[
				2
			]
		}
	],
	"nodes":[
		{
			"mesh":0,
			"name":"ReNe_Rectangle_Island.001",
			"translation":[
				0.05594038963317871,
				0.7103153467178345,
				0.22051167488098145
			]
		},
		{
			"extras":{
				"xrengine.EE_collider.shape":"box",
				"xrengine.entity":"ReNe_Rectangle_Island_bcol"
			},
			"mesh":1,
			"name":"ReNe_Rectangle_Island_bcol",
			"translation":[
				0.055939674377441406,
				0.4788203537464142,
				-0.044397830963134766
			]
		},
		{
			"children":[
				0,
				1
			],
			"extras":{
				"xrengine.EE_rigidbody.type":"fixed",
				"xrengine.entity":"Retro_Neon_Props"
			},
			"name":"ReNe_Rectangle_Island",
			"translation":[
				0,
				0,
				2.9768004417419434
			]
		}
	],
	"materials":[
		{
			"doubleSided":true,
			"extras":{
				"vrm_addon_extension":{
					"mtoon1":{}
				}
			},
			"name":"shinnyWall_MAT",
			"pbrMetallicRoughness":{
				"baseColorFactor":[
					0.800000011920929,
					0.800000011920929,
					0.800000011920929,
					1
				],
				"metallicFactor":0,
				"roughnessFactor":0.06281405687332153
			}
		},
		{
			"doubleSided":true,
			"extras":{
				"vrm_addon_extension":{
					"mtoon1":{
						"pbr_metallic_roughness":{
							"base_color_texture":{}
						},
						"normal_texture":{},
						"emissive_texture":{},
						"extensions":{
							"vrmc_materials_mtoon":{
								"shade_multiply_texture":{},
								"shading_shift_texture":{},
								"matcap_texture":{},
								"rim_multiply_texture":{},
								"outline_width_multiply_texture":{},
								"uv_animation_mask_texture":{}
							}
						}
					}
				}
			},
			"name":"shinyMetalRails",
			"pbrMetallicRoughness":{
				"baseColorFactor":[
					0.800000011920929,
					0.800000011920929,
					0.800000011920929,
					1
				],
				"metallicFactor":0,
				"roughnessFactor":0.5
			}
		},
		{
			"doubleSided":true,
			"extras":{
				"vrm_addon_extension":{
					"mtoon1":{
						"pbr_metallic_roughness":{
							"base_color_texture":{}
						},
						"normal_texture":{},
						"emissive_texture":{},
						"extensions":{
							"vrmc_materials_mtoon":{
								"shade_multiply_texture":{},
								"shading_shift_texture":{},
								"matcap_texture":{},
								"rim_multiply_texture":{},
								"outline_width_multiply_texture":{},
								"uv_animation_mask_texture":{}
							}
						}
					}
				}
			},
			"name":"Accent",
			"pbrMetallicRoughness":{
				"baseColorFactor":[
					0.5416000485420227,
					0.18157503008842468,
					0.800774097442627,
					1
				],
				"metallicFactor":0,
				"roughnessFactor":0.5
			}
		}
	],
	"meshes":[
		{
			"name":"Rectangle_Island_GEO.005",
			"primitives":[
				{
					"attributes":{
						"POSITION":0,
						"NORMAL":1,
						"TEXCOORD_0":2
					},
					"indices":3,
					"material":0
				},
				{
					"attributes":{
						"POSITION":4,
						"NORMAL":5,
						"TEXCOORD_0":6
					},
					"indices":7,
					"material":1
				},
				{
					"attributes":{
						"POSITION":8,
						"NORMAL":9,
						"TEXCOORD_0":10
					},
					"indices":11,
					"material":2
				}
			]
		},
		{
			"name":"Cube.002",
			"primitives":[
				{
					"attributes":{
						"POSITION":12,
						"NORMAL":13,
						"TEXCOORD_0":14
					},
					"indices":15
				}
			]
		}
	],
	"accessors":[
		{
			"bufferView":0,
			"componentType":5126,
			"count":134,
			"max":[
				0.4999989867210388,
				0.21732506155967712,
				0.7351216077804565
			],
			"min":[
				-0.5000010132789612,
				-0.6803150773048401,
				-1.2649394273757935
			],
			"type":"VEC3"
		},
		{
			"bufferView":1,
			"componentType":5126,
			"count":134,
			"type":"VEC3"
		},
		{
			"bufferView":2,
			"componentType":5126,
			"count":134,
			"type":"VEC2"
		},
		{
			"bufferView":3,
			"componentType":5123,
			"count":258,
			"type":"SCALAR"
		},
		{
			"bufferView":4,
			"componentType":5126,
			"count":36,
			"max":[
				0.20935837924480438,
				0.1985945701599121,
				0.23962202668190002
			],
			"min":[
				-0.20936043560504913,
				0.02742081880569458,
				0.22090330719947815
			],
			"type":"VEC3"
		},
		{
			"bufferView":5,
			"componentType":5126,
			"count":36,
			"type":"VEC3"
		},
		{
			"bufferView":6,
			"componentType":5126,
			"count":36,
			"type":"VEC2"
		},
		{
			"bufferView":7,
			"componentType":5123,
			"count":96,
			"type":"SCALAR"
		},
		{
			"bufferView":8,
			"componentType":5126,
			"count":96,
			"max":[
				0.4999989867210388,
				0.21732506155967712,
				0.7351216077804565
			],
			"min":[
				-0.5000010132789612,
				-0.6803150773048401,
				-1.2649394273757935
			],
			"type":"VEC3"
		},
		{
			"bufferView":9,
			"componentType":5126,
			"count":96,
			"type":"VEC3"
		},
		{
			"bufferView":10,
			"componentType":5126,
			"count":96,
			"type":"VEC2"
		},
		{
			"bufferView":11,
			"componentType":5123,
			"count":216,
			"type":"SCALAR"
		},
		{
			"bufferView":12,
			"componentType":5126,
			"count":24,
			"max":[
				0.4999997615814209,
				0.4488200843334198,
				1.0000309944152832
			],
			"min":[
				-0.5000002384185791,
				-0.4488200843334198,
				-1.0000300407409668
			],
			"type":"VEC3"
		},
		{
			"bufferView":13,
			"componentType":5126,
			"count":24,
			"type":"VEC3"
		},
		{
			"bufferView":14,
			"componentType":5126,
			"count":24,
			"type":"VEC2"
		},
		{
			"bufferView":15,
			"componentType":5123,
			"count":36,
			"type":"SCALAR"
		}
	],
	"bufferViews":[
		{
			"buffer":0,
			"byteLength":1608,
			"byteOffset":0,
			"target":34962
		},
		{
			"buffer":0,
			"byteLength":1608,
			"byteOffset":1608,
			"target":34962
		},
		{
			"buffer":0,
			"byteLength":1072,
			"byteOffset":3216,
			"target":34962
		},
		{
			"buffer":0,
			"byteLength":516,
			"byteOffset":4288,
			"target":34963
		},
		{
			"buffer":0,
			"byteLength":432,
			"byteOffset":4804,
			"target":34962
		},
		{
			"buffer":0,
			"byteLength":432,
			"byteOffset":5236,
			"target":34962
		},
		{
			"buffer":0,
			"byteLength":288,
			"byteOffset":5668,
			"target":34962
		},
		{
			"buffer":0,
			"byteLength":192,
			"byteOffset":5956,
			"target":34963
		},
		{
			"buffer":0,
			"byteLength":1152,
			"byteOffset":6148,
			"target":34962
		},
		{
			"buffer":0,
			"byteLength":1152,
			"byteOffset":7300,
			"target":34962
		},
		{
			"buffer":0,
			"byteLength":768,
			"byteOffset":8452,
			"target":34962
		},
		{
			"buffer":0,
			"byteLength":432,
			"byteOffset":9220,
			"target":34963
		},
		{
			"buffer":0,
			"byteLength":288,
			"byteOffset":9652,
			"target":34962
		},
		{
			"buffer":0,
			"byteLength":288,
			"byteOffset":9940,
			"target":34962
		},
		{
			"buffer":0,
			"byteLength":192,
			"byteOffset":10228,
			"target":34962
		},
		{
			"buffer":0,
			"byteLength":72,
			"byteOffset":10420,
			"target":34963
		}
	],
	"buffers":[
		{
			"byteLength":10492,
			"uri":"ReNe_Rectangle_Island.bin"
		}
	]
}
