{
	"asset":{
		"generator":"Khronos glTF Blender I/O v4.0.44",
		"version":"2.0"
	},
	"scene":0,
	"scenes":[
		{
			"extras":{
				"skinify":{
					"connect_mesh":0,
					"connect_parents":0,
					"generate_all":0,
					"thickness":0.800000011920929,
					"finger_thickness":0.25,
					"apply_mod":1,
					"parent_armature":1,
					"sub_level":1
				},
				"vrm_addon_extension":{
					"vrm0_material_gltf_property_names":[
						{
							"name":"_Color",
							"value":"_Color"
						},
						{
							"name":"_MainTex_ST",
							"value":"_MainTex_ST"
						},
						{
							"name":"_MainTex_ST_S",
							"value":"_MainTex_ST_S"
						},
						{
							"name":"_MainTex_ST_T",
							"value":"_MainTex_ST_T"
						},
						{
							"name":"_MetallicGlossMap_ST",
							"value":"_MetallicGlossMap_ST"
						},
						{
							"name":"_MetallicGlossMap_ST_S",
							"value":"_MetallicGlossMap_ST_S"
						},
						{
							"name":"_MetallicGlossMap_ST_T",
							"value":"_MetallicGlossMap_ST_T"
						},
						{
							"name":"_BumpMap_ST",
							"value":"_BumpMap_ST"
						},
						{
							"name":"_BumpMap_ST_S",
							"value":"_BumpMap_ST_S"
						},
						{
							"name":"_BumpMap_ST_T",
							"value":"_BumpMap_ST_T"
						},
						{
							"name":"_ParallaxMap_ST",
							"value":"_ParallaxMap_ST"
						},
						{
							"name":"_ParallaxMap_ST_S",
							"value":"_ParallaxMap_ST_S"
						},
						{
							"name":"_ParallaxMap_ST_T",
							"value":"_ParallaxMap_ST_T"
						},
						{
							"name":"_OcclusionMap_ST",
							"value":"_OcclusionMap_ST"
						},
						{
							"name":"_OcclusionMap_ST_S",
							"value":"_OcclusionMap_ST_S"
						},
						{
							"name":"_OcclusionMap_ST_T",
							"value":"_OcclusionMap_ST_T"
						},
						{
							"name":"_EmissionColor",
							"value":"_EmissionColor"
						},
						{
							"name":"_EmissionMap_ST",
							"value":"_EmissionMap_ST"
						},
						{
							"name":"_EmissionMap_ST_S",
							"value":"_EmissionMap_ST_S"
						},
						{
							"name":"_EmissionMap_ST_T",
							"value":"_EmissionMap_ST_T"
						},
						{
							"name":"_DetailMask_ST",
							"value":"_DetailMask_ST"
						},
						{
							"name":"_DetailMask_ST_S",
							"value":"_DetailMask_ST_S"
						},
						{
							"name":"_DetailMask_ST_T",
							"value":"_DetailMask_ST_T"
						},
						{
							"name":"_DetailAlbedoMap_ST",
							"value":"_DetailAlbedoMap_ST"
						},
						{
							"name":"_DetailAlbedoMap_ST_S",
							"value":"_DetailAlbedoMap_ST_S"
						},
						{
							"name":"_DetailAlbedoMap_ST_T",
							"value":"_DetailAlbedoMap_ST_T"
						},
						{
							"name":"_DetailNormalMap_ST",
							"value":"_DetailNormalMap_ST"
						},
						{
							"name":"_DetailNormalMap_ST_S",
							"value":"_DetailNormalMap_ST_S"
						},
						{
							"name":"_DetailNormalMap_ST_T",
							"value":"_DetailNormalMap_ST_T"
						}
					],
					"vrm0_material_mtoon0_property_names":[
						{
							"name":"_Color",
							"value":"_Color"
						},
						{
							"name":"_ShadeColor",
							"value":"_ShadeColor"
						},
						{
							"name":"_MainTex_ST",
							"value":"_MainTex_ST"
						},
						{
							"name":"_MainTex_ST_S",
							"value":"_MainTex_ST_S"
						},
						{
							"name":"_MainTex_ST_T",
							"value":"_MainTex_ST_T"
						},
						{
							"name":"_ShadeTexture_ST",
							"value":"_ShadeTexture_ST"
						},
						{
							"name":"_ShadeTexture_ST_S",
							"value":"_ShadeTexture_ST_S"
						},
						{
							"name":"_ShadeTexture_ST_T",
							"value":"_ShadeTexture_ST_T"
						},
						{
							"name":"_BumpMap_ST",
							"value":"_BumpMap_ST"
						},
						{
							"name":"_BumpMap_ST_S",
							"value":"_BumpMap_ST_S"
						},
						{
							"name":"_BumpMap_ST_T",
							"value":"_BumpMap_ST_T"
						},
						{
							"name":"_ReceiveShadowTexture_ST",
							"value":"_ReceiveShadowTexture_ST"
						},
						{
							"name":"_ReceiveShadowTexture_ST_S",
							"value":"_ReceiveShadowTexture_ST_S"
						},
						{
							"name":"_ReceiveShadowTexture_ST_T",
							"value":"_ReceiveShadowTexture_ST_T"
						},
						{
							"name":"_ShadingGradeTexture_ST",
							"value":"_ShadingGradeTexture_ST"
						},
						{
							"name":"_ShadingGradeTexture_ST_S",
							"value":"_ShadingGradeTexture_ST_S"
						},
						{
							"name":"_ShadingGradeTexture_ST_T",
							"value":"_ShadingGradeTexture_ST_T"
						},
						{
							"name":"_RimColor",
							"value":"_RimColor"
						},
						{
							"name":"_RimTexture_ST",
							"value":"_RimTexture_ST"
						},
						{
							"name":"_RimTexture_ST_S",
							"value":"_RimTexture_ST_S"
						},
						{
							"name":"_RimTexture_ST_T",
							"value":"_RimTexture_ST_T"
						},
						{
							"name":"_SphereAdd_ST",
							"value":"_SphereAdd_ST"
						},
						{
							"name":"_SphereAdd_ST_S",
							"value":"_SphereAdd_ST_S"
						},
						{
							"name":"_SphereAdd_ST_T",
							"value":"_SphereAdd_ST_T"
						},
						{
							"name":"_EmissionColor",
							"value":"_EmissionColor"
						},
						{
							"name":"_EmissionMap_ST",
							"value":"_EmissionMap_ST"
						},
						{
							"name":"_EmissionMap_ST_S",
							"value":"_EmissionMap_ST_S"
						},
						{
							"name":"_EmissionMap_ST_T",
							"value":"_EmissionMap_ST_T"
						},
						{
							"name":"_OutlineWidthTexture_ST",
							"value":"_OutlineWidthTexture_ST"
						},
						{
							"name":"_OutlineWidthTexture_ST_S",
							"value":"_OutlineWidthTexture_ST_S"
						},
						{
							"name":"_OutlineWidthTexture_ST_T",
							"value":"_OutlineWidthTexture_ST_T"
						},
						{
							"name":"_OutlineColor",
							"value":"_OutlineColor"
						},
						{
							"name":"_UvAnimMaskTexture_ST",
							"value":"_UvAnimMaskTexture_ST"
						},
						{
							"name":"_UvAnimMaskTexture_ST_S",
							"value":"_UvAnimMaskTexture_ST_S"
						},
						{
							"name":"_UvAnimMaskTexture_ST_T",
							"value":"_UvAnimMaskTexture_ST_T"
						}
					]
				},
				"recast_navmesh":{},
				"uuid":"5bf082ca-3e0c-4af8-b678-4b6de50f4f55",
				"assets reported":{},
				"created_collider":{}
			},
			"name":"Scene",
			"nodes":[
				2
			]
		}
	],
	"nodes":[
		{
			"mesh":0,
			"name":"ReNe_Round_Cube_Table.001",
			"translation":[
				-0.0408635139465332,
				0.5142011046409607,
				-0.025632858276367188
			]
		},
		{
			"extras":{
				"xrengine.EE_collider.shape":"box",
				"xrengine.entity":"ReNe_Round_Cube_Table_bcol"
			},
			"mesh":1,
			"name":"ReNe_Round_Cube_Table_bcol",
			"translation":[
				-0.040863633155822754,
				0.4153040647506714,
				-0.025632858276367188
			]
		},
		{
			"children":[
				0,
				1
			],
			"extras":{
				"xrengine.EE_rigidbody.type":"fixed",
				"xrengine.entity":"Retro_Neon_Props"
			},
			"name":"ReNe_Round_Cube_Table",
			"translation":[
				0,
				0,
				5.804760932922363
			]
		}
	],
	"materials":[
		{
			"doubleSided":true,
			"extras":{
				"vrm_addon_extension":{
					"mtoon1":{}
				}
			},
			"name":"shinnyWall_MAT",
			"pbrMetallicRoughness":{
				"baseColorFactor":[
					0.800000011920929,
					0.800000011920929,
					0.800000011920929,
					1
				],
				"metallicFactor":0,
				"roughnessFactor":0.06281405687332153
			}
		},
		{
			"doubleSided":true,
			"extras":{
				"vrm_addon_extension":{
					"mtoon1":{
						"pbr_metallic_roughness":{
							"base_color_texture":{}
						},
						"normal_texture":{},
						"emissive_texture":{},
						"extensions":{
							"vrmc_materials_mtoon":{
								"shade_multiply_texture":{},
								"shading_shift_texture":{},
								"matcap_texture":{},
								"rim_multiply_texture":{},
								"outline_width_multiply_texture":{},
								"uv_animation_mask_texture":{}
							}
						}
					}
				}
			},
			"name":"Accent",
			"pbrMetallicRoughness":{
				"baseColorFactor":[
					0.5416000485420227,
					0.18157503008842468,
					0.800774097442627,
					1
				],
				"metallicFactor":0,
				"roughnessFactor":0.5
			}
		}
	],
	"meshes":[
		{
			"name":"roundCubeTable_GEO.009",
			"primitives":[
				{
					"attributes":{
						"POSITION":0,
						"NORMAL":1,
						"TEXCOORD_0":2
					},
					"indices":3,
					"material":0
				},
				{
					"attributes":{
						"POSITION":4,
						"NORMAL":5,
						"TEXCOORD_0":6
					},
					"indices":7,
					"material":1
				}
			]
		},
		{
			"name":"Cube.004",
			"primitives":[
				{
					"attributes":{
						"POSITION":8,
						"NORMAL":9,
						"TEXCOORD_0":10
					},
					"indices":11
				}
			]
		}
	],
	"accessors":[
		{
			"bufferView":0,
			"componentType":5126,
			"count":2184,
			"max":[
				0.4817996621131897,
				0.32895925641059875,
				0.8969032168388367
			],
			"min":[
				-0.4817996621131897,
				-0.5267533659934998,
				-0.8969038128852844
			],
			"type":"VEC3"
		},
		{
			"bufferView":1,
			"componentType":5126,
			"count":2184,
			"type":"VEC3"
		},
		{
			"bufferView":2,
			"componentType":5126,
			"count":2184,
			"type":"VEC2"
		},
		{
			"bufferView":3,
			"componentType":5123,
			"count":10416,
			"type":"SCALAR"
		},
		{
			"bufferView":4,
			"componentType":5126,
			"count":128,
			"max":[
				0.40192320942878723,
				0.180942565202713,
				0.8193108439445496
			],
			"min":[
				-0.40192320942878723,
				-0.08200379461050034,
				-0.8193104863166809
			],
			"type":"VEC3"
		},
		{
			"bufferView":5,
			"componentType":5126,
			"count":128,
			"type":"VEC3"
		},
		{
			"bufferView":6,
			"componentType":5126,
			"count":128,
			"type":"VEC2"
		},
		{
			"bufferView":7,
			"componentType":5123,
			"count":384,
			"type":"SCALAR"
		},
		{
			"bufferView":8,
			"componentType":5126,
			"count":24,
			"max":[
				0.481799840927124,
				0.42785632610321045,
				0.8969035148620605
			],
			"min":[
				-0.4817996025085449,
				-0.42785632610321045,
				-0.8969035148620605
			],
			"type":"VEC3"
		},
		{
			"bufferView":9,
			"componentType":5126,
			"count":24,
			"type":"VEC3"
		},
		{
			"bufferView":10,
			"componentType":5126,
			"count":24,
			"type":"VEC2"
		},
		{
			"bufferView":11,
			"componentType":5123,
			"count":36,
			"type":"SCALAR"
		}
	],
	"bufferViews":[
		{
			"buffer":0,
			"byteLength":26208,
			"byteOffset":0,
			"target":34962
		},
		{
			"buffer":0,
			"byteLength":26208,
			"byteOffset":26208,
			"target":34962
		},
		{
			"buffer":0,
			"byteLength":17472,
			"byteOffset":52416,
			"target":34962
		},
		{
			"buffer":0,
			"byteLength":20832,
			"byteOffset":69888,
			"target":34963
		},
		{
			"buffer":0,
			"byteLength":1536,
			"byteOffset":90720,
			"target":34962
		},
		{
			"buffer":0,
			"byteLength":1536,
			"byteOffset":92256,
			"target":34962
		},
		{
			"buffer":0,
			"byteLength":1024,
			"byteOffset":93792,
			"target":34962
		},
		{
			"buffer":0,
			"byteLength":768,
			"byteOffset":94816,
			"target":34963
		},
		{
			"buffer":0,
			"byteLength":288,
			"byteOffset":95584,
			"target":34962
		},
		{
			"buffer":0,
			"byteLength":288,
			"byteOffset":95872,
			"target":34962
		},
		{
			"buffer":0,
			"byteLength":192,
			"byteOffset":96160,
			"target":34962
		},
		{
			"buffer":0,
			"byteLength":72,
			"byteOffset":96352,
			"target":34963
		}
	],
	"buffers":[
		{
			"byteLength":96424,
			"uri":"ReNe_Round_Cube_Table.bin"
		}
	]
}
