{
	"asset":{
		"generator":"Khronos glTF Blender I/O v3.6.28",
		"version":"2.0"
	},
	"extensionsUsed":[
		"KHR_materials_transmission",
		"KHR_materials_specular",
		"KHR_materials_ior"
	],
	"scene":0,
	"scenes":[
		{
			"extras":{
				"xol_link_apps":[
					{
						"id":62564,
						"port":"62564",
						"type":"BLD",
						"label":"Blender Foundation - Blender"
					},
					{
						"id":62621,
						"port":"62621",
						"type":"BLD",
						"label":"Blender Foundation - Blender"
					},
					{
						"id":64743,
						"port":"64743",
						"type":"BLD",
						"label":"Blender Foundation - Blender"
					}
				],
				"xol_link_apps_list":0
			},
			"name":"Scene",
			"nodes":[
				3
			]
		}
	],
	"nodes":[
		{
			"mesh":0,
			"name":"shapes_rounded_light"
		},
		{
			"mesh":1,
			"name":"shapes_rounded_plinth"
		},
		{
			"extras":{
				"xrengine.entity":"collider",
				"xrengine.EE_collider.shape":"box"
			},
			"mesh":2,
			"name":"shapes_rounded_plinth_collider"
		},
		{
			"children":[
				0,
				1,
				2
			],
			"extras":{
				"xrengine.entity":"rbd",
				"xrengine.EE_rigidbody.type":"fixed"
			},
			"name":"rounded_platform"
		}
	],
	"materials":[
		{
			"doubleSided":true,
			"extensions":{
				"KHR_materials_transmission":{
					"transmissionFactor":1
				},
				"KHR_materials_specular":{
					"specularColorFactor":[
						1,
						1,
						1
					]
				},
				"KHR_materials_ior":{
					"ior":1.4500000476837158
				}
			},
			"name":"wire_115115115",
			"pbrMetallicRoughness":{
				"baseColorFactor":[
					0.45100000500679016,
					0.45100000500679016,
					0.45100000500679016,
					1
				],
				"metallicFactor":0,
				"roughnessFactor":0.8211145401000977
			}
		},
		{
			"doubleSided":true,
			"extensions":{
				"KHR_materials_transmission":{
					"transmissionFactor":1
				},
				"KHR_materials_specular":{
					"specularColorFactor":[
						1,
						1,
						1
					]
				},
				"KHR_materials_ior":{
					"ior":1.5199999809265137
				}
			},
			"name":"01___Default",
			"pbrMetallicRoughness":{
				"baseColorFactor":[
					0.25,
					0.25,
					0.30230000615119934,
					1
				],
				"roughnessFactor":0.28999999165534973
			}
		}
	],
	"meshes":[
		{
			"name":"Capsule002",
			"primitives":[
				{
					"attributes":{
						"POSITION":0,
						"NORMAL":1,
						"TEXCOORD_0":2
					},
					"indices":3,
					"material":0
				}
			]
		},
		{
			"name":"Line002.001",
			"primitives":[
				{
					"attributes":{
						"POSITION":4,
						"NORMAL":5
					},
					"indices":6,
					"material":1
				}
			]
		},
		{
			"name":"Line002",
			"primitives":[
				{
					"attributes":{
						"POSITION":7,
						"NORMAL":8
					},
					"indices":9,
					"material":1
				}
			]
		}
	],
	"accessors":[
		{
			"bufferView":0,
			"componentType":5126,
			"count":2126,
			"max":[
				0.892781138420105,
				5.107951641082764,
				0.864799976348877
			],
			"min":[
				-0.8264188766479492,
				2.0716514587402344,
				-1.0658999681472778
			],
			"type":"VEC3"
		},
		{
			"bufferView":1,
			"componentType":5126,
			"count":2126,
			"type":"VEC3"
		},
		{
			"bufferView":2,
			"componentType":5126,
			"count":2126,
			"type":"VEC2"
		},
		{
			"bufferView":3,
			"componentType":5123,
			"count":8946,
			"type":"SCALAR"
		},
		{
			"bufferView":4,
			"componentType":5126,
			"count":936,
			"max":[
				1.1475811004638672,
				0.31925156712532043,
				1.0781999826431274
			],
			"min":[
				-1.0835187435150146,
				0.00035155564546585083,
				-1.3417999744415283
			],
			"type":"VEC3"
		},
		{
			"bufferView":5,
			"componentType":5126,
			"count":936,
			"type":"VEC3"
		},
		{
			"bufferView":6,
			"componentType":5123,
			"count":5394,
			"type":"SCALAR"
		},
		{
			"bufferView":7,
			"componentType":5126,
			"count":28,
			"max":[
				1.1479978561401367,
				0.31739842891693115,
				1.1039973497390747
			],
			"min":[
				-1.0892517566680908,
				-0.0013605281710624695,
				-1.349198818206787
			],
			"type":"VEC3"
		},
		{
			"bufferView":8,
			"componentType":5126,
			"count":28,
			"type":"VEC3"
		},
		{
			"bufferView":9,
			"componentType":5123,
			"count":126,
			"type":"SCALAR"
		}
	],
	"bufferViews":[
		{
			"buffer":0,
			"byteLength":25512,
			"byteOffset":0,
			"target":34962
		},
		{
			"buffer":0,
			"byteLength":25512,
			"byteOffset":25512,
			"target":34962
		},
		{
			"buffer":0,
			"byteLength":17008,
			"byteOffset":51024,
			"target":34962
		},
		{
			"buffer":0,
			"byteLength":17892,
			"byteOffset":68032,
			"target":34963
		},
		{
			"buffer":0,
			"byteLength":11232,
			"byteOffset":85924,
			"target":34962
		},
		{
			"buffer":0,
			"byteLength":11232,
			"byteOffset":97156,
			"target":34962
		},
		{
			"buffer":0,
			"byteLength":10788,
			"byteOffset":108388,
			"target":34963
		},
		{
			"buffer":0,
			"byteLength":336,
			"byteOffset":119176,
			"target":34962
		},
		{
			"buffer":0,
			"byteLength":336,
			"byteOffset":119512,
			"target":34962
		},
		{
			"buffer":0,
			"byteLength":252,
			"byteOffset":119848,
			"target":34963
		}
	],
	"buffers":[
		{
			"byteLength":120100,
			"uri":"rounded_platform.bin"
		}
	]
}
