{
	"asset":{
		"generator":"Khronos glTF Blender I/O v3.6.28",
		"version":"2.0"
	},
	"extensionsUsed":[
		"KHR_materials_transmission",
		"KHR_materials_specular",
		"KHR_materials_ior"
	],
	"scene":0,
	"scenes":[
		{
			"extras":{
				"xol_link_apps":[
					{
						"id":62564,
						"port":"62564",
						"type":"BLD",
						"label":"Blender Foundation - Blender"
					},
					{
						"id":62621,
						"port":"62621",
						"type":"BLD",
						"label":"Blender Foundation - Blender"
					},
					{
						"id":64743,
						"port":"64743",
						"type":"BLD",
						"label":"Blender Foundation - Blender"
					}
				],
				"xol_link_apps_list":0
			},
			"name":"Scene",
			"nodes":[
				3
			]
		}
	],
	"nodes":[
		{
			"mesh":0,
			"name":"shapes_triangle_light"
		},
		{
			"mesh":1,
			"name":"shapes_triangle_plinth"
		},
		{
			"extras":{
				"xrengine.entity":"triangle_plinth_collider",
				"xrengine.EE_collider.shape":"mesh"
			},
			"mesh":2,
			"name":"shapes_triangle_plinth_collider"
		},
		{
			"children":[
				0,
				1,
				2
			],
			"extras":{
				"xrengine.entity":"rbd",
				"xrengine.EE_rigidbody.type":"fixed"
			},
			"name":"triangle_plinths"
		}
	],
	"materials":[
		{
			"doubleSided":true,
			"extensions":{
				"KHR_materials_transmission":{
					"transmissionFactor":1
				},
				"KHR_materials_specular":{
					"specularColorFactor":[
						1,
						1,
						1
					]
				},
				"KHR_materials_ior":{
					"ior":1.5199999809265137
				}
			},
			"name":"01___Default",
			"pbrMetallicRoughness":{
				"baseColorFactor":[
					0.25,
					0.25,
					0.30230000615119934,
					1
				],
				"roughnessFactor":0.28999999165534973
			}
		},
		{
			"doubleSided":true,
			"name":"Material",
			"pbrMetallicRoughness":{
				"baseColorFactor":[
					0.800000011920929,
					0.800000011920929,
					0.800000011920929,
					1
				],
				"metallicFactor":0,
				"roughnessFactor":0.5
			}
		}
	],
	"meshes":[
		{
			"name":"shapes_triangle_light",
			"primitives":[
				{
					"attributes":{
						"POSITION":0,
						"NORMAL":1,
						"TEXCOORD_0":2
					},
					"indices":3,
					"material":0
				}
			]
		},
		{
			"name":"shapes_triangle_plinth",
			"primitives":[
				{
					"attributes":{
						"POSITION":4,
						"NORMAL":5,
						"TEXCOORD_0":6
					},
					"indices":7,
					"material":0
				}
			]
		},
		{
			"name":"shapes_triangle_plinth.001",
			"primitives":[
				{
					"attributes":{
						"POSITION":8,
						"NORMAL":9,
						"TEXCOORD_0":10
					},
					"indices":7,
					"material":1
				}
			]
		}
	],
	"accessors":[
		{
			"bufferView":0,
			"componentType":5126,
			"count":297,
			"max":[
				0.7815812826156616,
				2.1619744300842285,
				0.8705129027366638
			],
			"min":[
				-0.8158187866210938,
				1.9874744415283203,
				-0.8395870923995972
			],
			"type":"VEC3"
		},
		{
			"bufferView":1,
			"componentType":5126,
			"count":297,
			"type":"VEC3"
		},
		{
			"bufferView":2,
			"componentType":5126,
			"count":297,
			"type":"VEC2"
		},
		{
			"bufferView":3,
			"componentType":5123,
			"count":936,
			"type":"SCALAR"
		},
		{
			"bufferView":4,
			"componentType":5126,
			"count":228,
			"max":[
				0.7815812826156616,
				0.8314743041992188,
				0.8705129027366638
			],
			"min":[
				-0.8158187866210938,
				0.004274331033229828,
				-0.8395870923995972
			],
			"type":"VEC3"
		},
		{
			"bufferView":5,
			"componentType":5126,
			"count":228,
			"type":"VEC3"
		},
		{
			"bufferView":6,
			"componentType":5126,
			"count":228,
			"type":"VEC2"
		},
		{
			"bufferView":7,
			"componentType":5123,
			"count":441,
			"type":"SCALAR"
		},
		{
			"bufferView":8,
			"componentType":5126,
			"count":228,
			"max":[
				0.7815812826156616,
				0.8314743041992188,
				0.8705129027366638
			],
			"min":[
				-0.8158187866210938,
				0.004274331033229828,
				-0.8395870923995972
			],
			"type":"VEC3"
		},
		{
			"bufferView":9,
			"componentType":5126,
			"count":228,
			"type":"VEC3"
		},
		{
			"bufferView":10,
			"componentType":5126,
			"count":228,
			"type":"VEC2"
		}
	],
	"bufferViews":[
		{
			"buffer":0,
			"byteLength":3564,
			"byteOffset":0,
			"target":34962
		},
		{
			"buffer":0,
			"byteLength":3564,
			"byteOffset":3564,
			"target":34962
		},
		{
			"buffer":0,
			"byteLength":2376,
			"byteOffset":7128,
			"target":34962
		},
		{
			"buffer":0,
			"byteLength":1872,
			"byteOffset":9504,
			"target":34963
		},
		{
			"buffer":0,
			"byteLength":2736,
			"byteOffset":11376,
			"target":34962
		},
		{
			"buffer":0,
			"byteLength":2736,
			"byteOffset":14112,
			"target":34962
		},
		{
			"buffer":0,
			"byteLength":1824,
			"byteOffset":16848,
			"target":34962
		},
		{
			"buffer":0,
			"byteLength":882,
			"byteOffset":18672,
			"target":34963
		},
		{
			"buffer":0,
			"byteLength":2736,
			"byteOffset":19556,
			"target":34962
		},
		{
			"buffer":0,
			"byteLength":2736,
			"byteOffset":22292,
			"target":34962
		},
		{
			"buffer":0,
			"byteLength":1824,
			"byteOffset":25028,
			"target":34962
		}
	],
	"buffers":[
		{
			"byteLength":26852,
			"uri":"triangle_plinths.bin"
		}
	]
}
