{
	"asset":{
		"generator":"Khronos glTF Blender I/O v4.0.44",
		"version":"2.0"
	},
	"scene":0,
	"scenes":[
		{
			"extras":{
				"sun_pos_properties":{
					"show_surface":0,
					"show_analemmas":0,
					"show_north":0,
					"latitude":0.0,
					"day_of_year":66,
					"sun_object":{},
					"object_collection":{}
				},
				"vrm_addon_extension":{
					"vrm0_material_gltf_property_names":[
						{
							"name":"_Color",
							"value":"_Color"
						},
						{
							"name":"_MainTex_ST",
							"value":"_MainTex_ST"
						},
						{
							"name":"_MainTex_ST_S",
							"value":"_MainTex_ST_S"
						},
						{
							"name":"_MainTex_ST_T",
							"value":"_MainTex_ST_T"
						},
						{
							"name":"_MetallicGlossMap_ST",
							"value":"_MetallicGlossMap_ST"
						},
						{
							"name":"_MetallicGlossMap_ST_S",
							"value":"_MetallicGlossMap_ST_S"
						},
						{
							"name":"_MetallicGlossMap_ST_T",
							"value":"_MetallicGlossMap_ST_T"
						},
						{
							"name":"_BumpMap_ST",
							"value":"_BumpMap_ST"
						},
						{
							"name":"_BumpMap_ST_S",
							"value":"_BumpMap_ST_S"
						},
						{
							"name":"_BumpMap_ST_T",
							"value":"_BumpMap_ST_T"
						},
						{
							"name":"_ParallaxMap_ST",
							"value":"_ParallaxMap_ST"
						},
						{
							"name":"_ParallaxMap_ST_S",
							"value":"_ParallaxMap_ST_S"
						},
						{
							"name":"_ParallaxMap_ST_T",
							"value":"_ParallaxMap_ST_T"
						},
						{
							"name":"_OcclusionMap_ST",
							"value":"_OcclusionMap_ST"
						},
						{
							"name":"_OcclusionMap_ST_S",
							"value":"_OcclusionMap_ST_S"
						},
						{
							"name":"_OcclusionMap_ST_T",
							"value":"_OcclusionMap_ST_T"
						},
						{
							"name":"_EmissionColor",
							"value":"_EmissionColor"
						},
						{
							"name":"_EmissionMap_ST",
							"value":"_EmissionMap_ST"
						},
						{
							"name":"_EmissionMap_ST_S",
							"value":"_EmissionMap_ST_S"
						},
						{
							"name":"_EmissionMap_ST_T",
							"value":"_EmissionMap_ST_T"
						},
						{
							"name":"_DetailMask_ST",
							"value":"_DetailMask_ST"
						},
						{
							"name":"_DetailMask_ST_S",
							"value":"_DetailMask_ST_S"
						},
						{
							"name":"_DetailMask_ST_T",
							"value":"_DetailMask_ST_T"
						},
						{
							"name":"_DetailAlbedoMap_ST",
							"value":"_DetailAlbedoMap_ST"
						},
						{
							"name":"_DetailAlbedoMap_ST_S",
							"value":"_DetailAlbedoMap_ST_S"
						},
						{
							"name":"_DetailAlbedoMap_ST_T",
							"value":"_DetailAlbedoMap_ST_T"
						},
						{
							"name":"_DetailNormalMap_ST",
							"value":"_DetailNormalMap_ST"
						},
						{
							"name":"_DetailNormalMap_ST_S",
							"value":"_DetailNormalMap_ST_S"
						},
						{
							"name":"_DetailNormalMap_ST_T",
							"value":"_DetailNormalMap_ST_T"
						}
					],
					"vrm0_material_mtoon0_property_names":[
						{
							"name":"_Color",
							"value":"_Color"
						},
						{
							"name":"_ShadeColor",
							"value":"_ShadeColor"
						},
						{
							"name":"_MainTex_ST",
							"value":"_MainTex_ST"
						},
						{
							"name":"_MainTex_ST_S",
							"value":"_MainTex_ST_S"
						},
						{
							"name":"_MainTex_ST_T",
							"value":"_MainTex_ST_T"
						},
						{
							"name":"_ShadeTexture_ST",
							"value":"_ShadeTexture_ST"
						},
						{
							"name":"_ShadeTexture_ST_S",
							"value":"_ShadeTexture_ST_S"
						},
						{
							"name":"_ShadeTexture_ST_T",
							"value":"_ShadeTexture_ST_T"
						},
						{
							"name":"_BumpMap_ST",
							"value":"_BumpMap_ST"
						},
						{
							"name":"_BumpMap_ST_S",
							"value":"_BumpMap_ST_S"
						},
						{
							"name":"_BumpMap_ST_T",
							"value":"_BumpMap_ST_T"
						},
						{
							"name":"_ReceiveShadowTexture_ST",
							"value":"_ReceiveShadowTexture_ST"
						},
						{
							"name":"_ReceiveShadowTexture_ST_S",
							"value":"_ReceiveShadowTexture_ST_S"
						},
						{
							"name":"_ReceiveShadowTexture_ST_T",
							"value":"_ReceiveShadowTexture_ST_T"
						},
						{
							"name":"_ShadingGradeTexture_ST",
							"value":"_ShadingGradeTexture_ST"
						},
						{
							"name":"_ShadingGradeTexture_ST_S",
							"value":"_ShadingGradeTexture_ST_S"
						},
						{
							"name":"_ShadingGradeTexture_ST_T",
							"value":"_ShadingGradeTexture_ST_T"
						},
						{
							"name":"_RimColor",
							"value":"_RimColor"
						},
						{
							"name":"_RimTexture_ST",
							"value":"_RimTexture_ST"
						},
						{
							"name":"_RimTexture_ST_S",
							"value":"_RimTexture_ST_S"
						},
						{
							"name":"_RimTexture_ST_T",
							"value":"_RimTexture_ST_T"
						},
						{
							"name":"_SphereAdd_ST",
							"value":"_SphereAdd_ST"
						},
						{
							"name":"_SphereAdd_ST_S",
							"value":"_SphereAdd_ST_S"
						},
						{
							"name":"_SphereAdd_ST_T",
							"value":"_SphereAdd_ST_T"
						},
						{
							"name":"_EmissionColor",
							"value":"_EmissionColor"
						},
						{
							"name":"_EmissionMap_ST",
							"value":"_EmissionMap_ST"
						},
						{
							"name":"_EmissionMap_ST_S",
							"value":"_EmissionMap_ST_S"
						},
						{
							"name":"_EmissionMap_ST_T",
							"value":"_EmissionMap_ST_T"
						},
						{
							"name":"_OutlineWidthTexture_ST",
							"value":"_OutlineWidthTexture_ST"
						},
						{
							"name":"_OutlineWidthTexture_ST_S",
							"value":"_OutlineWidthTexture_ST_S"
						},
						{
							"name":"_OutlineWidthTexture_ST_T",
							"value":"_OutlineWidthTexture_ST_T"
						},
						{
							"name":"_OutlineColor",
							"value":"_OutlineColor"
						},
						{
							"name":"_UvAnimMaskTexture_ST",
							"value":"_UvAnimMaskTexture_ST"
						},
						{
							"name":"_UvAnimMaskTexture_ST_S",
							"value":"_UvAnimMaskTexture_ST_S"
						},
						{
							"name":"_UvAnimMaskTexture_ST_T",
							"value":"_UvAnimMaskTexture_ST_T"
						}
					]
				},
				"puresky_properties":{
					"int_flag_updt_camera":1
				},
				"muv_pack_uv_enabled":0,
				"handy_toolset_props":{},
				"retopo_target":{},
				"uuid":"eb44b635-cf8f-407b-8bcb-3687f5cabf28",
				"assets reported":{},
				"recast_navmesh":{},
				"HubsComponentsExtensionImportProperties":{},
				"assets used":{},
				"created_collider":{}
			},
			"name":"Scene",
			"nodes":[
				2
			]
		}
	],
	"nodes":[
		{
			"extras":{
				"MaxHandle":1441
			},
			"mesh":0,
			"name":"UpLu_Wall_Foliage.002",
			"scale":[
				0.02539999969303608,
				0.02539999969303608,
				0.02539999969303608
			],
			"translation":[
				-0.08048850297927856,
				-0.8348926305770874,
				0.13769255578517914
			]
		},
		{
			"extras":{
				"xrengine.EE_collider.shape":"box",
				"xrengine.entity":"UpLu_Wall_Foliage_bcol"
			},
			"mesh":1,
			"name":"UpLu_Wall_Foliage_bcol"
		},
		{
			"children":[
				0,
				1
			],
			"extras":{
				"xrengine.EE_rigidbody.type":"fixed",
				"xrengine.entity":"Upscale_Luxury_Props"
			},
			"name":"UpLu_Wall_Foliage"
		}
	],
	"materials":[
		{
			"doubleSided":true,
			"name":"Uplu_Atlas_01",
			"normalTexture":{
				"index":0
			},
			"pbrMetallicRoughness":{
				"baseColorTexture":{
					"index":1
				},
				"metallicFactor":0,
				"metallicRoughnessTexture":{
					"index":2
				}
			}
		}
	],
	"meshes":[
		{
			"name":"Mesh.021",
			"primitives":[
				{
					"attributes":{
						"POSITION":0,
						"NORMAL":1,
						"TEXCOORD_0":2
					},
					"indices":3,
					"material":0
				}
			]
		},
		{
			"name":"Cube.012",
			"primitives":[
				{
					"attributes":{
						"POSITION":4,
						"NORMAL":5,
						"TEXCOORD_0":6
					},
					"indices":7
				}
			]
		}
	],
	"textures":[
		{
			"sampler":0,
			"source":0
		},
		{
			"sampler":0,
			"source":1
		},
		{
			"sampler":0,
			"source":2
		}
	],
	"images":[
		{
			"mimeType":"image/png",
			"name":"UpLu_Rough",
			"uri":"UpLu_Rough.png"
		},
		{
			"mimeType":"image/png",
			"name":"UpLu_Diff",
			"uri":"UpLu_Diff.png"
		},
		{
			"mimeType":"image/png",
			"name":"UpLu_Rough",
			"uri":"UpLu_Rough-1.png"
		}
	],
	"accessors":[
		{
			"bufferView":0,
			"componentType":5126,
			"count":15506,
			"max":[
				80.55809020996094,
				37.0760498046875,
				10.376474380493164
			],
			"min":[
				-78.58405303955078,
				-76.62344360351562,
				-14.924758911132812
			],
			"type":"VEC3"
		},
		{
			"bufferView":1,
			"componentType":5126,
			"count":15506,
			"type":"VEC3"
		},
		{
			"bufferView":2,
			"componentType":5126,
			"count":15506,
			"type":"VEC2"
		},
		{
			"bufferView":3,
			"componentType":5123,
			"count":31338,
			"type":"SCALAR"
		},
		{
			"bufferView":4,
			"componentType":5126,
			"count":24,
			"max":[
				1.9656870365142822,
				0.10683894157409668,
				0.4012550115585327
			],
			"min":[
				-2.076523542404175,
				-2.7811279296875,
				-0.24139630794525146
			],
			"type":"VEC3"
		},
		{
			"bufferView":5,
			"componentType":5126,
			"count":24,
			"type":"VEC3"
		},
		{
			"bufferView":6,
			"componentType":5126,
			"count":24,
			"type":"VEC2"
		},
		{
			"bufferView":7,
			"componentType":5123,
			"count":36,
			"type":"SCALAR"
		}
	],
	"bufferViews":[
		{
			"buffer":0,
			"byteLength":186072,
			"byteOffset":0,
			"target":34962
		},
		{
			"buffer":0,
			"byteLength":186072,
			"byteOffset":186072,
			"target":34962
		},
		{
			"buffer":0,
			"byteLength":124048,
			"byteOffset":372144,
			"target":34962
		},
		{
			"buffer":0,
			"byteLength":62676,
			"byteOffset":496192,
			"target":34963
		},
		{
			"buffer":0,
			"byteLength":288,
			"byteOffset":558868,
			"target":34962
		},
		{
			"buffer":0,
			"byteLength":288,
			"byteOffset":559156,
			"target":34962
		},
		{
			"buffer":0,
			"byteLength":192,
			"byteOffset":559444,
			"target":34962
		},
		{
			"buffer":0,
			"byteLength":72,
			"byteOffset":559636,
			"target":34963
		}
	],
	"samplers":[
		{
			"magFilter":9729,
			"minFilter":9987
		}
	],
	"buffers":[
		{
			"byteLength":559708,
			"uri":"UpLu_Wall_Foliage.bin"
		}
	]
}
