{
	"asset":{
		"generator":"Khronos glTF Blender I/O v4.0.44",
		"version":"2.0"
	},
	"extensionsUsed":[
		"KHR_materials_emissive_strength"
	],
	"scene":0,
	"scenes":[
		{
			"extras":{
				"sun_pos_properties":{
					"show_surface":0,
					"show_analemmas":0,
					"show_north":0,
					"latitude":0.0,
					"day_of_year":66,
					"sun_object":{},
					"object_collection":{}
				},
				"vrm_addon_extension":{
					"vrm0_material_gltf_property_names":[
						{
							"name":"_Color",
							"value":"_Color"
						},
						{
							"name":"_MainTex_ST",
							"value":"_MainTex_ST"
						},
						{
							"name":"_MainTex_ST_S",
							"value":"_MainTex_ST_S"
						},
						{
							"name":"_MainTex_ST_T",
							"value":"_MainTex_ST_T"
						},
						{
							"name":"_MetallicGlossMap_ST",
							"value":"_MetallicGlossMap_ST"
						},
						{
							"name":"_MetallicGlossMap_ST_S",
							"value":"_MetallicGlossMap_ST_S"
						},
						{
							"name":"_MetallicGlossMap_ST_T",
							"value":"_MetallicGlossMap_ST_T"
						},
						{
							"name":"_BumpMap_ST",
							"value":"_BumpMap_ST"
						},
						{
							"name":"_BumpMap_ST_S",
							"value":"_BumpMap_ST_S"
						},
						{
							"name":"_BumpMap_ST_T",
							"value":"_BumpMap_ST_T"
						},
						{
							"name":"_ParallaxMap_ST",
							"value":"_ParallaxMap_ST"
						},
						{
							"name":"_ParallaxMap_ST_S",
							"value":"_ParallaxMap_ST_S"
						},
						{
							"name":"_ParallaxMap_ST_T",
							"value":"_ParallaxMap_ST_T"
						},
						{
							"name":"_OcclusionMap_ST",
							"value":"_OcclusionMap_ST"
						},
						{
							"name":"_OcclusionMap_ST_S",
							"value":"_OcclusionMap_ST_S"
						},
						{
							"name":"_OcclusionMap_ST_T",
							"value":"_OcclusionMap_ST_T"
						},
						{
							"name":"_EmissionColor",
							"value":"_EmissionColor"
						},
						{
							"name":"_EmissionMap_ST",
							"value":"_EmissionMap_ST"
						},
						{
							"name":"_EmissionMap_ST_S",
							"value":"_EmissionMap_ST_S"
						},
						{
							"name":"_EmissionMap_ST_T",
							"value":"_EmissionMap_ST_T"
						},
						{
							"name":"_DetailMask_ST",
							"value":"_DetailMask_ST"
						},
						{
							"name":"_DetailMask_ST_S",
							"value":"_DetailMask_ST_S"
						},
						{
							"name":"_DetailMask_ST_T",
							"value":"_DetailMask_ST_T"
						},
						{
							"name":"_DetailAlbedoMap_ST",
							"value":"_DetailAlbedoMap_ST"
						},
						{
							"name":"_DetailAlbedoMap_ST_S",
							"value":"_DetailAlbedoMap_ST_S"
						},
						{
							"name":"_DetailAlbedoMap_ST_T",
							"value":"_DetailAlbedoMap_ST_T"
						},
						{
							"name":"_DetailNormalMap_ST",
							"value":"_DetailNormalMap_ST"
						},
						{
							"name":"_DetailNormalMap_ST_S",
							"value":"_DetailNormalMap_ST_S"
						},
						{
							"name":"_DetailNormalMap_ST_T",
							"value":"_DetailNormalMap_ST_T"
						}
					],
					"vrm0_material_mtoon0_property_names":[
						{
							"name":"_Color",
							"value":"_Color"
						},
						{
							"name":"_ShadeColor",
							"value":"_ShadeColor"
						},
						{
							"name":"_MainTex_ST",
							"value":"_MainTex_ST"
						},
						{
							"name":"_MainTex_ST_S",
							"value":"_MainTex_ST_S"
						},
						{
							"name":"_MainTex_ST_T",
							"value":"_MainTex_ST_T"
						},
						{
							"name":"_ShadeTexture_ST",
							"value":"_ShadeTexture_ST"
						},
						{
							"name":"_ShadeTexture_ST_S",
							"value":"_ShadeTexture_ST_S"
						},
						{
							"name":"_ShadeTexture_ST_T",
							"value":"_ShadeTexture_ST_T"
						},
						{
							"name":"_BumpMap_ST",
							"value":"_BumpMap_ST"
						},
						{
							"name":"_BumpMap_ST_S",
							"value":"_BumpMap_ST_S"
						},
						{
							"name":"_BumpMap_ST_T",
							"value":"_BumpMap_ST_T"
						},
						{
							"name":"_ReceiveShadowTexture_ST",
							"value":"_ReceiveShadowTexture_ST"
						},
						{
							"name":"_ReceiveShadowTexture_ST_S",
							"value":"_ReceiveShadowTexture_ST_S"
						},
						{
							"name":"_ReceiveShadowTexture_ST_T",
							"value":"_ReceiveShadowTexture_ST_T"
						},
						{
							"name":"_ShadingGradeTexture_ST",
							"value":"_ShadingGradeTexture_ST"
						},
						{
							"name":"_ShadingGradeTexture_ST_S",
							"value":"_ShadingGradeTexture_ST_S"
						},
						{
							"name":"_ShadingGradeTexture_ST_T",
							"value":"_ShadingGradeTexture_ST_T"
						},
						{
							"name":"_RimColor",
							"value":"_RimColor"
						},
						{
							"name":"_RimTexture_ST",
							"value":"_RimTexture_ST"
						},
						{
							"name":"_RimTexture_ST_S",
							"value":"_RimTexture_ST_S"
						},
						{
							"name":"_RimTexture_ST_T",
							"value":"_RimTexture_ST_T"
						},
						{
							"name":"_SphereAdd_ST",
							"value":"_SphereAdd_ST"
						},
						{
							"name":"_SphereAdd_ST_S",
							"value":"_SphereAdd_ST_S"
						},
						{
							"name":"_SphereAdd_ST_T",
							"value":"_SphereAdd_ST_T"
						},
						{
							"name":"_EmissionColor",
							"value":"_EmissionColor"
						},
						{
							"name":"_EmissionMap_ST",
							"value":"_EmissionMap_ST"
						},
						{
							"name":"_EmissionMap_ST_S",
							"value":"_EmissionMap_ST_S"
						},
						{
							"name":"_EmissionMap_ST_T",
							"value":"_EmissionMap_ST_T"
						},
						{
							"name":"_OutlineWidthTexture_ST",
							"value":"_OutlineWidthTexture_ST"
						},
						{
							"name":"_OutlineWidthTexture_ST_S",
							"value":"_OutlineWidthTexture_ST_S"
						},
						{
							"name":"_OutlineWidthTexture_ST_T",
							"value":"_OutlineWidthTexture_ST_T"
						},
						{
							"name":"_OutlineColor",
							"value":"_OutlineColor"
						},
						{
							"name":"_UvAnimMaskTexture_ST",
							"value":"_UvAnimMaskTexture_ST"
						},
						{
							"name":"_UvAnimMaskTexture_ST_S",
							"value":"_UvAnimMaskTexture_ST_S"
						},
						{
							"name":"_UvAnimMaskTexture_ST_T",
							"value":"_UvAnimMaskTexture_ST_T"
						}
					]
				},
				"puresky_properties":{
					"int_flag_updt_camera":1
				},
				"muv_pack_uv_enabled":0,
				"handy_toolset_props":{},
				"retopo_target":{},
				"uuid":"eb44b635-cf8f-407b-8bcb-3687f5cabf28",
				"assets reported":{},
				"recast_navmesh":{},
				"HubsComponentsExtensionImportProperties":{},
				"assets used":{},
				"created_collider":{}
			},
			"name":"Scene",
			"nodes":[
				2
			]
		}
	],
	"nodes":[
		{
			"extras":{
				"MapChannel:1":"UVChannel_1",
				"MaxHandle":5
			},
			"mesh":0,
			"name":"UpLu_Light_02.001",
			"scale":[
				0.02539999969303608,
				0.02539999969303608,
				0.02539999969303608
			],
			"translation":[
				-0.0013804796617478132,
				-1.1566311120986938,
				-0.014629904180765152
			]
		},
		{
			"extras":{
				"xrengine.EE_collider.shape":"box",
				"xrengine.entity":"UpLu_Light_02_bcol"
			},
			"mesh":1,
			"name":"UpLu_Light_02_bcol"
		},
		{
			"children":[
				0,
				1
			],
			"extras":{
				"xrengine.EE_rigidbody.type":"fixed",
				"xrengine.entity":"Upscale_Luxury_Props"
			},
			"name":"UpLu_Light_02"
		}
	],
	"materials":[
		{
			"doubleSided":true,
			"name":"Black_metal",
			"pbrMetallicRoughness":{
				"baseColorFactor":[
					0,
					0,
					0,
					1
				],
				"metallicFactor":0.7666666507720947,
				"roughnessFactor":0.36190474033355713
			}
		},
		{
			"doubleSided":true,
			"emissiveFactor":[
				1,
				1,
				1
			],
			"emissiveTexture":{
				"index":0
			},
			"extensions":{
				"KHR_materials_emissive_strength":{
					"emissiveStrength":4.199999809265137
				}
			},
			"name":"Uplu_Light",
			"pbrMetallicRoughness":{
				"baseColorTexture":{
					"index":1
				},
				"metallicFactor":0,
				"roughnessFactor":0.5
			}
		},
		{
			"doubleSided":true,
			"name":"UpLu_Atlas_Metal",
			"pbrMetallicRoughness":{
				"baseColorTexture":{
					"index":2
				},
				"roughnessFactor":0
			}
		}
	],
	"meshes":[
		{
			"name":"Mesh.033",
			"primitives":[
				{
					"attributes":{
						"POSITION":0,
						"NORMAL":1,
						"TEXCOORD_0":2
					},
					"indices":3,
					"material":0
				},
				{
					"attributes":{
						"POSITION":4,
						"NORMAL":5,
						"TEXCOORD_0":6
					},
					"indices":7,
					"material":1
				},
				{
					"attributes":{
						"POSITION":8,
						"NORMAL":9,
						"TEXCOORD_0":10
					},
					"indices":11,
					"material":2
				}
			]
		},
		{
			"name":"Cube.009",
			"primitives":[
				{
					"attributes":{
						"POSITION":12,
						"NORMAL":13,
						"TEXCOORD_0":14
					},
					"indices":15
				}
			]
		}
	],
	"textures":[
		{
			"sampler":0,
			"source":0
		},
		{
			"sampler":0,
			"source":0
		},
		{
			"sampler":0,
			"source":0
		}
	],
	"images":[
		{
			"mimeType":"image/png",
			"name":"UpLu_Diff",
			"uri":"UpLu_Diff.png"
		}
	],
	"accessors":[
		{
			"bufferView":0,
			"componentType":5126,
			"count":312,
			"max":[
				16.21209144592285,
				51.49810028076172,
				5.8101420402526855
			],
			"min":[
				-16.103395462036133,
				26.500789642333984,
				-5.925316333770752
			],
			"type":"VEC3"
		},
		{
			"bufferView":1,
			"componentType":5126,
			"count":312,
			"type":"VEC3"
		},
		{
			"bufferView":2,
			"componentType":5126,
			"count":312,
			"type":"VEC2"
		},
		{
			"bufferView":3,
			"componentType":5123,
			"count":636,
			"type":"SCALAR"
		},
		{
			"bufferView":4,
			"componentType":5126,
			"count":100,
			"max":[
				6.767636775970459,
				-21.311527252197266,
				6.2866129875183105
			],
			"min":[
				-5.178404331207275,
				-53.5580940246582,
				-5.1826863288879395
			],
			"type":"VEC3"
		},
		{
			"bufferView":5,
			"componentType":5126,
			"count":100,
			"type":"VEC3"
		},
		{
			"bufferView":6,
			"componentType":5126,
			"count":100,
			"type":"VEC2"
		},
		{
			"bufferView":7,
			"componentType":5123,
			"count":450,
			"type":"SCALAR"
		},
		{
			"bufferView":8,
			"componentType":5126,
			"count":1062,
			"max":[
				14.962697982788086,
				28.211994171142578,
				7.593848705291748
			],
			"min":[
				-15.364274978637695,
				-55.292816162109375,
				-6.4418721199035645
			],
			"type":"VEC3"
		},
		{
			"bufferView":9,
			"componentType":5126,
			"count":1062,
			"type":"VEC3"
		},
		{
			"bufferView":10,
			"componentType":5126,
			"count":1062,
			"type":"VEC2"
		},
		{
			"bufferView":11,
			"componentType":5123,
			"count":2742,
			"type":"SCALAR"
		},
		{
			"bufferView":12,
			"componentType":5126,
			"count":24,
			"max":[
				0.4104066491127014,
				0.15142059326171875,
				0.17825385928153992
			],
			"min":[
				-0.4104067087173462,
				-2.561068534851074,
				-0.1782534420490265
			],
			"type":"VEC3"
		},
		{
			"bufferView":13,
			"componentType":5126,
			"count":24,
			"type":"VEC3"
		},
		{
			"bufferView":14,
			"componentType":5126,
			"count":24,
			"type":"VEC2"
		},
		{
			"bufferView":15,
			"componentType":5123,
			"count":36,
			"type":"SCALAR"
		}
	],
	"bufferViews":[
		{
			"buffer":0,
			"byteLength":3744,
			"byteOffset":0,
			"target":34962
		},
		{
			"buffer":0,
			"byteLength":3744,
			"byteOffset":3744,
			"target":34962
		},
		{
			"buffer":0,
			"byteLength":2496,
			"byteOffset":7488,
			"target":34962
		},
		{
			"buffer":0,
			"byteLength":1272,
			"byteOffset":9984,
			"target":34963
		},
		{
			"buffer":0,
			"byteLength":1200,
			"byteOffset":11256,
			"target":34962
		},
		{
			"buffer":0,
			"byteLength":1200,
			"byteOffset":12456,
			"target":34962
		},
		{
			"buffer":0,
			"byteLength":800,
			"byteOffset":13656,
			"target":34962
		},
		{
			"buffer":0,
			"byteLength":900,
			"byteOffset":14456,
			"target":34963
		},
		{
			"buffer":0,
			"byteLength":12744,
			"byteOffset":15356,
			"target":34962
		},
		{
			"buffer":0,
			"byteLength":12744,
			"byteOffset":28100,
			"target":34962
		},
		{
			"buffer":0,
			"byteLength":8496,
			"byteOffset":40844,
			"target":34962
		},
		{
			"buffer":0,
			"byteLength":5484,
			"byteOffset":49340,
			"target":34963
		},
		{
			"buffer":0,
			"byteLength":288,
			"byteOffset":54824,
			"target":34962
		},
		{
			"buffer":0,
			"byteLength":288,
			"byteOffset":55112,
			"target":34962
		},
		{
			"buffer":0,
			"byteLength":192,
			"byteOffset":55400,
			"target":34962
		},
		{
			"buffer":0,
			"byteLength":72,
			"byteOffset":55592,
			"target":34963
		}
	],
	"samplers":[
		{
			"magFilter":9729,
			"minFilter":9987
		}
	],
	"buffers":[
		{
			"byteLength":55664,
			"uri":"UpLu_Light_02.bin"
		}
	]
}
